<?xml version="1.0" encoding="UTF-8" standalone="no"?>
<!-- Created with Inkscape (http://www.inkscape.org/) -->

<svg
   width="50.607742mm"
   height="50.705574mm"
   viewBox="0 0 50.607742 50.705574"
   version="1.1"
   id="svg980"
   inkscape:version="1.2.1 (9c6d41e, 2022-07-14)"
   sodipodi:docname="logo.svg"
   xmlns:inkscape="http://www.inkscape.org/namespaces/inkscape"
   xmlns:sodipodi="http://sodipodi.sourceforge.net/DTD/sodipodi-0.dtd"
   xmlns="http://www.w3.org/2000/svg"
   xmlns:svg="http://www.w3.org/2000/svg">
  <sodipodi:namedview
     id="namedview982"
     pagecolor="#ffffff"
     bordercolor="#000000"
     borderopacity="0.25"
     inkscape:showpageshadow="2"
     inkscape:pageopacity="0.0"
     inkscape:pagecheckerboard="0"
     inkscape:deskcolor="#d1d1d1"
     inkscape:document-units="mm"
     showgrid="false"
     inkscape:zoom="0.6688092"
     inkscape:cx="-35.137076"
     inkscape:cy="14.951947"
     inkscape:window-width="1309"
     inkscape:window-height="456"
     inkscape:window-x="2648"
     inkscape:window-y="233"
     inkscape:window-maximized="0"
     inkscape:current-layer="layer1" />
  <defs
     id="defs977" />
  <g
     inkscape:label="Layer 1"
     inkscape:groupmode="layer"
     id="layer1"
     transform="translate(-78.520257,-123.14724)">
    <path
       id="path528-7-0-9-4"
       style="clip-rule:evenodd;fill:#c0c0c0;fill-opacity:1;fill-rule:evenodd;stroke-width:0.342736;stroke-linejoin:round;stroke-miterlimit:1.41421"
       d="m 103.82415,123.1473 a 25.304023,25.579228 0 0 0 -12.65194,3.42718 25.304023,25.579228 0 0 0 -8.333341,7.95765 l -0.02791,-0.004 c -0.170843,0.25565 -0.325465,0.52132 -0.486792,0.7829 a 25.304023,25.579228 0 0 0 -0.673344,1.15807 c -0.167589,0.30705 -0.33976,0.61163 -0.494543,0.92552 l 0.02687,0.0336 a 25.304023,25.579228 0 0 0 -2.545065,9.47746 l -0.03411,0.0134 c -0.02278,0.34693 -0.02567,0.69438 -0.03411,1.0418 a 25.304023,25.579228 0 0 0 -0.04961,0.76585 h 0.03462 c 0.003,0.50091 0.01625,1.00212 0.04909,1.50223 l 5.657019,2.23604 c 0.17,0.85498 0.396225,1.69745 0.676445,2.52284 l -3.781165,4.76509 c 0.488465,0.99059 1.040992,1.94828 1.654679,2.86649 l 6.017204,-0.89194 c 0.574765,0.65539 1.191526,1.27225 1.846916,1.84692 l -0.891935,6.0172 c 0.918315,0.61358 1.87591,1.1663 2.866491,1.65468 l 4.765084,-3.78065 c 0.825388,0.28022 1.668468,0.50593 2.52336,0.67593 l 2.236037,5.65702 c 1.10206,0.0723 2.2073,0.0723 3.30936,0 l 2.23655,-5.65702 c 0.85499,-0.17 1.69746,-0.39571 2.52285,-0.67593 l 4.76508,3.78065 c 0.99058,-0.48838 1.94827,-1.0411 2.86649,-1.65468 l -0.89193,-6.0172 c 0.65539,-0.57467 1.27224,-1.19153 1.84691,-1.84692 l 6.01721,0.89194 c 0.61358,-0.91821 1.1663,-1.8759 1.65468,-2.86649 l -3.78065,-4.76509 c 0.28022,-0.82539 0.50593,-1.66786 0.67593,-2.52284 l 5.65702,-2.23604 c 0.0328,-0.50011 0.0461,-1.00132 0.0491,-1.50223 h 0.0253 a 25.304023,25.579228 0 0 0 -0.0305,-0.47233 c -0.006,-0.44537 -0.0147,-0.89064 -0.0439,-1.33532 l -0.0439,-0.0176 a 25.304023,25.579228 0 0 0 -2.54093,-9.46608 l 0.0326,-0.0408 c -0.18827,-0.38188 -0.39429,-0.75435 -0.60152,-1.12603 a 25.304023,25.579228 0 0 0 -0.41703,-0.71727 c -0.20697,-0.34417 -0.4129,-0.68909 -0.63613,-1.02319 l -0.0367,0.005 a 25.304023,25.579228 0 0 0 -8.33386,-7.95869 25.304023,25.579228 0 0 0 -12.65194,-3.42718 z m 0,10.32185 a 15.030925,15.030925 0 0 1 15.03112,15.03112 15.030925,15.030925 0 0 1 -15.03112,15.03061 15.030925,15.030925 0 0 1 -15.030606,-15.03061 15.030925,15.030925 0 0 1 15.030606,-15.03112 z m 3.61528,2.18901 -13.807938,16.24501 7.034188,-2.22519 -1.718234,11.66389 13.807944,-16.24501 -7.0342,2.22519 z" />
  </g>
</svg>
