<?xml version="1.0" standalone="no"?>
<!DOCTYPE svg PUBLIC "-//W3C//DTD SVG 1.1//EN" "http://www.w3.org/Graphics/SVG/1.1/DTD/svg11.dtd" >
<svg xmlns="http://www.w3.org/2000/svg" xmlns:xlink="http://www.w3.org/1999/xlink" version="1.1">
<metadata>
Created by FontForge 20201107 at Thu May 21 17:06:45 2026
 By www-data
2018 Iconian Fonts - www.iconian.com
</metadata>
<defs>
<font id="AchillesBoldBold" horiz-adv-x="1413" >
  <font-face 
    font-family="Achilles Bold"
    font-weight="400"
    font-stretch="normal"
    units-per-em="2048"
    panose-1="0 0 0 0 0 0 0 0 0 0"
    ascent="1638"
    descent="-410"
    x-height="942"
    cap-height="1642"
    bbox="-295 -504 2746 3031"
    underline-thickness="0"
    underline-position="0"
    unicode-range="U+0020-2219"
  />
<missing-glyph horiz-adv-x="1869" 
d="M0 3031h1870v-3031h-1870v3031zM217 217h1438v2597h-1438v-2597z" />
    <glyph glyph-name=".notdef" horiz-adv-x="1869" 
d="M0 3031h1870v-3031h-1870v3031zM217 217h1438v2597h-1438v-2597z" />
    <glyph glyph-name=".notdef" horiz-adv-x="1869" 
d="M0 3031h1870v-3031h-1870v3031zM217 217h1438v2597h-1438v-2597z" />
    <glyph glyph-name=".null" horiz-adv-x="0" 
 />
    <glyph glyph-name="nonmarkingreturn" horiz-adv-x="682" 
 />
    <glyph glyph-name="space" unicode=" " horiz-adv-x="610" 
 />
    <glyph glyph-name="exclam" unicode="!" horiz-adv-x="641" 
d="M401 8q-40 -37 -96 -37q-54 0 -94 37q-39 36 -39 94t39 97q40 37 94 37q56 0 96 -37q37 -40 37 -97t-37 -94zM209 295q-25 0 -25 24v695q0 42 -4 88q-6 32 -18 51q-17 17 -37 23q-32 4 -62 4q-24 0 -24 22v43q0 25 24 25h502q25 0 25 -25v-43q0 -19 -21 -22
q-60 -10 -80 -17q-26 -9 -40 -26q-14 -16 -17 -47q-2 -18 -2 -74v-697q0 -24 -24 -24h-197z" />
    <glyph glyph-name="quotedbl" unicode="&#x22;" horiz-adv-x="706" 
d="M635 997q-22 -49 -51 -88q-30 -43 -70 -73q-38 -33 -80 -45q-22 -9 -31 16l-16 41q-3 15 12 24q50 30 84 76q34 43 43 88q-4 -2 -39 -2q-64 0 -98 37q-35 38 -35 96q21 127 129 127q66 0 119 -53q51 -51 51 -158q0 -39 -18 -86zM322 997q-21 -46 -52 -88q-31 -45 -69 -73
q-38 -33 -80 -45q-22 -9 -31 16l-16 41q-3 15 12 24q49 32 82 76q37 47 45 88q-4 -2 -18 -2h-21q-64 0 -98 37q-35 38 -35 96q21 127 129 127q66 0 119 -53q51 -51 51 -158q0 -39 -18 -86z" />
    <glyph glyph-name="numbersign" unicode="#" horiz-adv-x="1075" 
d="M199 397h-125q-25 0 -25 25v102q0 25 25 25h157l41 196h-204q-25 0 -25 23v100q0 23 25 23h239q8 36 23.5 102t21.5 92t21.5 92t23.5 103q3 16 23 16h98q13 0 21 -8q7 -7 4 -20l-82 -377h241l93 389q3 16 24 16h101q10 0 18 -8q7 -7 4 -20l-86 -377h125q25 0 25 -23v-100
q0 -23 -25 -23h-156l-45 -196h207q25 0 25 -25v-102q0 -25 -25 -25h-235q-9 -38 -26 -106t-24 -98q-31 -117 -49 -207q-3 -17 -24 -17h-105q-13 0 -18 8q-7 7 -4 21l98 399h-246q-9 -39 -26 -108t-23 -96q-27 -102 -51 -207q-3 -17 -23 -17h-106q-13 0 -21 8q-7 7 -4 21z
M428 745l-45 -196h246q12 53 24 96q0 1 8.5 39t12.5 61h-246z" />
    <glyph glyph-name="dollar" unicode="$" horiz-adv-x="894" 
d="M530 -182q25 0 25 24v166q130 35 205 127q76 94 76 236q0 66 -23 127q-24 57 -63 98q-39 42 -88 76q-63 36 -107 55v397q4 -1 9 -2l7.5 -1.5t3.5 -0.5l5 -2q41 -9 127 -86h63q8 0 18 10q8 8 5 21l-41 188q-3 19 -25 19h-57q-28 0 -25 -27l6 -37l-22 11l2 -3
q-18 10 -43 25q-4 2 -33 14v133q0 23 -25 23h-139q-24 0 -24 -23v-122q-125 -21 -201 -109q-78 -90 -78 -217q0 -148 78 -244q76 -94 201 -141v-418q-79 9 -131 39q-54 31 -101 96q-11 11 -20 11h-49q-12 0 -21 -9q-7 -7 -4 -20l49 -236q3 -20 25 -20h61q23 0 23 24v9
q0 20 4 20q2 0 14 -4q3 -1 9.5 -4t9.5 -4q29 -16 59 -25q38 -12 72 -14v-156q0 -24 24 -24h139zM367 1106v-275q-56 62 -56 140q0 85 56 135zM584 250q-11 -37 -29 -66v275q24 -21 33 -49q8 -24 8 -74q0 -46 -12 -86z" />
    <glyph glyph-name="percent" unicode="%" horiz-adv-x="1406" 
d="M47 25q0 -25 23 -25h542q25 0 25 25v41q0 22 -25 22q-50 0 -80 6q-31 3 -34 23q2 8 10 28q3 7 12 39l608 885q82 117 183 117q22 0 22 22v39q0 25 -22 25h-572q-24 0 -24 -25v-39q0 -22 24 -22q129 0 135 -51l-14 -43l-596 -869q-43 -63 -90 -100q-47 -35 -104 -35
q-23 0 -23 -22v-41zM1092 530q17 -17 26 -41q14 -42 17 -57q1 -10 4 -30.5t4 -30.5h-189q3 32 9 61q2 21 14 57q8 22 27 41q17 17 43 17q25 0 45 -17zM1001 90q-17 18 -26 43q-12 36 -14 57q-1 11 -3.5 32.5t-3.5 27.5h189q-1 -8 -4 -28.5t-4 -31.5q-4 -22 -17 -57
q-8 -25 -26 -43q-19 -16 -45 -16q-30 0 -46 16zM1333 313q0 154 -73 252q-75 97 -216 97q-75 0 -129 -31q-59 -37 -90 -84q-37 -57 -51 -113q-16 -66 -16 -121q0 -67 14 -127q15 -63 49 -112q35 -53 88 -82q50 -33 133 -33q85 0 142 31q51 25 88 78q31 51 45 112
q13 72 16 131v2zM379 1180q17 -17 29 -41q11 -33 16 -58q5 -50 6 -59h-188q5 43 8 59q2 23 14 58q9 24 29 41q16 16 41 16q26 0 45 -16zM291 739q-19 19 -27 43q-12 36 -14 60q-3 16 -8 59h188q-1 -10 -3 -30.5t-3 -30.5q-5 -25 -16 -58q-9 -26 -29 -43q-19 -16 -45 -16
q-27 0 -43 16zM623 965q0 71 -19 139q-18 64 -55 110q-35 44 -90 72q-58 25 -127 25q-75 0 -129 -31q-57 -37 -88 -82q-39 -59 -52 -113q-16 -66 -16 -120q0 -67 14 -127t50 -115q35 -53 86 -82q50 -33 133 -33q84 0 141 31q51 25 88 78q31 51 45 112q16 70 19 134v2z" />
    <glyph glyph-name="ampersand" unicode="&#x26;" horiz-adv-x="1325" 
d="M727 610q-18 -26 -78 -110q-14 -18 -76 -105q-29 -37 -75 -102q-17 -22 -80 -113h528q48 0 86 47q36 44 64 115q28 67 43 137q11 50 24 119q3 18 25 18h43q24 0 24 -24l-51 -569q-3 -23 -22 -23h-1112q-17 0 -23 12q-7 13 2 25l397 573h-376q-25 0 -25 25v102q0 25 25 25
h374l-393 469q-10 10 -4 24q6 15 23 15h882q25 0 25 -23l18 -284q0 -27 -22 -27h-43q-22 0 -25 18q-8 42 -26 74q-21 32 -45 45q-26 14 -70 21q-54 4 -98 4h-232q44 -53 146 -168q70 -82 147 -168h277q24 0 24 -25v-102q0 -25 -24 -25h-277z" />
    <glyph glyph-name="quotesingle" unicode="'" horiz-adv-x="380" 
d="M317 997q-18 -46 -49 -88q-31 -45 -69 -73q-38 -33 -80 -45q-24 -10 -33 16l-16 41q-3 15 12 24q50 30 84 76q37 47 45 88q-4 -2 -21 -2h-18q-66 0 -100 37q-35 38 -35 96q24 127 131 127q64 0 117 -53q51 -51 51 -158q0 -37 -19 -86z" />
    <glyph glyph-name="parenleft" unicode="(" horiz-adv-x="604" 
d="M545 1352l-2 -35q-85 -56 -140 -131q-54 -73 -98 -176q-42 -102 -59 -205q-21 -108 -21 -215q0 -114 21 -225q23 -125 59 -209q42 -104 94 -172q55 -76 127 -117q26 -15 4 -37l-28 -27q-13 -13 -27 -4q-109 65 -190 152q-84 90 -135 192q-55 101 -82 215q-29 122 -29 224
q0 117 29 239q25 107 88 226q119 220 333 339q14 9 27 -4z" />
    <glyph glyph-name="parenright" unicode=")" horiz-adv-x="604" 
d="M47 1352q-11 -11 -8 -19q3 -10 12 -16q83 -55 139 -131q61 -83 101 -176q35 -82 59 -205q19 -114 19 -215q0 -114 -21 -225q-23 -125 -59 -209q-42 -104 -94 -172q-60 -79 -127 -117q-27 -15 -5 -37l27 -27q12 -14 29 -4q104 62 188 152q82 88 137 192q58 112 82 215
q27 114 27 224q0 246 -115 465q-122 219 -334 339q-15 9 -28 -4z" />
    <glyph glyph-name="asterisk" unicode="*" horiz-adv-x="577" 
d="M319 1333q-15 15 -36 15q-52 0 -52 -52q0 -19 17 -36q15 -15 35 -15q21 0 36 15q15 12 15 36q0 22 -15 37zM514 1139q-14 14 -37 14q-21 0 -35 -14t-14 -37q0 -49 49 -49q51 0 51 49q0 23 -14 37zM528 922q0 6 -2 8l-6 6l-166 166l166 164q4 4 6 8q2 2 2 8v41
q0 25 -24 25h-41q-6 0 -8 -2l-9 -7l-163 -165l-166 165q0 9 -15 9h-39q-24 0 -24 -25v-41q0 -4 4 -8l4 -8l166 -164l-166 -166q-2 -4 -4 -6q-4 -4 -4 -8v-41q0 -23 24 -23h39q15 0 15 8l166 166l163 -166q5 -2 9 -4q4 -4 8 -4h41q24 0 24 23v41zM125 1139q-14 14 -35 14
t-35 -14q-16 -16 -16 -37q0 -17 16 -33t35 -16q49 0 49 49q0 23 -14 37zM319 944q-14 14 -36 14q-21 0 -35 -14q-17 -17 -17 -35t17 -35q16 -16 35 -16q20 0 36 16q15 15 15 35t-15 35z" />
    <glyph glyph-name="plus" unicode="+" horiz-adv-x="786" 
d="M440 295q25 0 25 24v242h242q24 0 24 25v106q0 23 -24 23h-242v241q0 23 -25 23h-104q-23 0 -23 -23v-241h-250q-22 0 -22 -23v-106q0 -25 22 -25h250v-242q0 -24 23 -24h104z" />
    <glyph glyph-name="comma" unicode="," horiz-adv-x="380" 
d="M317 -59q-16 -42 -49 -86q-32 -47 -69 -74q-38 -33 -80 -45q-24 -10 -33 16l-16 41q-3 16 12 25q50 30 84 73q36 46 45 91q-4 -2 -21 -2h-18q-67 0 -100 36q-35 38 -35 97q24 123 131 123q65 0 117 -52q51 -51 51 -157q0 -37 -19 -86z" />
    <glyph glyph-name="hyphen" unicode="-" horiz-adv-x="604" 
d="M63 565q-24 0 -24 25v102q0 23 24 23h467q23 0 23 -23v-102q0 -25 -23 -25h-467z" />
    <glyph glyph-name="period" unicode="." horiz-adv-x="344" 
d="M264 8q-40 -37 -96 -37q-55 0 -92 37q-39 36 -39 94t39 97q37 37 92 37q56 0 96 -37q37 -40 37 -97t-37 -94z" />
    <glyph glyph-name="slash" unicode="/" horiz-adv-x="1406" 
d="M47 66q0 22 23 22q57 0 104 35q47 37 90 100l596 869l14 43q-6 51 -135 51q-24 0 -24 22v39q0 25 24 25h572q22 0 22 -25v-39q0 -22 -22 -22q-101 0 -183 -117l-608 -885q-9 -31 -12 -39q-8 -20 -10 -28q3 -20 34 -23q30 -6 80 -6q25 0 25 -22v-41q0 -25 -25 -25h-542
q-23 0 -23 25v41z" />
    <glyph glyph-name="zero" unicode="0" horiz-adv-x="1433" 
d="M1360 66q0 22 -25 22q-58 0 -102 35q-47 37 -90 100l-316 475q104 124 150 176q17 19 149 177q63 75 107 104q43 29 90 29q23 0 23 22v39q0 25 -23 25h-428q-25 0 -25 -25v-39q0 -22 25 -22q52 0 90 -10q33 -11 33 -31q0 -16 -29 -45l-248 -297q-12 18 -32 47.5t-36 53
t-30 42.5t-30 42.5t-36 53t-32 47.5l-13 46q6 51 136 51q24 0 24 22v39q0 25 -24 25h-572q-24 0 -24 -25v-39q0 -22 24 -22q54 0 97 -27q41 -27 86 -90l313 -449l-328 -411v2q-53 -62 -92 -84q-46 -29 -106 -37q-10 -5 -13 -8q-6 -6 -6 -14v-41q0 -25 23 -25h442q25 0 25 25
v41q0 22 -25 22q-23 0 -98 16q-31 9 -31 25t31 47l266 324l207 -316q7 -24 12 -37q3 -16 10 -26q0 -21 -32 -27q-35 -6 -82 -6q-25 0 -25 -22v-41q0 -25 25 -25h540q25 0 25 25v41z" />
    <glyph glyph-name="one" unicode="1" horiz-adv-x="684" 
d="M63 0q-24 0 -24 25v38q0 23 24 23q92 0 119 27q27 24 27 67v821q0 113 -33 146t-110 33q-25 0 -25 22v43q0 25 25 25h540q23 0 23 -25v-43q0 -19 -19 -22q-48 -8 -84 -19q-32 -9 -47 -28q-17 -20 -20 -48q-4 -40 -4 -77v-828q0 -94 151 -94q23 0 23 -23v-38
q0 -25 -23 -25h-543z" />
    <glyph glyph-name="two" unicode="2" horiz-adv-x="1236" 
d="M1169 63q0 23 -24 23q-152 0 -152 94v828q0 47 6 77q3 26 21 48q16 19 45 28q36 11 84 19q20 3 20 22v43q0 25 -24 25h-1075q-23 0 -23 -25v-43q0 -22 23 -22q79 0 112 -33t33 -146v-821q0 -43 -27 -67q-27 -27 -118 -27q-25 0 -25 -23v-38q0 -25 25 -25h1075q24 0 24 25
v38zM750 180q0 -41 -29 -67q-27 -27 -119 -27q-74 0 -110 25q-33 20 -33 69v828q0 48 8 75q6 28 25 50q15 19 47 28q32 11 75 19q71 0 105 -37q31 -39 31 -142v-821z" />
    <glyph glyph-name="three" unicode="3" horiz-adv-x="1792" 
d="M1708 63q0 23 -22 23q-154 0 -154 94v828q0 47 6 77q3 26 21 48q15 19 47 28q36 11 84 19q18 3 18 22v43q0 25 -22 25h-1610q-25 0 -25 -25v-43q0 -22 25 -22q77 0 110 -33t33 -146v-821q0 -44 -26 -67q-27 -27 -119 -27q-25 0 -25 -23v-38q0 -25 25 -25h1612q22 0 22 25
v38zM754 180q0 -43 -27 -67q-27 -27 -119 -27q-74 0 -110 25q-33 20 -33 69v828q0 45 6 75q6 28 25 47q15 18 47 31q37 11 78 19q72 0 102 -37q31 -39 31 -142v-821zM1288 180q0 -44 -26 -67q-27 -24 -111 -27q-152 0 -152 94v828q0 40 7 75q7 30 24 47q15 18 47 31
q37 11 78 19q72 0 102 -37q31 -39 31 -142v-821z" />
    <glyph glyph-name="four" unicode="4" horiz-adv-x="1916" 
d="M641 63q0 23 -25 23q-151 0 -151 94v828q0 37 4 73q3 28 18 49q17 20 43 29q34 11 76 19q33 -8 64 -39q25 -31 51 -82v2l463 -1057q7 -17 22 -14q15 0 21 16l424 1071q15 53 63 82q53 29 92 29q23 0 23 22v37q0 25 -23 25h-397q-23 0 -23 -25v-37q0 -22 23 -22
q50 0 74 -8q26 -9 26 -37v-6q-2 -7 -4 -15l-8 -28l2 4l-252 -631l-258 598l2 -10l-4 16q-1 5 -4 14.5t-4 14.5q-4 20 -4 30q0 39 33 48q38 10 79 10q23 0 23 22v37q0 25 -23 25h-1009q-25 0 -25 -25v-43q0 -22 25 -22q77 0 110 -33t33 -146v-821q0 -44 -26 -67
q-27 -27 -119 -27q-25 0 -25 -23v-38q0 -25 25 -25h540q25 0 25 25v38z" />
    <glyph glyph-name="five" unicode="5" horiz-adv-x="1400" 
d="M586 1270q22 0 22 -25v-37q0 -22 -22 -22q-42 0 -80 -10q-33 -9 -33 -48q0 -10 4 -30q1 -5 4 -14.5t4 -14.5l4 -16l-2 10l258 -596l252 629l-2 -4l9 28q5 15 6 17v4q0 28 -27 37q-24 8 -76 8q-22 0 -22 22v37q0 25 22 25h398q22 0 22 -25v-37q0 -22 -22 -22
q-41 0 -91 -29q-50 -30 -65 -82l-424 -1069q-6 -16 -20 -16q-13 -3 -23 14l-463 1055q-23 50 -59 86q-37 32 -94 41q-19 3 -19 22v37q0 25 23 25h516z" />
    <glyph glyph-name="six" unicode="6" horiz-adv-x="1908" 
d="M1823 63q0 23 -25 23q-151 0 -151 94v828q0 47 6 77q3 28 20 48q16 19 45 28q36 11 84 19q21 3 21 22v43q0 25 -25 25h-885q-24 0 -24 -25v-37q0 -22 24 -22q50 0 74 -8q27 -9 27 -37v-4q-1 -2 -6 -17l-9 -28l2 4l-249 -629l-258 596l2 -10l-4 16q-1 5 -4.5 14.5
t-4.5 14.5q-6 15 -6 30q0 39 33 48q38 10 80 10q22 0 22 22v37q0 25 -22 25h-514q-25 0 -25 -25v-37q0 -19 21 -22q54 -8 92 -41q35 -35 61 -86l461 -1055q10 -17 23 -14q14 0 20 16l418 1055q15 47 51 76q36 31 76 43q65 -3 98 -39q31 -39 31 -140v-821q0 -41 -29 -67
q-27 -27 -119 -27q-22 0 -22 -23v-38q0 -25 22 -25h543q25 0 25 25v38z" />
    <glyph glyph-name="seven" unicode="7" horiz-adv-x="2463" 
d="M2361 63q0 23 -24 23q-152 0 -152 94v828q0 47 6 77q3 26 21 48q16 19 45 28q36 11 84 19q20 3 20 22v43q0 25 -24 25h-1419q-23 0 -23 -25v-37q0 -22 23 -22q49 0 73 -8q27 -9 27 -37v-4q-1 -2 -6 -17l-6 -28l2 4l-252 -629l-258 596l2 -10l-4 16q-1 5 -4.5 14.5
t-4.5 14.5q-6 15 -6 30q0 39 35 48q38 10 78 10q24 0 24 22v37q0 25 -24 25h-514q-23 0 -23 -25v-37q0 -19 19 -22q57 -9 94 -41q36 -36 59 -86l463 -1055q7 -17 23 -14q14 0 20 16l418 1055q12 46 49 76q36 31 76 43q69 -3 98 -39q31 -39 31 -140v-821q0 -43 -27 -67
q-27 -27 -118 -27q-25 0 -25 -23v-38q0 -25 25 -25h1075q24 0 24 25v38zM1942 180q0 -43 -27 -67q-27 -27 -119 -27q-145 0 -145 94v828q0 48 8 75q7 30 24 50q15 18 48 28q32 11 75 19q75 0 105 -37q31 -39 31 -142v-821z" />
    <glyph glyph-name="eight" unicode="8" horiz-adv-x="2445" 
d="M1753 25q0 -25 25 -25h542q23 0 23 25v41q0 22 -23 22q-58 0 -102 35q-47 35 -92 100l-316 475q103 123 152 176q17 19 149 177q65 78 105 104q44 29 90 29q25 0 25 22v39q0 25 -25 25h-428q-25 0 -25 -25v-39q0 -22 25 -22q125 0 125 -41q0 -14 -31 -45l-248 -297
q-12 18 -32 47.5t-36 53t-30 42.5q-17 24 -49.5 73.5t-46.5 69.5l-14 46q6 51 135 51q24 0 24 22v39q0 25 -24 25h-1569q-25 0 -25 -25v-43q0 -22 25 -22q78 0 111 -33q32 -32 32 -146v-821q0 -44 -26 -67q-27 -27 -119 -27q-25 0 -25 -23v-38q0 -25 25 -25h1415q25 0 25 25
v41q0 22 -25 22q-23 0 -98 16q-31 9 -31 25q0 11 31 47l266 324l207 -316q7 -25 12 -37q3 -16 10 -26q0 -21 -30 -27q-34 -6 -84 -6q-25 0 -25 -22v-41zM1004 1008q0 35 4 75q3 29 18 50q17 20 41 28q32 12 68 17q67 -21 127 -109q28 -41 81.5 -116t75.5 -107
q25 -38 77.5 -114t78.5 -114l-328 -411v2q-48 -58 -80 -76q-37 -24 -90 -39q-73 21 -73 86v828zM471 180v828q0 45 6 75q6 28 25 47q15 18 47 31q37 11 78 19q72 0 102 -37q29 -40 29 -142v-821q0 -43 -27 -67q-27 -27 -119 -27q-141 3 -141 94z" />
    <glyph glyph-name="nine" unicode="9" horiz-adv-x="1892" 
d="M1782 0q24 0 24 25v41q0 22 -24 22q-59 0 -103 35q-47 37 -90 100l-315 475q119 142 149 176q33 37 150 177q64 76 106 104q43 29 88 29q25 0 25 22v39q0 25 -25 25h-426q-24 0 -24 -25v-39q0 -22 24 -22q53 0 91 -10q32 -11 32 -31q0 -9 -28 -45l-250 -297
q-20 30 -54.5 81t-41.5 62q-18 25 -99 143l-14 46q6 51 137 51q23 0 23 22v39q0 25 -23 25h-1038q-23 0 -23 -25v-43q0 -22 23 -22q79 0 112 -33t33 -146v-821q0 -44 -26 -67q-27 -27 -119 -27q-25 0 -25 -23v-38q0 -25 25 -25h882q23 0 23 25v41q0 22 -23 22q-15 0 -43 4
q-26 3 -55 12q-33 9 -33 25q0 14 33 47l266 324l207 -316q9 -30 10 -37q3 -14 11 -26q0 -21 -31 -27q-35 -6 -84 -6q-22 0 -22 -22v-41q0 -25 22 -25h543zM465 1008q0 45 6 75q3 29 18 50q13 19 39 28q38 13 70 17q33 -9 66 -35q32 -32 59 -74q27 -40 80.5 -114.5
t77.5 -108.5l78 -114t77 -114l-325 -411v2q-48 -58 -80 -76q-43 -26 -90 -39q-76 21 -76 86v828z" />
    <glyph glyph-name="colon" unicode=":" horiz-adv-x="348" 
d="M262 840q-40 37 -94 37q-50 -3 -92 -39q-39 -36 -39 -95q3 -61 41 -96q36 -39 92 -39q60 3 98 41q37 37 37 94q-3 57 -43 97zM268 199q-40 37 -96 37q-55 0 -92 -37q-39 -39 -39 -97t39 -94q37 -37 92 -37q56 0 96 37q37 37 37 94t-37 97z" />
    <glyph glyph-name="semicolon" unicode=";" horiz-adv-x="348" 
d="M262 840q-40 37 -94 37q-50 -3 -92 -39q-39 -36 -39 -95q3 -61 41 -96q36 -39 92 -39q60 3 98 41q37 37 37 94q-3 57 -43 97zM258 -39q-11 -33 -33 -70q-16 -26 -49 -59q-27 -27 -59 -43q61 38 100 102q37 58 37 121q0 14 -10 21q-13 7 -25 -2q-16 -4 -53 -4
q-41 0 -60 22q-17 20 -20 55q9 33 29 60q19 22 47 22q49 0 78 -39q30 -41 30 -120q0 -31 -12 -66z" />
    <glyph glyph-name="less" unicode="&#x3c;" horiz-adv-x="1079" 
d="M57 561q-14 6 -14 23v96q0 6 6 12q2 4 8 10l926 441q13 7 23 0q10 -10 10 -21v-127q0 -14 -15 -20l-731 -338l731 -334q15 -9 15 -20v-123q0 -14 -10 -21q-8 -6 -23 -2z" />
    <glyph glyph-name="equal" unicode="=" horiz-adv-x="790" 
d="M711 397q24 0 24 23v106q0 25 -24 25h-648q-22 0 -22 -25v-106q0 -23 22 -23h648zM711 727q24 0 24 25v106q0 23 -24 23h-648q-22 0 -22 -23v-106q0 -25 22 -25h648z" />
    <glyph glyph-name="greater" unicode="&#x3e;" horiz-adv-x="1079" 
d="M1001 561q15 6 15 23v96q0 4 -4 12q-2 2 -6 5.5t-5 4.5l-923 441q-16 6 -25 0q-10 -10 -10 -21v-127q0 -14 14 -20q56 -25 179 -81.5t188 -86.5q48 -22 171.5 -80t192.5 -90l-731 -334q-14 -8 -14 -20v-123q0 -14 10 -21q8 -5 25 -2z" />
    <glyph glyph-name="question" unicode="?" horiz-adv-x="788" 
d="M451 111q0 -59 -33 -95q-34 -37 -86 -43q-53 0 -94 35t-41 88q0 59 32 97t86 38q58 0 93 -32q37 -34 43 -86v-2zM696 813q-46 -66 -98 -129l-59 -76q-15 -23 -27 -37q-4 -5 -14.5 -17t-14.5 -17q-35 -46 -82 -113q-34 -52 -34 -117q0 -22 -25 -22h-45q-23 0 -23 24
q2 52 15 146q9 63 24 110l-2 -2q7 29 33 72q30 45 55 88q6 9 72 121q33 56 33 96q0 54 -15 94q-15 39 -40 68q-26 26 -60 41q-32 14 -70 14q-45 0 -79 -18q-36 -22 -39 -58q21 -29 26 -41q10 -23 13 -45l-2 2l14 -39q0 -15 -10 -38q-7 -17 -27 -37q-16 -20 -35 -29
q-23 -10 -39 -10q-40 0 -69 39q-31 42 -31 104q0 65 29 121q26 51 73 92q44 38 105 60q56 20 119 20q68 0 135 -25q68 -28 116 -71q48 -42 84 -107q31 -67 31 -137q0 -69 -37 -127z" />
    <glyph glyph-name="at" unicode="@" horiz-adv-x="1513" 
d="M1034 389q58 9 101 55q40 43 67 107q25 60 41 135q12 70 12 137q0 99 -34 174q-38 78 -99 133q-65 59 -143 87q-86 28 -178 28q-131 0 -244 -55q-110 -53 -195 -148q-85 -94 -131 -213q-49 -122 -49 -254q0 -120 43 -227q40 -107 117 -184q78 -78 180 -123
q99 -45 226 -45q192 0 342 102q148 103 233 301q6 15 23 15h67q14 0 21 -11q6 -9 2 -20q-77 -229 -262 -365q-101 -70 -205 -104q-107 -35 -228 -35q-153 0 -278 55t-219 152q-93 96 -144 225q-53 130 -53 279q0 160 57 297q61 143 158 246q99 105 238 170q137 61 297 61
q131 0 235 -39q107 -40 185 -115q74 -71 118 -174q43 -101 43 -225q0 -108 -30 -207q-27 -92 -78 -176q-47 -73 -109 -119q-60 -45 -119 -45q-76 0 -120 29q-42 28 -60 63q-39 -48 -96 -82q-56 -36 -137 -36q-74 0 -135 28q-56 26 -95 74q-37 43 -57 113q-20 61 -20 137
q0 72 20 133q22 67 59 115q35 46 93 82q56 30 127 30h8q94 0 145 -39q49 -37 84 -116q4 10 12.5 30.5t12.5 30.5q15 38 22 64l10 10q8 4 13 4h139q15 0 20 -8q6 -10 3 -23l-148 -405q0 -21 10 -41t23 -33q14 -18 26 -25q13 -8 27 -8zM686 387q26 20 47 55q22 37 33 70
q12 38 12 66v6q-4 46 -10 75q-8 35 -25 78q-18 37 -45 64q-27 24 -69 24q-84 0 -99 -229q0 -112 27 -170q27 -61 76 -61q25 0 53 22z" />
    <glyph glyph-name="A" unicode="A" 
d="M805 0q-23 0 -23 25v36q0 23 23 23q42 0 80 10q33 9 33 47q0 6 -5 31q-1 5 -4 14.5t-4 14.5l-4 16l2 -10l-266 596q-43 -102 -129 -314q-90 -219 -129 -315l2 2l-6 -29q-4 -12 -4 -14l-2 -4q0 -28 26 -37q24 -8 74 -8q23 0 23 -23v-36q0 -25 -23 -25h-403q-23 0 -23 25
v36q0 23 23 23t47 8q31 12 47 23q28 20 41 35q17 23 22 47l432 1069q6 15 23 18q14 0 20 -16l473 -1057q24 -53 60 -84q34 -34 94 -43q18 -3 18 -23v-36q0 -25 -22 -25h-516z" />
    <glyph glyph-name="B" unicode="B" horiz-adv-x="1175" 
d="M670 0h-602q-23 0 -23 25v43q0 19 21 22q17 2 39 5.5t26 4.5q23 3 33 13q9 6 12 20q2 8 2 35v866q0 30 -4 66q-3 25 -16 41q-13 17 -35 26q-20 9 -60 15q-18 3 -18 22v41q0 25 23 25h489q108 0 203 -29q86 -29 149 -80q61 -49 95 -110q30 -65 30 -129q0 -74 -39 -142
q-42 -73 -116 -118q126 -50 182 -132q49 -79 49 -190q0 -340 -440 -340zM780 1012q-29 44 -67 69q-39 26 -92 41t-101 15h-121v-422q106 0 174 8q75 9 121 27q54 22 82 59q31 39 31 111q0 52 -27 92zM584 133q51 0 114 17q45 13 97 45q41 27 65 71q25 42 25 94
q-9 74 -58 117q-53 46 -116 66q-71 21 -150 30q-93 7 -149 7v-447h172z" />
    <glyph glyph-name="C" unicode="C" horiz-adv-x="1253" 
d="M45 606q0 -129 39 -239q41 -117 111 -201q69 -84 174 -135q99 -51 223 -51q260 0 401 112q144 114 193 330q3 29 -25 29h-57q-22 0 -25 -17q-85 -298 -428 -313q-86 6 -143 43q-63 38 -102 98q-44 66 -64 146q-27 92 -35 182q-2 8 -2 18v33q9 100 35 186q26 95 70 162
q44 71 108 117q62 45 156 45q70 0 125 -12q50 -11 102 -41q41 -24 88 -74q46 -49 90 -113q3 -10 19 -10h57q11 0 21 10q8 8 4 19l-93 334q-3 18 -22 18h-61q-25 0 -25 -25l2 -18q0 -22 -4 -22q-8 0 -21 8h2q-45 27 -112 45q-79 20 -193 20h-32q-15 0 -19 2q-6 0 -14 -4
q-130 -12 -226 -69q-92 -54 -165 -150q-69 -86 -107 -203q-39 -110 -45 -231v-29z" />
    <glyph glyph-name="D" unicode="D" horiz-adv-x="1220" 
d="M643 0q115 0 209 49q92 45 162 131q65 83 102 193t37 235q0 320 -141 492q-144 170 -434 170h-510q-23 0 -23 -25v-47q0 -22 23 -22q38 0 65 -9t27 -49v-973q0 -32 -25 -41q-27 -10 -67 -10q-23 0 -23 -22v-47q0 -25 23 -25h575zM399 143v994h97q208 0 309 -119
q100 -118 100 -402q0 -233 -86 -354q-88 -119 -291 -119h-129z" />
    <glyph glyph-name="E" unicode="E" horiz-adv-x="1126" 
d="M993 412q-6 0 -12 -6q-5 -4 -10 -13q-4 -18 -23 -84q-12 -40 -33 -67q-25 -32 -55 -45q-39 -17 -82 -17h-360l354 498q10 16 -2 31q-126 146 -168 194q-32 36 -91.5 105.5t-76.5 89.5h295q42 0 100 -4q44 -7 70 -21q24 -13 45 -45q19 -35 27 -74q3 -10 10 -12q6 -6 12 -6
h45q23 0 23 27l-19 284q0 23 -24 23h-950q-17 0 -23 -15q-6 -14 4 -24l449 -539l-451 -655q-9 -12 -2 -25q6 -12 23 -12h944q24 0 24 23l25 364q0 25 -23 25h-45z" />
    <glyph glyph-name="F" unicode="F" horiz-adv-x="1216" 
d="M932 723q0 25 -23 25h-432v376h297q53 0 119 -4q47 -6 80 -26q31 -22 51 -60q19 -37 35 -108q5 -10 8 -13q6 -6 14 -6h43q11 0 19 8q10 6 6 17l-29 315q-3 23 -24 23h-1028q-23 0 -23 -25v-43q0 -19 21 -22q70 -11 124 -35q43 -24 43 -84v-881q0 -51 -28 -67
q-30 -15 -74 -21l-37 -6q-20 -3 -20 -23v-38q0 -25 24 -25h514q25 0 25 25v38q0 20 -19 23q-2 2 -14 2h-14q-35 5 -41 6q-16 2 -37 15q-17 10 -25 26q-10 17 -10 45v422h432q23 0 23 23v98zM74 8l559 -4l-295 -373z" />
    <glyph glyph-name="G" unicode="G" horiz-adv-x="1126" 
d="M1020 983q13 0 20 10q6 8 2 23q-15 39 -53 90q-39 49 -96 88q-70 46 -143 70q-79 26 -191 26q-114 0 -205 -45q-94 -46 -161 -119q-65 -68 -109 -170q-41 -96 -41 -198q0 -94 39 -189q38 -100 104 -178q63 -77 164 -133q95 -53 213 -53h15q56 0 112 26q64 26 119 70v-418
q0 -22 25 -22h198q23 0 23 22v787q0 24 -23 24h-198q-23 0 -23 -24v-148q-37 -76 -92 -116q-56 -41 -121 -41q-84 0 -143 41q-60 42 -93 100q-35 58 -51 135q-14 69 -14 141q0 79 22 150q20 62 56 110q35 47 80 70q48 25 92 25q97 0 149 -37q49 -38 88 -105q9 -12 21 -12
h215zM659 -127l562 -4l-295 -373z" />
    <glyph glyph-name="H" unicode="H" horiz-adv-x="1423" 
d="M203 1047q0 133 -133 133q-23 0 -23 22v43q0 25 23 25h501q23 0 23 -25v-43q0 -22 -23 -22q-76 0 -98 -31q-20 -64 -20 -117v-317h491v317q0 72 -39 111q-40 37 -94 37q-23 0 -23 22v43q0 25 23 25h502q22 0 22 -25v-43q0 -22 -22 -22q-65 0 -92 -41q-27 -43 -27 -135
v-756q0 -26 4 -62q3 -27 19 -49q18 -25 40 -35q23 -13 72 -16q21 0 21 -23v-38q0 -25 -23 -25h-516q-23 0 -23 25v38q0 11 9 17q6 6 14 6q45 3 72 12q23 8 41 33q13 24 16 53q4 40 4 78v305h-491v-360q0 -25 4 -53q4 -25 16 -35q15 -15 41 -21q27 -9 74 -12q20 -3 20 -23
v-38q0 -25 -22 -25h-516q-23 0 -23 25v38q0 23 21 23q38 2 73 14q24 8 41 25q14 18 17 41q4 28 4 57v824zM788 4l560 -4l-293 -373z" />
    <glyph glyph-name="I" unicode="I" horiz-adv-x="681" 
d="M63 0q-24 0 -24 25v38q0 23 24 23q92 0 119 27q27 24 27 67v834q0 57 -8 88t-25 51q-21 18 -45 23q-36 4 -65 4q-25 0 -25 22v43q0 25 25 25h540q23 0 23 -25v-43q0 -19 -19 -22q-64 -11 -84 -17q-30 -9 -47 -26q-17 -20 -20 -47q-4 -36 -4 -74v-836q0 -94 151 -94
q23 0 23 -23v-38q0 -25 -23 -25h-543zM614 1266l-559 6l295 370z" />
    <glyph glyph-name="J" unicode="J" horiz-adv-x="684" 
d="M14 -104q0 -25 23 -25l16 4l1 1l-3 -1l-8 -2q2 2 8 4q29 10 47 14q30 11 78.5 30t52.5 20q58 22 97 51q35 24 73 71q36 52 62 111v813q0 45 6 80q3 31 20 55q16 23 45 37q27 12 80 21q19 3 19 22v43q0 25 -23 25h-542q-25 0 -25 -25v-43q0 -22 25 -22q78 0 114 -39
q37 -40 37 -156v-799q-12 -47 -57 -98q-41 -46 -133 -106q-13 -10 -13 -19v-67zM618 1266l-561 6l295 370z" />
    <glyph glyph-name="K" unicode="K" horiz-adv-x="1437" 
d="M768 0q-23 0 -23 25v38q0 23 23 23q57 0 88 8q31 6 31 21q0 19 -13 32l-382 410l-41 -43v-307q0 -65 30 -92q32 -29 103 -29q22 0 22 -23v-38q0 -25 -22 -25h-514q-23 0 -23 25v38q0 23 23 23q70 0 108 23q33 20 33 79v854q0 76 -31 107q-36 31 -110 31q-23 0 -23 22v43
q0 25 23 25h528q25 0 25 -25v-43q0 -19 -23 -22q-53 -6 -80 -15q-29 -9 -45 -28q-17 -24 -20 -52q-4 -46 -4 -81v-285l397 375v-2q6 6 6 34q0 54 -100 54q-25 0 -25 22v43q0 25 25 25h483q25 0 25 -25v-43q0 -17 -17 -20q-58 -17 -137 -54q-56 -26 -111 -84l-340 -339
l529 -570q26 -29 59 -39t94 -10q25 0 25 -23v-38q0 -25 -25 -25h-571zM614 1262l-559 6l295 370z" />
    <glyph glyph-name="L" unicode="L" horiz-adv-x="1202" 
d="M1106 23q-3 -23 -25 -23h-1013q-23 0 -23 25v43q0 19 18 22q77 11 127 37q43 21 43 82v881q0 51 -28 67q-30 15 -74 21l-37 6q-20 3 -20 22v39q0 25 24 25h514q25 0 25 -25v-39q0 -19 -19 -22q-2 -2 -14 -2h-12q-7 -1 -21.5 -3t-21.5 -3q-17 -2 -35 -13t-27 -26
q-10 -20 -10 -47v-945h268q62 0 123 7q50 3 84 24q38 23 58 62q18 35 34 106q4 7 11 12q6 6 12 6h45q26 0 23 -24zM639 1262l-559 6l295 370z" />
    <glyph glyph-name="M" unicode="M" horiz-adv-x="1751" 
d="M229 1077q0 31 -2 43q-3 19 -18 31q-16 10 -41 18q-39 9 -80 11q-22 0 -22 22v43q0 25 24 25h356q5 0 13 -4q3 -6 8 -11l393 -858l385 858q6 15 21 15h379q24 0 24 -25v-43q0 -19 -22 -22q-41 -3 -60 -6q-2 0 -37 -9q-14 -3 -20 -12q-8 -12 -10 -20l2 4q-17 -87 -17 -105
v-852q0 -56 35 -71q43 -19 82 -21h10q4 -2 13 -2q24 0 24 -23v-38q0 -25 -24 -25h-515q-24 0 -24 25v38q0 20 22 23q70 9 99 25q25 11 35 41v757l-410 -895q-8 -14 -21 -14h-30q-18 0 -21 14l-397 852v-673q0 -42 14 -62q15 -20 31 -27l107 -18q20 -3 20 -23v-38
q0 -25 -25 -25h-456q-25 0 -25 25v38q0 20 23 23q56 6 84 12q26 6 45 17q28 12 28 65v897zM1110 8l559 -4l-295 -373z" />
    <glyph glyph-name="N" unicode="N" horiz-adv-x="1425" 
d="M1352 63q0 23 -23 23q-69 0 -110 27q-41 24 -41 94v825q0 72 26 111q27 37 109 37q22 0 22 22v43q0 25 -22 25h-1243q-23 0 -23 -25v-43q0 -22 23 -22q56 0 96 -21q39 -20 39 -82v-870q0 -72 -37 -96q-42 -25 -98 -25q-23 0 -23 -23v-38q0 -25 23 -25h528q25 0 25 25v38
q0 23 -25 23q-72 0 -106 27q-37 24 -37 94v942h473v-942q0 -45 -8 -64q-9 -21 -25 -34q-18 -14 -37 -17q-21 -3 -45 -6h-12q-25 0 -25 -23v-38q0 -25 25 -25h528q23 0 23 25v38zM784 8l562 -4l-295 -373z" />
    <glyph glyph-name="O" unicode="O" horiz-adv-x="1421" 
d="M1348 309q0 25 -23 25h-47q-22 0 -25 -19q-9 -44 -28 -88q-18 -41 -60 -41h-252v29q95 26 172 84q68 49 125 125q50 71 76 151q25 86 25 166q0 111 -33 209q-34 100 -109 178q-74 77 -190 123q-113 45 -283 45q-166 0 -282 -45q-118 -46 -195 -123q-79 -79 -115 -174
q-38 -96 -38 -204q0 -88 30 -170q29 -83 84 -160q53 -74 127 -127q74 -56 160 -80v-27h-242q-39 0 -57 41q-22 43 -31 88q-3 10 -8 15q-12 4 -14 4h-45q-23 0 -23 -25v-284q0 -25 23 -25h522q22 0 22 27l-14 264q0 17 -14 20q-64 22 -109 70q-45 43 -82 108q-34 60 -49 132
q-18 67 -18 129q0 79 22 159q21 75 66 131q41 55 112 90q67 33 166 33q92 0 164 -35q70 -39 111 -94t63 -133q21 -77 21 -151q0 -72 -19 -146q-20 -79 -51 -131q-35 -63 -80 -102q-46 -43 -104 -58q-19 -3 -19 -22l-16 -264q0 -27 24 -27h537q23 0 23 25v284z" />
    <glyph glyph-name="P" unicode="P" horiz-adv-x="1114" 
d="M1024 756q-23 -62 -70 -109q-48 -48 -104 -74q-68 -30 -133 -41q-80 -12 -135 -14q-53 -4 -162 -8v-303q0 -47 8 -66q9 -20 25 -30q15 -8 22 -9q9 -4 35 -8q30 -5 35 -6q10 -2 22 -2q23 0 23 -23v-38q0 -25 -23 -25h-499q-25 0 -25 25v38q0 20 20 23l111 23q14 8 23 30
q6 21 6 68v840q0 61 -27 98q-27 35 -108 35q-25 0 -25 22v43q0 25 25 25h454q155 0 258 -35q99 -34 160 -88q60 -57 84 -121q25 -67 25 -127q0 -76 -25 -143zM823 911q0 60 -35 107q-37 47 -83 72q-47 24 -109 40q-63 13 -104 13h-52q-20 0 -20 -4v-494q92 0 174 10
q65 8 125 39q50 27 76 78q25 52 28 131v8zM45 10l539 -2l-285 -373z" />
    <glyph glyph-name="Q" unicode="Q" horiz-adv-x="1382" 
d="M1311 647q0 126 -43 242q-48 122 -127 209q-83 89 -201 145q-119 55 -268 55h-13q-149 0 -262 -55q-118 -61 -192 -149q-76 -91 -117 -209q-41 -121 -41 -242q0 -127 43 -246q41 -121 123 -215q76 -90 201 -151q119 -58 272 -58q151 0 272 56q119 57 195 147
q78 91 119 211q39 116 39 248v12zM602 84l25 25h-13l-6 2h-6v-27zM791 385q0 23 4 47q3 14 14 29q5 5 27 18q5 2 19.5 7t21.5 8q16 3 16 20v55q0 13 -8 21q-7 7 -21 4l-88 -16q-47 -7 -76 -7q-34 0 -172 23q-28 3 -28 -25v-55q0 -10 16 -20q52 -21 70 -39q16 -22 16 -70
v-274q-71 20 -133 75q-54 48 -94 127q-39 67 -58 156q-20 79 -20 166q0 92 25 190q24 94 73 170q47 77 117 123q68 47 156 47h8q98 0 166 -45q69 -45 119 -123q47 -78 71 -176q25 -106 25 -205q0 -106 -47 -258q-4 -15 -33 -71q-13 -26 -51 -78q-26 -36 -64 -66
q-37 -29 -67 -37z" />
    <glyph glyph-name="R" unicode="R" horiz-adv-x="1282" 
d="M494 0q22 0 22 25v49q0 22 -22 22q-51 0 -74 13q-21 9 -21 38v402h80q65 -78 121 -137q66 -77 119 -140l-184 -235q-11 -11 -5 -23q6 -14 23 -14h96q14 0 17 8l139 166l29 -41q12 -12 12 -22q0 -15 -53 -15q-23 0 -23 -22v-49q0 -25 23 -25h397q22 0 22 25v49q0 7 -6 16
q-6 6 -14 6q-54 3 -86 19q-30 10 -64 41h2l-129 153l197 236q10 10 4 24q-6 15 -22 15h-109q-13 0 -16 -9l-146 -161q-48 56 -61 73q-23 26 -57 68q37 7 92 39q44 25 86 74q38 47 61 106q23 64 23 135q0 115 -43 185q-43 69 -111 110q-61 37 -151 53q-93 13 -168 13h-424
q-25 0 -25 -25v-47q0 -22 25 -22q49 0 82 -11q28 -9 28 -49v-969q0 -29 -28 -38q-29 -13 -82 -13q-25 0 -25 -22v-49q0 -25 25 -25h424zM399 680v457h86q119 0 187 -56q65 -56 65 -166q0 -123 -67 -178q-69 -57 -174 -57h-97zM51 8l467 -4l-246 -373z" />
    <glyph glyph-name="S" unicode="S" horiz-adv-x="1083" 
d="M203 -8q24 0 24 24v25q12 -3 27 -6q3 -1 13 -4t16 -4q99 -32 110 -35q68 -19 137 -19q96 0 191 29q83 25 156 82q64 52 104 125q39 68 39 160q0 79 -33 135q-30 50 -88 102q-50 39 -125 76q-86 37 -141 53q-149 47 -207 105q-59 56 -59 131q0 28 12 63q11 27 35 58
q24 28 51 41q32 16 65 16q68 0 93 -2q28 -2 63 -10q12 -4 47 -19q33 -19 43 -26q5 -3 12 -7t16 -10l15 -10q44 -27 55 -33h74q11 0 21 10q7 7 4 21l-51 188q-3 19 -25 19h-72q-13 0 -20 -10q-9 -12 -2 -23v-2q-102 31 -146 41q-72 16 -127 16q-94 0 -168 -26
q-76 -26 -139 -76q-58 -49 -92 -113q-35 -65 -35 -141q0 -71 29 -137q26 -62 80 -113q55 -52 121 -84q72 -38 153 -59q132 -34 195 -80q63 -45 63 -129q0 -104 -53 -160q-55 -55 -154 -55q-73 0 -120 8q-54 9 -101 27q-32 10 -84 45q-27 18 -78 69q-3 8 -16 8h-63
q-13 0 -21 -8t-4 -22l63 -236q3 -18 25 -18h72z" />
    <glyph glyph-name="T" unicode="T" horiz-adv-x="1202" 
d="M74 1247q3 23 24 23h1014q23 0 23 -25v-43q0 -19 -19 -22q-75 -11 -125 -35q-45 -23 -45 -84v-881q0 -52 31 -67q27 -15 72 -21l36 -6q21 -3 21 -23v-38q0 -25 -25 -25h-514q-24 0 -24 25v38q0 20 18 23q4 2 29 2q7 1 20.5 3t20.5 3q16 2 37 15q16 9 24 26q10 17 10 45
v944h-286q-55 0 -117 -4q-50 -6 -78 -26q-33 -20 -51 -60q-19 -37 -35 -108q-5 -10 -8 -13q-9 -6 -14 -6h-45q-26 0 -23 25zM547 10l559 -2l-293 -373z" />
    <glyph glyph-name="U" unicode="U" horiz-adv-x="1437" 
d="M1364 1206q0 -22 -25 -22q-68 0 -110 -25q-39 -26 -39 -96v-825q0 -72 27 -109q26 -39 108 -39q23 0 23 -22v-43q0 -25 -23 -25h-1255q-23 0 -23 25v43q0 22 23 22q56 0 96 21q39 20 39 82v870q0 72 -37 96q-42 25 -98 25q-23 0 -23 22v39q0 25 23 25h528q25 0 25 -25
v-39q0 -22 -25 -22q-70 0 -106 -25q-37 -27 -37 -96v-942h485v942q0 44 -8 63q-10 23 -25 35q-18 14 -37 17q-7 1 -47 6h-12q-23 0 -23 22v39q0 25 23 25h528q25 0 25 -25v-39zM618 1262l-561 6l295 370z" />
    <glyph glyph-name="V" unicode="V" horiz-adv-x="1400" 
d="M582 1270q22 0 22 -25v-37q0 -22 -22 -22q-42 0 -80 -10q-35 -9 -35 -48q0 -20 10 -47l4 -18v2q9 -19 23 -51t25.5 -57t21.5 -46q10 -20 31 -68.5t34 -74.5q39 -93 64 -145l65 -156q65 159 129 315q25 60 72.5 178t54.5 136l-2 -4l9 28q1 2 1.5 5.5t1 6t1.5 3.5v6
q0 28 -27 37q-24 8 -74 8q-22 0 -22 22v37q0 25 22 25h398q22 0 22 -25v-37q0 -22 -22 -22q-39 0 -92 -29q-48 -29 -64 -84l-428 -1069q-6 -16 -20 -16q-13 -3 -23 14l-465 1057q-26 51 -61 86q-37 32 -95 41q-18 3 -18 22v37q0 25 23 25h516z" />
    <glyph glyph-name="W" unicode="W" horiz-adv-x="1351" 
d="M1223 997q-39 86 -101 148q-62 59 -151 98q-90 35 -189 35q-19 0 -22 -16l-15 -39q-9 -27 17 -33q69 -14 125 -64q50 -47 80 -108q32 -68 43 -135q12 -70 12 -140q0 -93 -12 -151q-12 -60 -33 -94q-20 -32 -43 -49q-24 -15 -49 -15q-59 0 -103 47q-46 46 -49 133
q45 113 45 289q0 101 -26 160q-27 59 -82 59q-73 0 -103 -59q-32 -57 -32 -160q0 -67 12 -137q11 -67 41 -152q-9 -76 -53 -129q-45 -51 -101 -51q-60 0 -104 92q-45 86 -45 252q0 135 59 250q57 111 203 164q23 10 14 31l-14 39q-3 16 -23 16q-89 0 -178 -25
q-88 -28 -153 -84t-107 -151q-41 -96 -41 -227q0 -91 18 -179q14 -82 58 -159q41 -71 106 -115q62 -45 160 -45q82 0 156 41t121 112q34 -75 102 -116q64 -43 145 -43q175 0 263 137q86 139 86 391q0 98 -37 182zM831 86q0 -22 -14 -33q-14 -14 -35 -14q-15 0 -24 12
q-10 13 -10 35v141q0 23 -23 23h-135q-23 0 -23 -23v-141q0 -38 15 -68q11 -28 34 -51q24 -23 52 -33q27 -12 57 -12q61 0 106 45q48 45 48 119h-48z" />
    <glyph glyph-name="X" unicode="X" horiz-adv-x="1433" 
d="M1360 66q0 22 -25 22q-58 0 -102 35q-47 37 -90 100l-316 475q104 124 150 176q17 19 149 177q63 75 107 104q43 29 90 29q23 0 23 22v39q0 25 -23 25h-428q-25 0 -25 -25v-39q0 -22 25 -22q52 0 90 -10q33 -11 33 -31q0 -16 -29 -45l-248 -297q-12 18 -32 47.5t-36 53
t-30 42.5t-30 42.5t-36 53t-32 47.5l-13 46q6 51 136 51q24 0 24 22v39q0 25 -24 25h-572q-24 0 -24 -25v-39q0 -22 24 -22q54 0 97 -27q41 -27 86 -90l313 -449l-328 -411v2q-53 -62 -92 -84q-46 -29 -106 -37q-10 -5 -13 -8q-6 -6 -6 -14v-41q0 -25 23 -25h442q25 0 25 25
v41q0 22 -25 22q-23 0 -98 16q-31 9 -31 25t31 47l266 324l207 -316q7 -24 12 -37q3 -16 10 -26q0 -21 -32 -27q-35 -6 -82 -6q-25 0 -25 -22v-41q0 -25 25 -25h540q25 0 25 25v41z" />
    <glyph glyph-name="Y" unicode="Y" horiz-adv-x="1568" 
d="M1491 1219l-10 -21q-53 -35 -62 -68q-10 -38 -10 -94v-32q-3 -126 -20 -203q-18 -82 -72 -139q-53 -59 -154 -89q-93 -31 -270 -47v-333q0 -61 29 -84q30 -23 104 -23q25 0 25 -23v-38q0 -25 -25 -25h-512q-25 0 -25 25v38q0 23 25 23q82 0 109 27q24 24 24 80v333
q-145 15 -239 39q-95 21 -154 74t-80 137q-24 86 -24 228q0 78 -17 131q-15 45 -70 61q-16 3 -16 23v43q0 24 25 24q336 0 336 -346q0 -127 53 -201q53 -77 186 -80v414q0 29 -4 57q-6 21 -18 33q-21 13 -41 15q-18 2 -70 2q-25 0 -25 22v43q0 25 25 25h528q23 0 23 -25v-43
q0 -22 -23 -22q-83 0 -116 -23q-33 -20 -33 -84v-414q143 6 201 82q59 77 59 199q0 108 29 180q27 68 73 105t103 49q56 12 110 12q23 0 23 -24v-43zM489 10l560 -2l-293 -373z" />
    <glyph glyph-name="Z" unicode="Z" horiz-adv-x="1241" 
d="M1128 20q0 -20 -22 -20h-1036q-25 0 -25 25v32l762 1080h-412q-93 0 -139 -70q-26 -37 -41 -82q-18 -56 -25 -94q-3 -19 -22 -19h-57q-10 0 -19 9q-9 6 -6 16l43 352q3 23 25 23h970q23 0 23 -25v-51l-778 -1065h495q67 0 119 43q48 39 86 168q3 16 23 16h57q28 0 25 -26
z" />
    <glyph glyph-name="bracketleft" unicode="[" horiz-adv-x="532" 
d="M39 1341q0 23 22 23h400q22 0 22 -23v-59q0 -25 -22 -25h-236v-1329h236q22 0 22 -22v-58q0 -24 -22 -24h-400q-22 0 -22 24v1493z" />
    <glyph glyph-name="backslash" unicode="\" horiz-adv-x="1406" 
d="M1333 66q0 22 -22 22q-59 0 -103 35q-43 32 -90 100l-598 869l-14 43q6 51 135 51q25 0 25 22v39q0 25 -25 25h-571q-23 0 -23 -25v-39q0 -22 23 -22q100 0 182 -117l608 -885q9 -31 12 -39q2 -10 11 -28q-3 -20 -35 -23q-34 -6 -80 -6q-23 0 -23 -22v-41q0 -25 23 -25
h543q22 0 22 25v41z" />
    <glyph glyph-name="bracketright" unicode="]" horiz-adv-x="532" 
d="M483 1341q0 23 -22 23h-400q-22 0 -22 -23v-59q0 -25 22 -25h236v-1329h-236q-22 0 -22 -22v-58q0 -24 22 -24h400q22 0 22 24v1493z" />
    <glyph glyph-name="asciicircum" unicode="^" horiz-adv-x="888" 
d="M817 377l12 -29q-25 -90 -53 -143q-35 -68 -80 -119q-48 -54 -110 -80q-64 -30 -152 -33q-31 0 -84 17q-44 13 -96 47q-44 24 -92 72q-42 39 -70 94q-51 99 -51 252q0 99 31 194q28 91 86 158q60 69 139 108q77 39 182 39q23 0 39 -2q25 -4 90 -18q45 -18 86 -43
q31 -19 49 -37q62 -80 62 -139q0 -107 -115 -107q-62 0 -104 51q-16 19 -25 86q-4 18 -18 41q-15 21 -43 43q-15 9 -45 9q-57 0 -97 -27q-42 -28 -65 -70q-28 -46 -37 -96q-12 -55 -12 -110q0 -36 14 -91q11 -56 43 -122q30 -61 82 -107q50 -47 123 -47q56 0 94 14
q38 15 66 43q31 31 49 66q31 60 43 88q9 21 30 12z" />
    <glyph glyph-name="underscore" unicode="_" horiz-adv-x="1060" 
d="M975 -178q22 0 22 24v99q0 24 -22 24h-907q-25 0 -25 -24v-99q0 -24 25 -24h907z" />
    <glyph glyph-name="grave" unicode="`" horiz-adv-x="405" 
d="M96 1446q54 0 115 -94q63 -96 147 -305q4 -12 -2 -21q-6 -12 -18 -12h-51q-9 0 -17 8q-25 31 -64.5 80t-53.5 67l-28 35l-26 32.5t-16 20.5q-45 62 -45 119q0 70 59 70z" />
    <glyph glyph-name="a" unicode="a" horiz-adv-x="1226" 
d="M473 102q45 0 88 37q40 34 74 86q29 44 53 111q21 59 21 102v6q-6 57 -21 121q-16 69 -41 123q-24 49 -72 94q-46 37 -110 37q-70 0 -117 -92q-45 -88 -57 -266q3 -85 14 -142q11 -59 35 -112q19 -46 53 -76q32 -29 72 -29h8zM1124 299l25 -23q0 -68 -6 -120
q-8 -49 -25 -95q-15 -34 -47 -59q-31 -22 -76 -22q-35 0 -57 14q-27 15 -47 41q-25 29 -41 59q-28 53 -37 74l-2 8l-6 8q-45 -89 -131 -147q-83 -57 -209 -57q-109 0 -182 36q-79 37 -131 101q-55 68 -78 149q-27 82 -27 180q0 88 29 183q27 87 80 159q50 67 129 115
q76 43 172 43h8q127 0 209 -76q81 -75 121 -200l84 237q3 17 20 17h172q12 0 19 -11q6 -9 2 -20l-207 -561q0 -21 10 -51q8 -26 29 -58q14 -25 37 -45q17 -20 36 -20t37 30q20 34 29 93q3 18 22 18h39z" />
    <glyph glyph-name="b" unicode="b" horiz-adv-x="978" 
d="M874 156q-34 -76 -92 -125q-54 -49 -137 -78q-79 -27 -168 -27q-55 0 -115 17q-55 15 -110 55v-354q0 -23 -25 -23h-149q-23 0 -23 23v1362q0 33 25 81q20 44 70 91q51 45 112 69q72 29 158 29q64 0 127 -14q65 -14 125 -50q53 -33 94 -92q37 -58 37 -143q0 -55 -8 -88
q-8 -37 -29 -68q-19 -32 -43 -53q-4 -3 -24.5 -20t-32.5 -25q122 -73 184 -168q59 -95 59 -225q0 -96 -35 -174zM526 78q34 10 72 43q30 30 51 82q19 52 19 125q-2 33 -15 102q-12 44 -30 78q-17 32 -43 65q-32 36 -56 60l-71 -17q-20 -3 -25 -6l-6 -2q-111 0 -111 90
q0 53 31 78t78 25q35 0 59 -6q27 -10 41 -13l-6 2l10 -2q35 20 51 66q15 44 15 119q0 74 -41 127q-44 53 -141 53q-74 0 -113 -39q-43 -40 -43 -102v-838q45 -33 74 -51q32 -23 49 -31v2q42 -22 74 -22q37 0 77 12z" />
    <glyph glyph-name="c" unicode="c" horiz-adv-x="972" 
d="M545 950q-148 0 -236 -32q-91 -33 -153 -95q-61 -64 -84 -143q-27 -82 -27 -180q0 -82 21 -174q22 -100 69 -172q49 -79 131 -131q85 -54 203 -54q124 0 227 56t166 153q4 4 4 10l-2 13q-27 61 -96 61q-29 0 -72 -14q-12 -3 -16 -15q-53 -133 -178 -133h-6q-56 0 -95 39
q-44 41 -71 99q-29 63 -43 129q-17 80 -17 133q0 121 60 196q60 72 143 84h27q88 0 155 -28q62 -27 80 -62l-4 -4l2 4q-44 -33 -71 -63q-25 -28 -25 -88t27 -84t84 -27q75 0 116 78q39 74 39 188q0 67 -33 111q-31 42 -86 78q-61 35 -108 47q-69 18 -111 20h-20z" />
    <glyph glyph-name="d" unicode="d" horiz-adv-x="950" 
d="M862 295q-22 -82 -69 -148q-50 -72 -131 -120q-82 -52 -209 -52h-13q-84 0 -157 31q-69 28 -125 84t-82 127q-31 73 -31 156q0 124 37 205q38 81 90 133q53 53 111 80q13 6 48 23t52 24l-31 26l-39 37v-2q-17 17 -41 37q-19 16 -34 37h2q-47 44 -72 92q-31 51 -31 96
q0 92 76 150q73 55 203 55q39 0 96 -8q45 -6 127 -33q64 -24 113 -61q47 -41 47 -97q0 -92 -103 -92q-19 0 -39 4q-17 3 -34 13q-22 13 -35 24q-21 15 -49 43q-42 42 -88 66q-39 20 -99 20q-45 0 -57 -26q-21 -41 -21 -52q0 -48 88 -106h-2q12 -6 15 -8q2 -2 7.5 -7t8.5 -8
v2l191 -131q61 -41 118 -92q61 -61 95 -110q41 -59 65 -127q23 -77 23 -150q0 -58 -21 -135zM633 528q-21 65 -49 113q-22 38 -54 74q-24 24 -28 24q-90 0 -158 -114q-68 -109 -68 -213q0 -67 19 -129q15 -49 47 -97q27 -40 61 -61q38 -23 64 -23q36 0 74 23q36 22 59 61
q25 43 39 88q14 46 14 105q0 85 -20 149z" />
    <glyph glyph-name="e" unicode="e" horiz-adv-x="915" 
d="M825 248l23 -29q-23 -82 -60 -135q-35 -50 -81 -74q-50 -24 -113 -30q-75 -7 -143 -7q-81 0 -152 15q-77 13 -129 45q-55 32 -90 86q-35 53 -35 131q0 71 33 127q35 59 115 104q-54 31 -89 78q-36 45 -36 113q0 72 32 121q35 53 88 86q51 34 123 49q72 16 140 16
q63 0 120 -14q57 -15 109 -43q50 -27 80 -62q31 -39 31 -77t-37 -68q-42 -31 -76 -31q-30 0 -45 6q-15 2 -33 17q-14 8 -27 28q-18 27 -28 43q-20 38 -47 62q-27 18 -78 18q-43 0 -84 -35q-43 -34 -43 -104q0 -86 49 -113q46 -27 133 -30h-4l111 6q41 0 65 -12
q25 -16 31 -58q0 -74 -94 -74l-58 5q-46 6 -69 6q-64 0 -111 -41q-47 -44 -47 -99q0 -65 53 -112q49 -44 172 -53h-4q48 4 70 8q29 3 53 18q24 12 49 37q21 24 49 66q7 10 21 10h63z" />
    <glyph glyph-name="f" unicode="f" horiz-adv-x="1015" 
d="M561 520q10 104 25 219q9 88 28 150q14 56 41 86q23 26 62 26q43 0 80 -40q33 -42 55 -109q3 -10 10 -12q6 -6 12 -6l48 2q10 0 18 8q9 6 6 16q-18 167 -80 250q-61 82 -147 82q-108 0 -197 -80q-87 -78 -131 -268l-78 -830v4q-14 -62 -30 -106q-15 -40 -50 -43
q-16 0 -30 20q-13 16 -27 50q-13 30 -22 63q-16 60 -17 68q-3 20 -24 20l-43 -2q-25 0 -25 -25q3 -78 18 -149q12 -57 46 -123q30 -59 65 -82q42 -31 88 -31q82 3 148 66q69 63 90 172q3 33 10 104t10 109q3 37 10.5 107t10.5 104l243 -135q12 -6 25 0q10 7 10 20v129
q0 12 -12 21z" />
    <glyph glyph-name="g" unicode="g" horiz-adv-x="950" 
d="M45 481q0 -107 45 -190q46 -90 111 -158q70 -73 149 -129q80 -58 156 -108l16 -11l-2 2q13 -4 23 -12q14 -14 24 -20q39 -30 58 -62q22 -36 22 -69q0 -19 -16 -35q-17 -17 -56 -17q-56 0 -100 23q-45 23 -90 63v-2l-18 21q-7 6 -37 30q-12 10 -31 21q-21 8 -29 10
q-20 4 -39 4q-102 0 -102 -92q0 -58 49 -98q47 -41 111 -62q65 -21 129 -30t94 -9q129 0 205 58q74 56 74 147q0 39 -15 74q-11 24 -41 68q-36 40 -57 61q-10 9 -31 28.5t-31 28.5q-10 7 -38 35q-14 10 -41 37q18 6 102 45q55 26 115 82q51 51 92 135q37 81 37 205
q0 79 -29 158q-30 74 -82 129q-49 49 -125 86q-74 30 -160 30h-10q-129 0 -211 -49q-84 -54 -133 -123q-48 -69 -67 -151q-21 -79 -21 -137v-17zM289 659q11 45 37 89q22 37 59 63q38 23 74 23q25 0 63 -23q34 -20 62 -63q29 -44 49 -99q18 -59 18 -129q0 -37 -16 -96
q-12 -49 -47 -109q-27 -48 -72 -86q-42 -36 -92 -36q-6 0 -29 26q-22 22 -51 72q-24 42 -47 115q-23 71 -23 147q0 53 15 106z" />
    <glyph glyph-name="h" unicode="h" horiz-adv-x="1013" 
d="M813 -350q-8 0 -18 10q-44 56 -50 125q-8 60 -8 160v702q0 24 -14 41q-14 16 -37 33q-14 7 -53 20q-32 7 -55 7q-44 0 -86 -31q-35 -30 -72 -86v-608q0 -23 -23 -23h-153q-23 0 -23 23v927q0 106 -4 176q-3 53 -12 68h-2l-4 2h-6q-13 0 -25 -18q-18 -25 -37 -62
q-9 -12 -20 -12h-41q-14 0 -21 10t-4 21q15 50 35 94q16 36 49 78q23 30 68 53q41 18 90 18q39 0 78 -22q35 -24 53 -92v-461q56 56 131 96q72 35 133 35q112 0 182 -76t70 -211v-702q0 -101 8 -156q10 -65 41 -102q10 -13 4 -25q-9 -12 -24 -12h-150z" />
    <glyph glyph-name="i" unicode="i" horiz-adv-x="690" 
d="M391 260q0 -66 25 -108q21 -41 53 -41q27 0 49 28t25 80q0 25 22 25h43q23 0 23 -25q0 -59 -19 -108q-22 -49 -51 -78q-30 -35 -69 -49q-46 -17 -80 -17t-80 17q-41 15 -72 43q-32 29 -49 67q-18 38 -18 84v467q0 76 -33 96q-34 21 -94 21q-25 0 -25 22v43q0 22 20 25
q44 10 115 33q61 17 184 59q15 4 23 -2q8 -5 8 -18v-664z" />
    <glyph glyph-name="j" unicode="j" horiz-adv-x="714" 
d="M197 942q0 11 10 21q7 7 20 4l410 -99q18 -3 18 -22v-43q0 -9 -6 -15q-4 -6 -12 -10l-33 -4q-17 -2 -35 -6q-13 -3 -28 -14q-10 -8 -21 -29q-9 -21 -12 -55v-668q0 -41 -19 -90q-17 -44 -49 -84q-31 -41 -69 -64q-41 -24 -82 -24q-50 0 -94 33q-40 26 -78 77
q-35 48 -56 105q-20 56 -20 111q0 52 12 73q11 11 21 11h43q22 0 22 -23v-16q0 -23 11 -72q11 -48 22 -74q15 -35 31 -57q16 -25 30 -25q13 0 29 19q15 15 25 45q6 19 14 63q6 35 6 68v713q-10 26 -37 47q-35 27 -61 43q-12 9 -12 18v43z" />
    <glyph glyph-name="k" unicode="k" horiz-adv-x="1124" 
d="M367 0q22 0 22 23v383l207 -240q8 -11 23 -28.5t20 -24.5l14 -23q0 -4 -12 -4h-43q-23 0 -23 -25v-38q0 -23 23 -23h428q25 0 25 23v38q0 25 -25 25q-52 0 -94 25q-37 19 -88 92q-22 25 -72.5 84.5t-77.5 91.5q-76 89 -153 174q13 9 22 22q3 3 8 9t12.5 14t12.5 14
q8 8 25 26.5t26 27.5l51 51q29 29 41 39q17 14 27 14q6 0 31 -25q12 -12 41 -30q24 -17 53 -17q79 0 115 39q34 37 34 86q0 65 -43 99q-43 32 -110 32q-58 0 -113 -22q-52 -22 -104 -62q-48 -37 -97 -86q-61 -61 -90 -92q-46 -52 -47 -53l-47 -47v422q0 22 -22 22l-17 -4
q-61 -23 -92 -33q-16 -6 -40.5 -13.5t-27.5 -8.5q-37 -11 -59 -16q-42 -9 -65 -13q-19 -3 -19 -22v-43q0 -25 23 -25h18q38 -3 57 -6q19 -4 39 -21q6 -3 6 -88v-720q0 -23 25 -23h152z" />
    <glyph glyph-name="l" unicode="l" horiz-adv-x="980" 
d="M369 858q-15 127 -50 205q-35 74 -88 74q-43 0 -79 -31q-36 -36 -56 -98q-3 -19 -22 -19l-47 2q-26 0 -23 27q15 162 80 242q64 79 152 79q35 0 88 -16q49 -16 94 -55q43 -37 84 -103q40 -63 61 -159l74 -709l4 -16q0 -5 4 -9q16 -67 29 -94q11 -32 45 -35q33 0 57 37
q27 42 35 99q3 20 25 20l45 -2q22 0 22 -25q-3 -165 -61 -241t-158 -76q-78 3 -145 49q-69 48 -90 154z" />
    <glyph glyph-name="m" unicode="m" horiz-adv-x="1351" 
d="M1223 246q-40 -88 -101 -146q-65 -62 -149 -96q-84 -37 -187 -37q-19 0 -22 15l-12 38q-10 23 14 33q74 20 127 70q51 48 80 110q30 69 41 132q10 78 10 133q0 88 -12 147q-12 57 -31 94q-21 34 -45 49t-49 15q-61 0 -101 -49q-44 -50 -47 -131q26 -71 33 -127
q10 -78 10 -156q0 -102 -26 -158q-27 -61 -80 -61q-71 0 -101 61q-32 54 -32 158q0 62 12 133q11 65 41 150q-6 78 -51 129t-103 51q-60 0 -104 -90q-43 -90 -43 -252q0 -71 14 -131q16 -68 45 -119q30 -55 80 -96q54 -44 121 -64q21 -9 12 -31l-12 -38q-3 -15 -23 -15
q-94 0 -176 27q-88 25 -151 82q-65 59 -105 149q-41 93 -41 226q0 235 99 358q103 127 239 127q83 0 154 -39q73 -42 119 -109q33 73 100 115q62 39 145 39q173 0 259 -135q86 -136 86 -383q0 -97 -37 -178z" />
    <glyph glyph-name="n" unicode="n" horiz-adv-x="1046" 
d="M848 -350q-11 0 -21 10q-41 56 -47 125q-8 60 -8 160v712q0 47 -47 74t-104 27q-93 0 -158 -105v-630q0 -23 -23 -23h-153q-25 0 -25 23v618q0 73 -18 107q-18 30 -45 30q-24 0 -45 -35q-21 -37 -21 -102q0 -23 -24 -23h-39q-23 0 -23 23q0 69 21 125q16 50 49 94
q30 38 69 58t78 20q60 0 109 -37q46 -37 73 -108q64 77 138 114q72 35 141 35q110 0 178 -74q66 -78 66 -211v-712q0 -101 8 -156q6 -63 39 -102q10 -13 4 -25t-23 -12h-149z" />
    <glyph glyph-name="o" unicode="o" horiz-adv-x="980" 
d="M874 748q-27 94 -81 167q-52 66 -136 109q-77 39 -182 39h-10q-107 0 -184 -47q-79 -51 -127 -125q-53 -78 -74 -168q-25 -98 -25 -184q0 -87 23 -191q22 -100 69 -172q52 -80 129 -125q79 -49 197 -49q124 0 207 47t131 121q47 77 68 172q21 94 24 197q0 107 -29 209z
M293 602q4 73 10 113q10 64 29 112q21 52 55 86q33 33 92 33q56 0 92 -33q36 -36 56 -86q17 -44 28 -112q7 -51 11 -113h-373zM666 467q-4 -66 -11 -113q-10 -66 -28 -112q-21 -53 -56 -88q-38 -35 -92 -35q-56 0 -90 37q-33 33 -55 88q-20 50 -29 112t-12 111h373z" />
    <glyph glyph-name="p" unicode="p" horiz-adv-x="944" 
d="M854 326q-21 -93 -74 -170q-54 -79 -133 -129q-85 -54 -203 -54q-56 0 -106 13q-49 9 -94 43v-328q0 -28 -8 -49q-12 -32 -19 -53q-3 -17 -20 -17h-152q-10 0 -20 10q-8 8 -5 21q14 48 21 74q6 30 6 65v862q0 54 37 115q36 60 92 111q61 52 127 84q63 32 133 32h8
q104 0 185 -34q81 -38 135 -101q58 -67 84 -147q29 -89 29 -180q0 -71 -23 -168zM649 555q-14 68 -47 125q-30 52 -76 82q-48 31 -106 31q-75 0 -115 -58t-55 -157v2q-6 -73 -6 -107v-27q0 -78 8 -133q5 -58 29 -110q22 -48 61 -74q44 -29 109 -29q49 0 90 27q40 27 67 70
q26 41 41 98q15 53 15 108q0 81 -15 152z" />
    <glyph glyph-name="q" unicode="q" horiz-adv-x="1005" 
d="M901 664q-34 87 -96 155q-63 66 -146 107q-79 39 -182 39q-93 0 -170 -41q-78 -40 -137 -111q-57 -69 -92 -158q-33 -85 -33 -188q0 -82 25 -162q24 -79 73 -143q44 -61 115 -107q66 -43 154 -55v-424q0 -25 22 -25h113q22 0 22 25v422q92 18 162 70q71 52 115 116
q45 65 67 146q23 84 23 151q0 93 -35 183zM692 389q-8 -42 -35 -102q-25 -54 -61 -99q-41 -47 -94 -61q-76 22 -115 47q-45 26 -70 68q-23 38 -32 102q-9 58 -9 145q0 47 11 119q8 53 32 109q22 48 62 78q39 28 90 28q122 0 178 -92q53 -95 53 -268q0 -19 -10 -74z" />
    <glyph glyph-name="r" unicode="r" horiz-adv-x="1050" 
d="M580 907q-77 -39 -140 -114q-24 70 -71 108q-49 37 -109 37q-42 0 -78 -20q-39 -20 -69 -58q-35 -47 -50 -94q-18 -56 -18 -125q0 -23 25 -23h39q22 0 22 23q3 66 23 102q18 35 45 35q28 0 43 -30q16 -37 16 -107v-618q0 -23 23 -23h155q23 0 23 23v630q65 105 159 105
q16 0 56 -4q12 -3 55 -17q19 -7 45 -22q21 -15 27 -33q-3 -13 -13 -23q-1 -1 -10.5 -8.5t-15.5 -11.5q-14 -12 -43 -41q-21 -24 -21 -66q0 -54 27 -92q27 -37 84 -37q45 0 80 27q29 20 53 66q21 47 29 94t8 106q0 130 -74 189q-72 57 -184 57q-66 0 -141 -35z" />
    <glyph glyph-name="s" unicode="s" horiz-adv-x="901" 
d="M111 420q70 -88 235 -88q4 0 12 2q4 1 15 2t16 2q25 0 39 2t37 2q103 0 168 -53q32 -19 49 -47q14 -25 14 -95q0 -79 -24 -137q-22 -54 -62 -94q-39 -39 -80 -53q-49 -19 -84 -19q-18 0 -108 19q-83 18 -125 18q-53 0 -84 -22t-31 -82q0 -75 82 -109h-2q53 -26 150 -26
q103 0 196 41t162 110q69 72 109 166q39 91 39 209q0 92 -25 156q-25 63 -64 120q-95 136 -256 136h-20h-18q-4 -1 -13.5 -2.5t-13.5 -2.5q-56 -6 -98 -6q-144 0 -144 70q0 117 107 117q1 0 61 -13q45 -5 53 -6q28 -4 43 -4q115 0 115 101q0 34 -16 63q-16 25 -41 41
q-30 17 -58 25q-35 6 -63 6q-99 0 -164 -35q-61 -33 -104 -88q-42 -57 -56 -119q-16 -69 -16 -119q0 -102 68 -188z" />
    <glyph glyph-name="t" unicode="t" horiz-adv-x="901" 
d="M367 719h-74q-49 0 -84 -35q-35 -34 -78 -123l-8 -8q-6 -6 -12 -6h-43q-12 0 -19 10q-9 9 -6 18q9 59 33 123q21 65 63 119q42 55 97 90q56 35 126 35h439q24 0 24 -22v-179q0 -22 -24 -22h-264q-10 -49 -13 -115q-6 -70 -6 -145q0 -37 4 -103q2 -28 15 -88q9 -38 28 -61
q16 -25 45 -25q32 0 56 35q22 37 28 86q3 23 25 23h39q22 0 22 -25l2 -4v-10q2 -4 2 -21v-18q0 -53 -16 -109q-16 -47 -49 -88q-29 -39 -74 -61q-48 -23 -94 -23q-111 0 -160 94q-49 91 -49 279q0 67 6 152q2 30 8 94l9 96z" />
    <glyph glyph-name="u" unicode="u" horiz-adv-x="1140" 
d="M1065 453q-3 104 -31 190q-26 80 -80 143q-56 62 -125 103q-76 45 -167 74q-27 9 -33 -17l-11 -45q-3 -14 13 -27q110 -52 170 -149q59 -95 59 -231q0 -82 -14 -148q-16 -77 -41 -125q-26 -53 -64 -88q-39 -33 -88 -33q-41 0 -75 27q-35 27 -56 68q-26 50 -33 88
q-12 46 -12 88v313q0 49 -14 92q-13 40 -43 82q-28 39 -68 60q-42 22 -88 22t-88 -31q-49 -42 -70 -78q-30 -52 -43 -92q-16 -50 -16 -80v-6q0 -24 23 -24h45q8 0 18 10q17 19 27 47q11 26 22 45q13 23 35 23q30 0 47 -33q17 -39 17 -62v-337q0 -64 24 -129t70 -117
q43 -52 102 -82q56 -33 127 -33h17q109 0 192 47q76 43 139 119q56 72 84 156q29 89 29 157v13z" />
    <glyph glyph-name="v" unicode="v" horiz-adv-x="1007" 
d="M317 934q-6 20 -28 10q-16 -6 -40.5 -13.5t-27.5 -8.5q-9 -3 -41 -11q-10 -2 -43 -2q-18 -2 -71 -2q-25 0 -25 -22v-43q0 -23 20 -23l43 -8q14 -2 33 -10q14 -6 27 -25l301 -760q10 -16 20 -16h88q12 0 21 12l250 465q37 75 49 105q26 62 29 75q12 39 14 60q2 18 2 63
q0 178 -145 178q-34 0 -54 -20q-21 -21 -24 -55q0 -50 26 -101q3 -7 15 -37q4 -20 6 -26q-3 -36 -12 -78q-7 -31 -31 -88q-29 -67 -53 -113q-13 -24 -40.5 -77t-39.5 -76z" />
    <glyph glyph-name="w" unicode="w" horiz-adv-x="1351" 
d="M1174 102q-86 -135 -259 -135q-80 0 -145 41q-67 42 -100 113q-44 -64 -119 -107q-71 -39 -154 -39q-93 0 -157 43q-64 40 -105 109q-43 71 -57 156q-19 90 -19 176q0 132 41 225q40 92 105 150q61 56 151 84q82 24 176 24q20 0 23 -14l12 -39q9 -22 -12 -31
q-142 -52 -201 -160q-59 -109 -59 -249q0 -163 43 -250q44 -93 104 -93q55 0 101 52q44 49 53 129q-30 86 -41 149q-12 70 -12 135q0 104 32 158q30 59 101 59q53 0 80 -59q26 -56 26 -158q0 -73 -10 -151q-7 -52 -33 -133q3 -79 47 -129q40 -52 101 -52q25 0 49 15t45 49
q19 37 31 94q12 59 12 150q0 55 -10 133q-10 61 -41 131q-29 59 -80 110q-57 51 -127 70q-23 3 -14 31l12 39q3 14 22 14q100 0 187 -35q86 -38 149 -98q62 -59 101 -145q37 -81 37 -179q0 -247 -86 -383z" />
    <glyph glyph-name="x" unicode="x" horiz-adv-x="1087" 
d="M991 115l23 -25q-5 -57 -23 -127q-14 -56 -43 -102q-27 -43 -69 -68q-39 -26 -97 -26q-59 0 -104 28q-47 27 -76 72q-30 43 -51 96q-31 79 -39 105q-3 7 -5 13.5t-3 11.5t-2 7q-1 3 -13 31q-40 -68 -73 -113q-39 -57 -76 -114q-8 -8 -18 -8h-179q-14 0 -20 12q-8 8 2 24
l315 486q-15 62 -37 133q-2 5 -43 108q-44 99 -96 99q-23 0 -41 -15q-26 -19 -37 -34q-15 -21 -28 -47q-15 -33 -19 -48q-3 -18 -22 -18h-47q-23 0 -23 22q0 32 14 87q11 52 39 112q27 55 70 98q41 41 100 41h11q55 -6 92 -38q40 -37 65 -80q23 -40 47 -103q5 -17 17.5 -53
t17.5 -55q3 -15 6 -21q0 -8 2 -10q0 -6 2 -8q0 -2 5 -17l200 330q9 12 21 12h176q15 0 22 -10t-2 -24l-364 -607q6 -23 24 -86q12 -42 41 -98q21 -41 60 -80q35 -35 80 -35q24 0 45 15q23 17 39 35q10 12 30 40q8 14 23 39q3 13 18 13h43z" />
    <glyph glyph-name="y" unicode="y" horiz-adv-x="1026" 
d="M721 936q-18 0 -21 -16q-20 -64 -82 -258q-49 -144 -90 -259q-15 38 -18 89q-2 21 -23 126l-16 87q-6 32 -27 88q-13 34 -43 73q-53 80 -155 80q-201 0 -201 -346q0 -22 25 -22h47q24 0 24 22q0 67 31 115q27 47 57 47q47 0 88 -74q33 -65 41 -84q20 -51 33 -100
q24 -89 27 -105q3 -19 10 -52t10 -48q19 -104 19 -119q-2 -4 -4 -12q-1 -4 -2.5 -9t-5 -14t-5.5 -16l-22 -88l2 2l-27 -78q-24 -74 -28 -90q-13 -50 -13 -102q0 -36 6 -66q6 -32 21 -57q10 -23 35 -41q24 -17 57 -17q23 0 53 23q31 24 49 59q22 39 33 88q12 49 12 109
q0 41 -4 119q-2 16 -5.5 48.5t-4.5 45.5q-2 10 -2 22q-2 6 -2 13q1 5 3 15.5t3 15.5t2 15t2 15q10 28 21 49q29 58 41 84q3 15 12 27q7 9 14 27v-2q52 99 117 231q79 161 139 305q4 14 -2 25q-7 10 -20 10h-211z" />
    <glyph glyph-name="z" unicode="z" horiz-adv-x="946" 
d="M1012 -371q0 -75 -43 -75q-39 0 -39 49q0 42 -29 71q-27 27 -78 27q-45 0 -114 -57q-21 -27 -62 -45q-42 -22 -80 -33q-50 -15 -78 -17q-40 -6 -59 -6q-171 0 -276 99q-107 98 -107 299q0 95 39 180q43 90 113 172q-39 43 -52 82q-18 46 -18 94q0 40 23 78t55 63
q48 37 76 52q48 25 82 40q1 0 6.5 4t9.5 5q3 1 6 2.5l6 3t4 2.5l219 86h-174q-118 0 -166 -31q-12 -8 -18 -14q-4 -3 -22 -15q-26 -13 -43 -30q-5 -2 -7 -4q-8 -4 -10 -4h-4q-4 -2 -6 -2q-20 0 -23 8q-4 8 -4 26l31 189q9 51 53 51q16 -8 56 -23q27 -10 43 -10h479
q37 0 57 -26q21 -27 21 -54q0 -7 -7 -28q-2 -7 -16 -39q-9 -21 -25 -37q-15 -18 -36 -27l-230 -106q-52 -23 -155 -76q-52 -27 -52 -64q0 -14 11 -47q61 40 108 58q55 22 101 22q34 0 81 -12q39 -13 82 -39q40 -24 66 -57q24 -34 24 -78q0 -49 -26 -82q-27 -35 -68 -59
q-43 -25 -88 -37q-54 -13 -92 -13q-74 0 -123 19q-38 12 -82 37q-9 3 -16 10l-8 6q-32 -45 -49 -82q-25 -48 -25 -92q0 -53 6 -111q5 -53 25 -110q15 -52 49 -86q30 -35 82 -35q38 0 82 33q42 31 90 73q63 52 98 76q47 35 92 35h8q69 0 113 -20q43 -21 70 -58q27 -42 35 -88
q8 -47 8 -112v-11zM584 389q-31 0 -58 -6q-24 -5 -67 -29q37 -23 76 -37q43 -16 77 -16q32 0 50 12q16 13 16 29q0 47 -94 47z" />
    <glyph glyph-name="braceleft" unicode="{" horiz-adv-x="546" 
d="M426 -190q-76 0 -123 20q-53 19 -78 57q-33 41 -41 93q-12 52 -12 124v213q0 209 -119 258q-17 10 -14 25q4 18 18 21q74 9 95 69q20 56 20 164v238q0 64 12 116q11 46 43 90q26 36 78 58q47 20 125 20h45q20 0 23 -20q3 -24 -19 -27q-81 -21 -106 -90q-27 -67 -27 -166
v-125q4 -20 6 -28v-27v-55q0 -88 -22 -156q-25 -67 -80 -94q59 -41 80 -109q22 -74 22 -168v-28q-1 -5 -2 -15.5t-2 -15.5l-6 -72v-145q0 -73 33 -117q30 -46 104 -61q20 -3 17 -25t-21 -22h-49z" />
    <glyph glyph-name="bar" unicode="|" horiz-adv-x="647" 
d="M217 47q18 -68 55 -92q39 -25 78 -25q52 0 92 21q41 18 68 53q33 42 49 78q29 75 35 96q4 12 -2 21q-7 10 -21 10h-41q-13 0 -22 -12q-41 -80 -59 -80l-7 2h-6h-2q-9 15 -12 67q-4 70 -4 179v915q-18 68 -56 92q-39 25 -77 25q-49 0 -92 -19q-45 -23 -68 -53
q-31 -36 -51 -80q-19 -42 -35 -98q-4 -11 4 -19q7 -10 20 -10h41q14 0 23 12q41 80 59 80h7q4 -2 6 -2h2q9 -15 12 -67q4 -70 4 -178v-916z" />
    <glyph glyph-name="braceright" unicode="}" horiz-adv-x="546" 
d="M111 -190q75 0 122 20q52 19 80 57q30 41 41 93q11 64 11 124v213q0 209 118 258q18 11 15 25q-4 18 -19 21q-70 9 -92 69q-22 61 -22 164v238q0 59 -13 116q-10 43 -41 90q-29 36 -80 58q-47 20 -125 20h-45q-17 0 -20 -20q-3 -24 16 -27q81 -21 109 -90q24 -68 24 -166
v-125q-4 -20 -4 -28q-2 -10 -2 -27v-55q0 -89 25 -156q22 -67 78 -94q-59 -41 -80 -109q-23 -77 -23 -168q0 -18 2 -28q0 -21 2 -31l7 -72v-145q0 -69 -31 -117q-34 -46 -107 -61q-19 -3 -16 -25t20 -22h50z" />
    <glyph glyph-name="asciitilde" unicode="~" horiz-adv-x="1077" 
d="M1004 739l6 -30q-62 -109 -129 -164q-68 -56 -170 -56q-48 0 -101 17q-49 15 -116 49q-51 27 -101 49q-32 14 -71 14q-47 0 -93 -40q-42 -36 -86 -107q-6 -12 -18 -12q-11 -3 -21 10l-61 86q0 11 25 53q23 36 63 76q36 39 84 70q47 30 92 30h10q41 0 97 -16
q40 -12 108 -47h-2l33 -14q63 -29 86 -37q37 -15 74 -15q26 0 47 7q13 2 33 14q13 8 26 24q12 15 27 33q21 28 22 29q4 5 12.5 16.5t12.5 16.5q17 20 33 4z" />
    <glyph glyph-name="Non-breakingspace" unicode="&#xa0;" horiz-adv-x="610" 
 />
    <glyph glyph-name="exclamdown" unicode="&#xa1;" horiz-adv-x="641" 
d="M401 1262q-39 36 -96 36q-55 0 -94 -36t-39 -95q0 -58 39 -94q39 -39 94 -39q57 0 96 39q37 37 37 94q0 58 -37 95zM209 975q-25 0 -25 -25v-694q0 -42 -4 -88q-6 -34 -18 -49q-17 -20 -37 -23q-24 -6 -62 -6q-24 0 -24 -22v-43q0 -25 24 -25h502q25 0 25 25v43
q0 19 -21 22q-47 8 -80 19q-29 10 -40 26q-13 13 -17 45q-2 18 -2 74v696q0 25 -24 25h-197z" />
    <glyph glyph-name="cent" unicode="&#xa2;" horiz-adv-x="888" 
d="M817 530l12 -28q-25 -91 -53 -146q-33 -65 -80 -118q-48 -54 -110 -80q-67 -31 -148 -31q-22 0 -59 6q-39 6 -80 21q-7 -17 -21.5 -52t-21.5 -53q-7 -17 -21.5 -52t-21.5 -52q-10 -17 -20 -17h-70q-14 0 -21 11q-5 8 -2 22l99 250q-83 83 -121 178q-37 90 -37 219
q0 100 31 195q28 91 86 158q60 69 139 108q77 39 182 39h19q20 0 24 -2l86 207q6 14 21 14h69q14 0 21 -10q6 -9 2 -21l-90 -219q29 -14 74 -41q27 -21 49 -43q51 -63 51 -123q0 -106 -115 -106q-64 0 -104 49q-17 17 -23 70l-186 -516q44 -27 63 -33q27 -12 66 -12
q50 0 102 22q51 23 72 53q16 16 35 52q4 10 10.5 22.5t16 30t16.5 30.5q9 22 30 13zM483 989q-2 1 -7 2t-7 2h-14q-58 0 -97 -26q-42 -28 -65 -70q-29 -49 -37 -98q-12 -55 -12 -111t12 -108q7 -39 39 -109z" />
    <glyph glyph-name="sterling" unicode="&#xa3;" horiz-adv-x="1062" 
d="M494 596v-39q0 -81 -15 -151q-14 -67 -43 -160q16 -4 51 -14t50 -13q39 -9 67 -18q12 -3 21 -6l10 -5q7 -1 47 -6q16 -2 47 -2q150 0 191 127q7 20 24 17l35 -9q12 -4 16 -10q6 -9 4 -16q-9 -75 -38 -139q-25 -54 -70 -99q-45 -42 -92 -59q-53 -21 -107 -21t-127 21
q-24 10 -80 43q-52 30 -110 72q-89 -136 -193 -136q-58 0 -98 37q-41 38 -41 103q0 75 51 120q54 48 137 48h23q4 -1 13.5 -2.5t13.5 -2.5q4 -2 10 -2q2 6 2 25v20q0 60 -2 105q-1 25 -7 86.5t-8 85.5h-174q-22 0 -22 22v89q0 22 22 22h168q-3 26 -8 98q-2 25 -2 58v12
q0 91 33 164q30 73 84 127q57 57 121 84q73 31 143 31h10q126 0 203 -68q31 -31 53 -70q19 -40 19 -73q0 -38 -31 -66q-31 -31 -72 -31q-48 0 -78 41q-19 19 -22 86q-3 33 -27 68q-8 4 -28 12q-24 4 -41 4q-68 0 -113 -51t-45 -180q0 -66 12 -168l6 -78h236q25 0 25 -22v-89
q0 -22 -25 -22h-229zM229 100q22 22 37 74q-25 14 -53 14q-30 0 -49 -16t-19 -43q0 -51 39 -51q23 0 45 22zM272 190l13 -24q-1 1 -4.5 2t-4.5 2t-4.5 2t-5.5 2z" />
    <glyph glyph-name="currency" unicode="&#xa4;" horiz-adv-x="1087" 
d="M930 1110q16 16 31 0l55 -55q16 -15 0 -31l-123 -121q92 -127 92 -270q0 -142 -92 -275l123 -120q16 -16 0 -33l-55 -53q-15 -16 -31 0l-125 124q-125 -94 -258 -94q-84 0 -164 25q-79 24 -123 65l-123 -120q-15 -16 -31 0l-55 53q-17 17 0 33l123 120q-48 60 -68 125
q-20 61 -20 148q0 153 88 272l-123 121q-15 16 0 31l55 55q16 16 31 0l125 -121q56 43 129 66q73 24 146 24q63 0 137 -22q73 -25 131 -68zM535 954q-140 0 -234 -94h2q-94 -101 -94 -231q0 -136 94 -230t232 -94q135 0 229 94q96 96 96 232v10q0 61 -26 117q-26 52 -70 100
q-43 43 -98 70q-56 26 -117 26h-14z" />
    <glyph glyph-name="yen" unicode="&#xa5;" horiz-adv-x="1568" 
d="M1491 1219l-10 -21q-53 -35 -62 -68q-10 -38 -10 -94v-32q-3 -128 -20 -199q-18 -77 -72 -125q-53 -50 -154 -74q-103 -24 -270 -39v-37h395q25 0 25 -24v-107q0 -22 -25 -22h-395v-49h395q25 0 25 -25v-106q0 -23 -25 -23l-395 -4q6 -45 37 -64q26 -20 96 -20
q25 0 25 -23v-38q0 -25 -25 -25h-512q-25 0 -25 25v38q0 23 25 23q68 0 98 23q29 23 35 65h-397q-25 0 -25 23v106q0 25 25 25h397v49h-397q-25 0 -25 22v107q0 24 25 24h397v37q-145 15 -239 33q-95 15 -154 59t-80 123q-24 80 -24 222q0 78 -17 131q-15 45 -70 61
q-16 3 -16 23v43q0 24 25 24q85 0 145 -14t107 -51q42 -35 63 -95q21 -58 21 -145q0 -128 51 -199q52 -76 188 -82v373q0 29 -4 57q-6 21 -18 33q-21 13 -41 15q-18 2 -70 2q-25 0 -25 22v43q0 25 25 25h528q23 0 23 -25v-43q0 -22 -23 -22q-83 0 -116 -23q-33 -20 -33 -84
v-373q144 9 201 84q59 74 59 197q0 108 29 174q28 63 73 92q51 30 103 35q74 4 110 4q23 0 23 -24v-43z" />
    <glyph glyph-name="brokenbar" unicode="&#xa6;" horiz-adv-x="264" 
d="M37 393q0 23 22 23h140q24 0 24 -23v-694q0 -25 -24 -25h-140q-22 0 -22 25v694zM59 528q-22 0 -22 25v692q0 25 22 25h140q24 0 24 -25v-692q0 -25 -24 -25h-140z" />
    <glyph glyph-name="section" unicode="&#xa7;" horiz-adv-x="831" 
d="M90 733q47 87 152 154q-64 77 -82 127q-25 61 -25 119q0 59 25 114q21 52 63 94q41 41 94 64q55 22 115 22q47 0 100 -16q42 -16 86 -49q40 -32 60 -74q22 -49 22 -98q0 -46 -34 -80h2q-10 -17 -29 -23q-18 -6 -39 -6q-42 0 -70 31q-30 27 -30 68q0 44 8 57q1 3 2 9t2 9
v17q0 29 -20 49q-21 18 -60 18q-59 0 -102 -43t-43 -102q0 -52 22 -88q45 -68 140 -135q51 -38 126 -97q55 -44 103 -98q44 -50 72 -110q24 -58 24 -131q0 -89 -49 -177q-50 -90 -150 -159q62 -68 84 -123q21 -53 21 -115q0 -60 -23 -117q-24 -55 -63 -94q-42 -42 -94 -63
q-58 -25 -117 -25q-112 0 -188 76v-2q-76 70 -76 168q0 47 31 78q27 30 67 30q42 0 68 -26t26 -82q0 -43 -8 -70q-6 -27 -6 -35q0 -30 33 -39q30 -12 59 -12q24 0 51 12q26 10 47 31q18 15 35 43q13 23 13 47q0 51 -27 92q-49 77 -162 160q-81 62 -119 94q-58 49 -96 95
q-46 52 -65 106q-25 58 -25 127q0 93 49 178zM360 780q-5 4 -55 41q-119 -76 -119 -182q0 -41 17 -84q10 -26 45 -70q29 -37 67 -65q14 -12 86 -70q37 -26 60 -43q8 -7 24.5 -21.5t24.5 -21.5q54 37 90 86q31 48 31 96q0 59 -39 115q-46 70 -168 168q-12 9 -33.5 26.5
t-30.5 24.5zM293 834l29 -3q-4 -4 -9 -4q-1 -1 -4 -3t-4 -3z" />
    <glyph glyph-name="dieresis" unicode="&#xa8;" horiz-adv-x="774" 
d="M688 1542q-29 33 -82 33q-47 0 -80 -33q-32 -32 -32 -80t32 -80t80 -32q54 0 82 32q31 36 31 80t-31 80zM236 1542q-33 33 -82 33q-47 0 -80 -33t-33 -80t33 -80q32 -32 80 -32q50 0 82 32q30 34 30 80t-30 80z" />
    <glyph glyph-name="copyright" unicode="&#xa9;" horiz-adv-x="686" 
d="M481 1313q72 -35 113 -113h-2q41 -71 41 -147q0 -80 -39 -148v2q-19 -37 -47 -65q-33 -33 -66 -45l2 2q-76 -43 -147 -43q-77 0 -148 41v-2q-70 40 -110 110q-39 68 -39 148q0 76 41 147h-2q42 79 112 113q64 37 146 37q81 0 145 -37zM225 1247q-56 -29 -82 -82
q-32 -54 -32 -112q0 -55 30 -113q28 -54 82 -82q56 -33 113 -33q51 0 113 33q53 27 81 82q33 56 33 113q0 53 -35 112q-28 54 -82 82q-57 31 -110 31q-57 0 -111 -31zM502 1122q0 -26 -25 -26h-14q-6 0 -12 6q-8 3 -11 12q-21 76 -92 76q-27 0 -47 -10q-21 -14 -35 -31
q-18 -27 -18 -86q0 -69 28 -105q25 -32 76 -32q61 0 99 53q8 16 28 8l17 -8q26 -10 10 -35q-61 -88 -168 -88q-89 0 -143 57q-58 55 -58 138q0 85 58 143q57 57 157 57h31q1 -1 27 -8q12 0 18 -6q4 -4 8 -4q-4 4 2 4h-4l10 10q8 4 13 4h12q25 0 25 -20zM418 1241q2 -2 4 -2z
" />
    <glyph glyph-name="ordfeminine" unicode="&#xaa;" horiz-adv-x="1163" 
d="M659 987q-40 37 -90 37q-52 0 -92 -37q-39 -39 -39 -96q0 -54 39 -90q40 -37 92 -37q50 0 90 37q39 36 39 90q0 57 -39 96zM268 219q-36 39 -94 39q-54 0 -90 -39q-39 -39 -39 -90q0 -58 39 -94q36 -39 90 -39q58 0 94 39q37 37 37 94q0 50 -37 90zM1059 219
q-39 39 -92 39q-57 0 -93 -39q-38 -38 -38 -90q0 -59 38 -94q36 -39 93 -39q53 0 92 39q39 36 39 94q0 51 -39 90z" />
    <glyph glyph-name="guillemotleft" unicode="&#xab;" horiz-adv-x="1036" 
d="M410 0q-16 0 -19 10l-344 455q-9 15 0 29l344 450q3 10 19 10h104q16 0 25 -12q6 -14 -4 -24l-324 -439l324 -442q10 -13 4 -25q-9 -12 -25 -12h-104zM844 0q-11 0 -21 10l-348 455q-9 15 2 29l348 450q10 10 19 10h106q17 0 23 -12q6 -16 -2 -24l-324 -439l324 -442
q9 -12 2 -25q-6 -12 -23 -12h-106z" />
    <glyph glyph-name="logicalnot" unicode="&#xac;" horiz-adv-x="786" 
d="M707 295q24 0 24 24v373q0 23 -24 23h-644q-22 0 -22 -23v-104q0 -25 22 -25h517v-244q0 -24 22 -24h105z" />
    <glyph glyph-name="Softhyphen" unicode="&#xad;" horiz-adv-x="376" 
d="M61 565q-24 0 -24 25v102q0 23 24 23h248q23 0 23 -23v-102q0 -25 -23 -25h-248z" />
    <glyph glyph-name="registered" unicode="&#xae;" horiz-adv-x="686" 
d="M481 1309v2q44 -23 68 -47t45 -64h-2q41 -71 41 -147q0 -31 -10 -76q-9 -29 -31 -72q-45 -74 -109 -110v2q-71 -41 -147 -41q-31 0 -76 10q-36 8 -74 31q-36 22 -63 49q-33 33 -45 61l2 -2q-41 71 -41 148q0 76 41 147h-2q38 72 112 111q62 39 146 39q74 0 145 -41z
M225 1247q-56 -29 -82 -82q-32 -54 -32 -112q0 -55 30 -113q28 -54 82 -82q56 -33 113 -33q51 0 113 33q22 10 47 35q22 22 36 47h-2q33 56 33 113q0 53 -35 112q-28 54 -82 82q-60 31 -110 31q-51 0 -111 -31zM334 1243q68 0 104 -31q33 -29 33 -77q0 -38 -14 -58
q-16 -26 -56 -41q4 -7 14.5 -20t14.5 -19q5 -7 15.5 -21.5t15.5 -21.5q3 -11 8 -16q2 -4 8 -10q2 -2 12 -2l9 -2q16 -3 16 -23v-14q0 -23 -25 -23h-71q-4 0 -8 4q-2 1 -6 2t-5 2l-98 136v-80l4 -2h17q24 0 24 -25v-14q0 -23 -24 -23h-142q-24 0 -24 23v14q0 25 24 25l17 2
q0 11 16 14l-14 4q-2 4 -2 6v232h-11q-24 0 -24 22v15q0 22 24 22h148zM301 1180v-95q35 3 47 15q12 9 12 30t-14 35q-15 15 -39 15h-4h-2zM301 1061l-25 24h13q6 -3 12 0v-24z" />
    <glyph glyph-name="macron" unicode="&#xaf;" horiz-adv-x="690" 
d="M395 262q0 -64 23 -108q21 -41 53 -41q29 0 51 28t25 82q0 12 8 17q6 6 14 6h45q23 0 23 -23q0 -61 -19 -110q-21 -50 -51 -80q-36 -36 -71 -49q-46 -17 -82 -17q-34 0 -80 17q-41 15 -72 43q-32 29 -49 67q-20 39 -20 86v471q0 77 -33 97t-97 20q-24 0 -24 25v43
q0 21 20 24q13 3 30.5 7.5t43.5 12.5t45 13q78 22 184 61q15 4 23 -2q10 -7 10 -20v-670zM358 1087q-38 -38 -96 -38q-57 0 -92 38q-39 36 -39 95q0 55 39 94q37 37 92 37q56 0 96 -37q37 -40 37 -94q0 -58 -37 -95z" />
    <glyph glyph-name="degree" unicode="&#xb0;" horiz-adv-x="303" 
d="M229 1542q-29 33 -79 33q-47 0 -80 -33t-33 -80t33 -80q32 -32 80 -32q51 0 79 32q31 36 31 80t-31 80zM150 1473q14 0 14 -11q0 -8 -14 -8q-17 0 -17 8q0 11 17 11z" />
    <glyph glyph-name="plusminus" unicode="&#xb1;" horiz-adv-x="786" 
d="M440 295q25 0 25 24v242h242q24 0 24 25v106q0 23 -24 23h-242v241q0 23 -25 23h-104q-23 0 -23 -23v-241h-250q-22 0 -22 -23v-106q0 -25 22 -25h250v-242q0 -24 23 -24h104zM705 0q24 0 24 25v106q0 23 -24 23h-644q-22 0 -22 -23v-106q0 -25 22 -25h644z" />
    <glyph glyph-name="Superscripttwo" unicode="&#xb2;" horiz-adv-x="845" 
d="M487 639q0 -19 -14 -27q-17 -10 -59 -10q-72 0 -72 37v522q0 23 4 43q4 21 10 27q9 9 25 12q39 8 41 8q37 -3 51 -20t14 -72v-520zM788 578q0 24 -22 24q-86 0 -86 37v522q0 33 2 43q4 19 12 27q8 7 27 14q33 7 47 8q20 3 20 25v47q0 25 -22 25h-698q-25 0 -25 -25v-49
q0 -25 25 -25q44 0 63 -16t19 -76v-520q0 -18 -15 -27q-17 -10 -69 -10q-25 0 -25 -24v-48q0 -24 25 -24h700q22 0 22 24v48z" />
    <glyph glyph-name="Superscriptthree" unicode="&#xb3;" horiz-adv-x="1208" 
d="M834 637q0 -15 -13 -25q-15 -9 -57 -12q-74 0 -74 37v522q0 55 12 70q14 17 66 20q37 -3 51 -20q15 -18 15 -72v-520zM492 637q0 -17 -13 -27t-57 -10q-74 0 -74 37v522q0 56 14 70q14 17 66 20q37 -3 51 -20q13 -19 13 -72v-520zM1141 575q0 25 -23 25q-90 0 -90 37v522
q0 23 4 43q4 19 12 27q7 7 27 14q47 8 49 8q21 3 21 25v47q0 25 -23 25h-1048q-23 0 -23 -25v-49q0 -25 23 -25q44 0 63 -16t19 -76v-520q0 -18 -15 -27q-17 -10 -69 -10q-23 0 -23 -25v-47q0 -24 23 -24h1050q23 0 23 24v47z" />
    <glyph glyph-name="acute" unicode="&#xb4;" horiz-adv-x="405" 
d="M301 1446q-52 0 -113 -94q-63 -92 -149 -305q-4 -12 2 -21q6 -12 20 -12h50q13 0 16 8q97 117 121 147q18 23 41 53.5t26 34.5q45 62 45 119q0 70 -59 70z" />
    <glyph glyph-name="mu" unicode="&#xb5;" horiz-adv-x="714" 
d="M199 946q0 13 8 21q7 7 20 4l416 -99q19 -3 19 -24v-43q0 -22 -21 -25l-31 -6q-24 -4 -37 -6q-13 -3 -28 -14q-10 -8 -21 -29q-9 -21 -12 -55v-668q0 -45 -18 -92q-15 -39 -50 -86q-31 -41 -69 -64q-41 -24 -84 -24q-50 0 -94 33q-45 29 -80 79t-56 109q-20 56 -20 111
q0 44 10 71q10 13 21 13h43q24 0 24 -23v-16q0 -23 11 -72q12 -52 22 -76q14 -35 31 -59q16 -25 30 -25q13 0 29 19t25 47q11 32 16 63q6 35 6 70v713q-10 26 -37 47q-28 21 -63 43q-10 7 -10 20v43zM506 1087q-38 -38 -94 -38q-60 0 -95 38q-38 35 -38 95q0 56 38 94
q37 37 95 37q54 0 94 -37q37 -40 37 -94q0 -58 -37 -95z" />
    <glyph glyph-name="paragraph" unicode="&#xb6;" horiz-adv-x="1064" 
d="M874 1247v-1571q0 -22 -24 -22h-72q-22 0 -22 22v1571h-133v-1571q0 -22 -23 -22h-70q-24 0 -24 22v897q-82 6 -150 21q-59 10 -112 31q-100 47 -152 137q-49 85 -49 203q0 49 14 98q12 43 31 86q59 95 160 147q105 54 254 54h477q22 0 22 -25v-53q0 -25 -22 -25h-105z
" />
    <glyph glyph-name="periodcentered" unicode="&#xb7;" horiz-adv-x="348" 
d="M262 758q-39 39 -94 39q-50 -3 -92 -39q-39 -36 -39 -96q3 -60 41 -95q36 -39 92 -39q60 3 98 41q37 37 37 93q-3 56 -43 96z" />
    <glyph glyph-name="cedilla" unicode="&#xb8;" horiz-adv-x="210" 
d="M145 47q26 0 23 -24q-6 -59 -27 -117q-23 -63 -61 -107q-43 -50 -98 -75q-60 -31 -140 -31q-71 0 -104 39t-33 102q0 105 90 105q7 0 37 -5q5 -1 18 -4t21 -4q52 -10 59 -10q45 0 78 33q36 31 39 78q0 20 23 20h75z" />
    <glyph glyph-name="Superscriptone" unicode="&#xb9;" horiz-adv-x="485" 
d="M61 504q-22 0 -22 24v47q0 25 22 25q49 0 66 10q14 8 14 27v520q0 61 -18 76q-19 16 -60 16q-22 0 -22 25v49q0 25 22 25h351q24 0 24 -25v-47q0 -22 -20 -25q-11 -1 -45 -8q-19 -7 -27 -14q-8 -8 -12 -27q-4 -20 -4 -43v-522q0 -37 84 -37q24 0 24 -25v-47
q0 -24 -24 -24h-353z" />
    <glyph glyph-name="ordmasculine" unicode="&#xba;" horiz-adv-x="667" 
d="M373 1221q19 -19 28 -43q13 -40 17 -58q9 -50 10 -63h-197q3 26 9 63q3 28 16 58q8 22 29 43q16 16 43 16q26 0 45 -16zM285 774q-20 17 -29 43q-13 30 -16 60q-6 27 -9 59h197q-2 -24 -10 -62q-4 -22 -17 -57q-9 -27 -28 -43q-18 -18 -45 -18q-28 0 -43 18zM616 999
q0 154 -73 252q-79 97 -217 97q-75 0 -129 -31q-61 -38 -91 -84q-37 -57 -51 -113q-16 -66 -16 -121q0 -67 14 -127q15 -63 49 -112q35 -53 88 -82q50 -33 134 -33t141 31q51 25 88 78q31 51 45 112q15 65 18 131v2z" />
    <glyph glyph-name="guillemotright" unicode="&#xbb;" horiz-adv-x="1036" 
d="M606 0q11 0 21 10l344 455q6 15 0 29l-344 450q-10 10 -21 10h-104q-17 0 -23 -12q-6 -14 4 -24l324 -439l-324 -442q-10 -13 -4 -25t23 -12h104zM174 0q9 0 19 10l350 455q9 15 -2 29l-351 450q-10 10 -16 10h-106q-17 0 -23 -12q-8 -14 2 -24l324 -439l-324 -442
q-10 -14 -2 -25q6 -12 23 -12h106z" />
    <glyph glyph-name="onequarter" unicode="&#xbc;" horiz-adv-x="2148" 
d="M442 608q23 0 23 23v47q0 24 -23 24q-84 0 -84 37v344q0 31 2 41q4 18 13 27q8 8 26 14l20 5t27 6q19 3 19 22v47q0 25 -23 25h-352q-22 0 -22 -25v-49q0 -22 22 -22q40 0 60 -17q18 -18 18 -76v-342q0 -18 -14 -26q-18 -11 -66 -11q-22 0 -22 -24v-47q0 -23 22 -23h354z
M53 25q0 -25 25 -25h540q25 0 25 25v41q0 22 -25 22q-47 0 -77 6q-32 3 -35 23q7 16 20 67l611 885q83 117 180 117q24 0 24 22v39q0 25 -24 25h-572q-24 0 -24 -25v-39q0 -22 24 -22q133 0 136 -51l-13 -43l-598 -869q-43 -63 -90 -100q-44 -35 -102 -35q-25 0 -25 -22v-41
zM1317 63q0 23 -23 23q-88 0 -88 23v407q0 28 13 41q9 12 47 18q17 -2 34 -16q12 -12 27 -33v2l297 -534q9 -15 23 -12q12 0 20 14l266 526q9 27 41 43q31 17 58 17q22 0 22 24v33q0 23 -22 23h-271q-24 0 -24 -23v-33q0 -24 24 -24l49 -2l-4 -13q-2 -2 -4 -10l2 8
l-133 -266q-7 14 -19 37.5t-16 30.5q-21 35 -34 61q-22 33 -35 59q-20 33 -37 66l-6 22q9 4 22 7h35q25 0 25 24v33q0 23 -25 23h-84q-6 6 -12 0h-553q-23 0 -23 -23v-37q0 -24 23 -24q43 0 61 -11q15 -12 15 -53v-405q0 -11 -13 -17q-15 -6 -63 -6q-25 0 -25 -23v-38
q0 -25 25 -25h362q23 0 23 25v38z" />
    <glyph glyph-name="onehalf" unicode="&#xbd;" horiz-adv-x="1732" 
d="M1651 25q0 -25 -25 -25h-698q-25 0 -25 25v47q0 22 25 22q50 0 67 10q15 9 15 29v340q0 60 -19 76t-61 16q-25 0 -25 25v49q0 23 25 23h696q25 0 25 -23v-47q0 -22 -21 -25q-59 -9 -71 -24q-15 -15 -15 -68v-342q0 -39 82 -39q25 0 25 -22v-47zM1348 473q0 54 -15 72
q-15 15 -51 18q-52 -6 -63 -20q-13 -16 -13 -68v-342q0 -37 70 -37q42 0 59 10q13 10 13 27v340zM49 66q0 22 25 22q58 0 102 35q47 37 90 100l598 869l15 43q-6 51 -138 51q-22 0 -22 22v39q0 25 22 25h572q24 0 24 -25v-39q0 -22 -24 -22q-97 0 -180 -117l-611 -885
q-7 -26 -10 -39q-2 -7 -5.5 -16.5t-4.5 -11.5q3 -20 35 -23q30 -6 79 -6q23 0 23 -22v-41q0 -25 -23 -25h-542q-25 0 -25 25v41zM86 608q-25 0 -25 23v47q0 24 25 24q46 0 64 11q14 8 14 26v342q0 56 -17 76q-20 17 -59 17q-25 0 -25 22v49q0 25 25 25h350q23 0 23 -25v-47
q0 -19 -19 -22q-11 -2 -27 -6l-20 -5q-18 -6 -26 -14q-9 -9 -13 -27q-2 -10 -2 -41v-344q0 -37 84 -37q23 0 23 -24v-47q0 -23 -23 -23h-352z" />
    <glyph glyph-name="threequarters" unicode="&#xbe;" horiz-adv-x="2859" 
d="M743 25q0 -25 25 -25h543q22 0 22 25v41q0 22 -22 22q-50 0 -80 6q-32 3 -35 23q2 8 10 28q8 21 11 39l610 885q83 117 182 117q23 0 23 22v39q0 25 -23 25h-573q-23 0 -23 -25v-39q0 -22 23 -22q131 0 137 -51l-14 -43l-598 -869q-42 -61 -91 -100q-44 -35 -102 -35
q-25 0 -25 -22v-41zM2009 63q0 23 -24 23q-87 0 -87 23v407q0 26 11 41q9 12 49 18q35 -9 59 -49v2l299 -534q9 -15 21 -12q12 0 20 14l266 526q9 27 41 43q31 17 58 17q24 0 24 24v33q0 23 -24 23h-271q-22 0 -22 -23v-33q0 -24 22 -24l50 -2l-4 -13q-3 -2 -5 -10l2 8
l-133 -266l-34 68q-27 45 -35 61q-1 2 -14 24.5t-19 34.5q-20 33 -37 66l-6 22q4 4 20 7h37q23 0 23 24v33q0 23 -23 23h-86q-6 6 -12 0h-551q-25 0 -25 -23v-37q0 -24 25 -24q41 0 59 -11q15 -12 15 -53v-405q0 -11 -12 -17t-64 -6q-25 0 -25 -23v-38q0 -25 25 -25h363
q24 0 24 25v38zM848 739q0 -15 -12 -24q-13 -10 -56 -13q-75 0 -75 37v344q0 54 14 68q14 17 65 23q35 -3 50 -21q14 -17 14 -72v-342zM508 739q0 -17 -12 -26q-18 -11 -60 -11q-71 0 -71 37v344q0 55 12 70t65 21q37 -3 52 -21q14 -17 14 -72v-342zM1157 678q0 24 -24 24
q-89 0 -89 37v344q0 48 17 68q16 16 76 25q20 3 20 22v47q0 25 -24 25h-1047q-25 0 -25 -25v-49q0 -22 25 -22q44 0 64 -17q16 -19 16 -76v-342q0 -17 -12 -26q-18 -11 -70 -11q-25 0 -25 -24v-47q0 -23 25 -23h1049q24 0 24 23v47z" />
    <glyph glyph-name="questiondown" unicode="&#xbf;" horiz-adv-x="788" 
d="M80 440q44 69 94 129l62 78h-3l56 70q47 58 86 117q33 50 33 112q0 25 24 25h45q23 0 23 -27q-3 -68 -13 -143q-8 -57 -26 -113q-3 -9 -33 -67q-6 -11 -51 -89q-45 -73 -72 -122q-35 -62 -35 -97q0 -46 17 -92q15 -41 41 -67q26 -30 57 -43q35 -15 70 -15q47 0 82 21
q33 17 36 57q-32 38 -38 84l2 -2l-15 37q0 18 10 41q8 18 27 37q16 16 37 28q22 11 37 11q40 0 69 -39q31 -42 31 -105q0 -70 -26 -121q-26 -50 -74 -92q-42 -36 -105 -59q-58 -21 -120 -21q-74 0 -138 27q-60 22 -116 72q-53 47 -82 106q-31 64 -31 135t39 127zM324 1143
q0 59 32 94q29 37 84 43q53 0 97 -35q41 -35 41 -88q0 -55 -33 -94t-86 -39q-58 0 -94 33q-38 30 -41 84v2z" />
    <glyph glyph-name="Agrave" unicode="&#xc0;" 
d="M1317 0q22 0 22 25v36q0 20 -18 23q-60 9 -94 43q-36 31 -60 84l-469 1057q-6 16 -20 16q-17 -3 -23 -18l-430 -1069q-16 -56 -63 -82q-51 -31 -92 -31q-23 0 -23 -23v-36q0 -25 23 -25h403q23 0 23 25v36q0 23 -23 23q-50 0 -74 8q-26 9 -26 37q0 2 2 4q0 2 4 14l6 29
l-2 -2l252 629l264 -596l-2 10l4 -16q1 -5 4 -14.5t4 -14.5q4 -20 4 -31q0 -39 -32 -47q-38 -10 -78 -10q-25 0 -25 -23v-36q0 -25 25 -25h514zM571 1507q12 -15 25 -28q6 -10 27 -31q21 -25 39 -41q34 -34 61 -59h59q14 0 21 10q3 9 0 22q-20 48 -72 168q-17 35 -53 94
q-21 35 -43 44q-19 8 -49 8q-60 0 -60 -70q0 -55 45 -117z" />
    <glyph glyph-name="Aacute" unicode="&#xc1;" 
d="M1317 0q22 0 22 25v36q0 20 -18 23q-60 9 -94 43q-36 31 -60 84l-469 1057q-6 16 -20 16q-17 -3 -23 -18l-430 -1069q-16 -56 -63 -82q-51 -31 -92 -31q-23 0 -23 -23v-36q0 -25 23 -25h403q23 0 23 25v36q0 23 -23 23q-50 0 -74 8q-26 9 -26 37q0 2 2 4q0 2 4 14l6 29
l-2 -2l252 629l264 -596l-2 10l4 -16q1 -5 4 -14.5t4 -14.5q4 -20 4 -31q0 -39 -32 -47q-38 -10 -78 -10q-25 0 -25 -23v-36q0 -25 25 -25h514zM807 1694q-30 0 -49 -8q-22 -9 -43 -44q-32 -46 -53 -94q-52 -120 -72 -168q-3 -14 2 -22q3 -10 18 -10h60q11 10 32.5 30.5
t30.5 28.5q29 29 39 41q11 11 27 31q6 8 22 28q45 62 45 117q0 70 -59 70z" />
    <glyph glyph-name="Acircumflex" unicode="&#xc2;" 
d="M1317 0q22 0 22 25v36q0 20 -18 23q-60 9 -94 43q-36 31 -60 84l-469 1057q-6 16 -20 16q-17 -3 -23 -18l-430 -1069q-16 -56 -63 -82q-51 -31 -92 -31q-23 0 -23 -23v-36q0 -25 23 -25h403q23 0 23 25v36q0 23 -23 23q-50 0 -74 8q-26 9 -26 37q0 2 2 4q0 2 4 14l6 29
l-2 -2l252 629l264 -596l-2 10l4 -16q1 -5 4 -14.5t4 -14.5q4 -20 4 -31q0 -39 -32 -47q-38 -10 -78 -10q-25 0 -25 -23v-36q0 -25 25 -25h514zM336 1298q13 8 37 25q22 15 35 25q7 5 31 22.5t38 26.5q44 28 74 45q43 20 74 33q35 12 69 12q72 0 142 -43q70 -44 135 -90
l78 -56q15 -9 28 2q16 13 6 29q-17 38 -63 101q-42 58 -92 102q-45 40 -113 80q-59 30 -121 30q-60 0 -119 -30q-65 -36 -114 -80q-55 -49 -94 -102q-43 -55 -64 -101z" />
    <glyph glyph-name="Atilde" unicode="&#xc3;" 
d="M1018 1655q-10 10 -19 10q-10 -3 -16 -12l-31 -49q-21 -37 -41 -54q-21 -18 -71 -18q-39 3 -68 16q-23 8 -76 41q-51 33 -86 51q-41 18 -80 21h-10q-32 0 -76 -29q-40 -29 -69 -69q-30 -36 -53 -76q-23 -41 -23 -51l45 -86q10 -14 23 -11q13 0 20 13q33 62 72 104
q33 39 69 39q38 0 105 -49l26 -19q55 -40 95 -55q38 -15 82 -18h8q87 0 139 55q46 46 102 158q6 14 -6 26zM1317 0q22 0 22 25v36q0 20 -18 23q-60 9 -94 43q-36 31 -60 84l-469 1057q-6 16 -20 16q-17 -3 -23 -18l-430 -1069q-16 -56 -63 -82q-51 -31 -92 -31
q-23 0 -23 -23v-36q0 -25 23 -25h403q23 0 23 25v36q0 23 -23 23q-50 0 -74 8q-26 9 -26 37q0 2 2 4q0 2 4 14l6 29l-2 -2l252 629l264 -596l-2 10l4 -16q1 -5 4 -14.5t4 -14.5q4 -20 4 -31q0 -39 -32 -47q-38 -10 -78 -10q-25 0 -25 -23v-36q0 -25 25 -25h514z" />
    <glyph glyph-name="Adieresis" unicode="&#xc4;" 
d="M1001 1542q-29 33 -81 33q-47 0 -80 -33t-33 -80t33 -80q32 -32 80 -32q53 0 81 32q31 36 31 80t-31 80zM549 1542q-29 33 -82 33q-47 0 -80 -33t-33 -80t33 -80q32 -32 80 -32q54 0 82 32q31 36 31 80t-31 80zM1317 0q22 0 22 25v36q0 20 -18 23q-60 9 -94 43
q-36 31 -60 84l-469 1057q-6 16 -20 16q-17 -3 -23 -18l-430 -1069q-16 -56 -63 -82q-51 -31 -92 -31q-23 0 -23 -23v-36q0 -25 23 -25h403q23 0 23 25v36q0 23 -23 23q-50 0 -74 8q-26 9 -26 37q0 2 2 4q0 2 4 14l6 29l-2 -2l252 629l264 -596l-2 10l4 -16q1 -5 4 -14.5
t4 -14.5q4 -20 4 -31q0 -39 -32 -47q-38 -10 -78 -10q-25 0 -25 -23v-36q0 -25 25 -25h514z" />
    <glyph glyph-name="Aring" unicode="&#xc5;" 
d="M754 1542q-29 33 -82 33q-47 0 -80 -33t-33 -80t33 -80q32 -32 80 -32q54 0 82 32q30 34 30 80t-30 80zM672 1473q16 0 16 -11q0 -8 -16 -8q-17 0 -17 8q0 11 17 11zM1317 0q22 0 22 25v36q0 20 -18 23q-60 9 -94 43q-36 31 -60 84l-469 1057q-6 16 -20 16
q-17 -3 -23 -18l-430 -1069q-16 -56 -63 -82q-51 -31 -92 -31q-23 0 -23 -23v-36q0 -25 23 -25h403q23 0 23 25v36q0 23 -23 23q-50 0 -74 8q-26 9 -26 37q0 2 2 4q0 2 4 14l6 29l-2 -2l252 629l264 -596l-2 10l4 -16q1 -5 4 -14.5t4 -14.5q4 -20 4 -31q0 -39 -32 -47
q-38 -10 -78 -10q-25 0 -25 -23v-36q0 -25 25 -25h514z" />
    <glyph glyph-name="AE" unicode="&#xc6;" horiz-adv-x="2109" 
d="M1991 23q0 -23 -23 -23h-1159q-25 0 -25 25v36q0 23 25 23q42 0 80 10q33 9 33 47q0 11 -4 31q-10 26 -11 29l-4 16l2 -10l-264 598l-250 -631l2 2l-8 -29q-4 -12 -4 -14l-2 -4q0 -28 27 -37q24 -8 73 -8q23 0 23 -23v-36q0 -25 -23 -25h-403q-23 0 -23 25v36q0 23 23 23
q41 0 92 31q50 30 65 80l429 1073q6 15 22 18q13 0 23 -16l446 -1016q113 163 152 219q44 64 149 217l-448 541q-10 10 -5 24q6 15 23 15h950q8 0 17 -6q6 -6 6 -17l20 -284q0 -27 -24 -27h-43q-20 0 -23 18q-8 42 -26 74q-19 29 -48 45q-26 15 -69 21q-54 4 -98 4h-295
q17 -20 76.5 -89.5t91.5 -105.5q96 -114 165 -194q12 -15 2 -31l-352 -498h359q45 0 84 17q30 13 55 45q21 27 33 67q17 56 22 84q5 10 8 13q6 6 15 6h43q24 0 24 -25z" />
    <glyph glyph-name="Ccedilla" unicode="&#xc7;" horiz-adv-x="1253" 
d="M45 637q6 121 45 231q39 116 107 201q70 92 165 148q100 59 226 71q8 4 14 4q4 -2 19 -2h32q114 0 193 -20q67 -18 112 -45h-2q13 -8 21 -8q4 0 4 22l-2 18q0 25 25 25h61q19 0 22 -18l93 -334q4 -11 -4 -19q-10 -10 -21 -10h-57q-16 0 -19 10q-65 89 -110 136
q-54 54 -109 75q-89 29 -186 29q-94 0 -156 -45q-64 -46 -108 -117q-44 -67 -70 -162q-26 -86 -35 -186v-20q-2 -8 -2 -19l2 -12q8 -90 35 -182q21 -82 63 -146q39 -59 103 -98q60 -37 145 -43q343 15 428 313q3 17 25 17h57q28 0 25 -29q-40 -166 -127 -270
q-85 -102 -244 -146q-6 -37 -33 -112q-24 -58 -63 -103q-43 -50 -96 -74q-61 -28 -136 -28q-71 0 -104 39q-35 41 -35 102q0 104 92 104q9 0 37 -4q6 -1 18.5 -4t18.5 -4q52 -10 59 -10q41 0 68 18q29 16 41 54q-6 -2 -23 -2q-8 -2 -22 -2h-45q-124 0 -223 51
q-105 51 -174 135q-70 84 -111 201q-39 110 -39 239v31z" />
    <glyph glyph-name="Egrave" unicode="&#xc8;" horiz-adv-x="1126" 
d="M422 1507q16 -20 24 -28q6 -10 27 -31q21 -25 39 -41q34 -34 61 -59h60q13 0 20 10q5 8 2 22q-31 76 -71 168q-13 27 -54 94q-20 33 -45 44q-19 8 -49 8q-59 0 -59 -70q0 -49 45 -117zM993 412q-6 0 -12 -6q-5 -4 -10 -13q-4 -18 -23 -84q-12 -40 -33 -67
q-25 -32 -55 -45q-39 -17 -82 -17h-360l354 498q10 16 -2 31q-126 146 -168 194q-32 36 -91.5 105.5t-76.5 89.5h295q42 0 100 -4q44 -7 70 -21q24 -13 45 -45q19 -35 27 -74q3 -10 10 -12q6 -6 12 -6h45q23 0 23 27l-19 284q0 23 -24 23h-950q-17 0 -23 -15q-6 -14 4 -24
l449 -539l-451 -655q-9 -12 -2 -25q6 -12 23 -12h944q24 0 24 23l25 364q0 25 -23 25h-45z" />
    <glyph glyph-name="Eacute" unicode="&#xc9;" horiz-adv-x="1126" 
d="M674 1694q-30 0 -49 -8q-25 -11 -45 -44q-39 -63 -52 -94q-31 -63 -73 -168q-3 -14 2 -22q7 -10 18 -10h60q11 10 32.5 30.5t30.5 28.5q29 29 39 41q11 11 27 31q6 8 22 28q45 62 45 117q0 70 -57 70zM993 412q-6 0 -12 -6q-5 -4 -10 -13q-4 -18 -23 -84q-12 -40 -33 -67
q-25 -32 -55 -45q-39 -17 -82 -17h-360l354 498q10 16 -2 31q-126 146 -168 194q-32 36 -91.5 105.5t-76.5 89.5h295q42 0 100 -4q44 -7 70 -21q24 -13 45 -45q19 -35 27 -74q3 -10 10 -12q6 -6 12 -6h45q23 0 23 27l-19 284q0 23 -24 23h-950q-17 0 -23 -15q-6 -14 4 -24
l449 -539l-451 -655q-9 -12 -2 -25q6 -12 23 -12h944q24 0 24 23l25 364q0 25 -23 25h-45z" />
    <glyph glyph-name="Ecircumflex" unicode="&#xca;" horiz-adv-x="1126" 
d="M199 1339q4 2 15 10.5t19 12.5q30 20 35 24q66 47 146 95q71 45 141 45q72 0 143 -41q77 -48 136 -90l75 -56q16 -10 31 2q14 10 4 27q-16 36 -63 100q-43 58 -93 103q-47 42 -112 80q-59 30 -121 30q-61 0 -119 -30q-65 -36 -114 -80q-56 -50 -95 -103q-42 -54 -63 -100
zM993 412q-6 0 -12 -6q-5 -4 -10 -13q-4 -18 -23 -84q-12 -40 -33 -67q-25 -32 -55 -45q-39 -17 -82 -17h-360l354 498q10 16 -2 31q-126 146 -168 194q-32 36 -91.5 105.5t-76.5 89.5h295q42 0 100 -4q44 -7 70 -21q24 -13 45 -45q19 -35 27 -74q3 -10 10 -12q6 -6 12 -6
h45q23 0 23 27l-19 284q0 23 -24 23h-950q-17 0 -23 -15q-6 -14 4 -24l449 -539l-451 -655q-9 -12 -2 -25q6 -12 23 -12h944q24 0 24 23l25 364q0 25 -23 25h-45z" />
    <glyph glyph-name="Edieresis" unicode="&#xcb;" horiz-adv-x="1126" 
d="M862 1542q-29 33 -80 33q-47 0 -80 -33q-32 -32 -32 -80t32 -80t80 -32q52 0 80 32q31 36 31 80t-31 80zM410 1542q-29 33 -82 33q-47 0 -80 -33t-33 -80t33 -80q32 -32 80 -32q54 0 82 32q30 34 30 80t-30 80zM993 412q-6 0 -12 -6q-5 -4 -10 -13q-4 -18 -23 -84
q-12 -40 -33 -67q-25 -32 -55 -45q-39 -17 -82 -17h-360l354 498q10 16 -2 31q-126 146 -168 194q-32 36 -91.5 105.5t-76.5 89.5h295q42 0 100 -4q44 -7 70 -21q24 -13 45 -45q19 -35 27 -74q3 -10 10 -12q6 -6 12 -6h45q23 0 23 27l-19 284q0 23 -24 23h-950
q-17 0 -23 -15q-6 -14 4 -24l449 -539l-451 -655q-9 -12 -2 -25q6 -12 23 -12h944q24 0 24 23l25 364q0 25 -23 25h-45z" />
    <glyph glyph-name="Igrave" unicode="&#xcc;" horiz-adv-x="684" 
d="M229 1507q12 -15 25 -28q6 -10 27 -31q24 -29 38 -41q22 -21 62 -59h59q14 0 21 10q3 9 0 22q-20 48 -72 168q-17 35 -53 94q-21 35 -43 44q-19 8 -49 8q-60 0 -60 -70q0 -55 45 -117zM606 0q23 0 23 25v38q0 23 -23 23q-151 0 -151 94v828q0 37 4 77q3 28 20 48
q15 19 47 28q36 11 84 19q19 3 19 22v43q0 25 -23 25h-540q-25 0 -25 -25v-43q0 -22 25 -22q77 0 110 -33t33 -146v-821q0 -43 -27 -67q-27 -27 -119 -27q-24 0 -24 -23v-38q0 -25 24 -25h543z" />
    <glyph glyph-name="Iacute" unicode="&#xcd;" horiz-adv-x="684" 
d="M428 1694q-28 0 -47 -8q-25 -11 -45 -44q-32 -46 -53 -94q-36 -74 -74 -168q-3 -14 2 -22q7 -10 20 -10h60q11 10 32.5 30.5t30.5 28.5q29 29 39 41q11 11 27 31q6 8 22 28q45 68 45 117q0 70 -59 70zM606 0q23 0 23 25v38q0 23 -23 23q-151 0 -151 94v828q0 37 4 77
q3 28 20 48q15 19 47 28q36 11 84 19q19 3 19 22v43q0 25 -23 25h-540q-25 0 -25 -25v-43q0 -22 25 -22q77 0 110 -33t33 -146v-821q0 -43 -27 -67q-27 -27 -119 -27q-24 0 -24 -23v-38q0 -25 24 -25h543z" />
    <glyph glyph-name="Icircumflex" unicode="&#xce;" horiz-adv-x="684" 
d="M-20 1339q4 2 15 10.5t19 12.5q30 20 35 24q70 49 72 50q45 28 74 45q36 20 73 32q37 13 68 13q72 0 143 -41q71 -43 135 -90l76 -56q16 -10 31 2q13 10 6 27q-16 36 -63 100q-51 61 -95 103q-47 42 -112 80q-58 30 -121 30q-60 0 -119 -30q-67 -38 -115 -80
q-53 -47 -94 -103q-42 -54 -63 -100zM606 0q23 0 23 25v38q0 23 -23 23q-151 0 -151 94v828q0 37 4 77q3 28 20 48q15 19 47 28q36 11 84 19q19 3 19 22v43q0 25 -23 25h-540q-25 0 -25 -25v-43q0 -22 25 -22q77 0 110 -33t33 -146v-821q0 -43 -27 -67q-27 -27 -119 -27
q-24 0 -24 -23v-38q0 -25 24 -25h543z" />
    <glyph glyph-name="Idieresis" unicode="&#xcf;" horiz-adv-x="684" 
d="M594 1542q-29 33 -82 33q-49 0 -78 -33q-33 -33 -33 -80t33 -80q28 -32 78 -32q54 0 82 32q31 36 31 80t-31 80zM240 1542q-29 33 -82 33q-47 0 -80 -33t-33 -80t33 -80q32 -32 80 -32q54 0 82 32q30 34 30 80t-30 80zM606 0q23 0 23 25v38q0 23 -23 23q-151 0 -151 94
v828q0 37 4 77q3 28 20 48q15 19 47 28q36 11 84 19q19 3 19 22v43q0 25 -23 25h-540q-25 0 -25 -25v-43q0 -22 25 -22q77 0 110 -33t33 -146v-821q0 -43 -27 -67q-27 -27 -119 -27q-24 0 -24 -23v-38q0 -25 24 -25h543z" />
    <glyph glyph-name="Eth" unicode="&#xd0;" horiz-adv-x="1323" 
d="M168 0q-23 0 -23 25v47q0 22 23 22q41 0 68 10q22 9 22 41v420h-188q-25 0 -25 25v102q0 23 25 23h188v403q0 40 -27 49t-63 9q-23 0 -23 22v47q0 25 23 25h508q296 0 436 -168q141 -170 141 -494q0 -128 -36 -235q-37 -110 -105 -193q-70 -86 -162 -131
q-94 -49 -209 -49h-573zM500 565v-422h127q203 0 291 119q86 121 86 354q0 283 -101 402t-307 119h-96v-422h186q25 0 25 -23v-102q0 -25 -25 -25h-186z" />
    <glyph glyph-name="Ntilde" unicode="&#xd1;" horiz-adv-x="1425" 
d="M1024 1647q-10 10 -18 10q-12 -4 -17 -12l-31 -50q-21 -37 -40 -53q-21 -18 -72 -18q-39 3 -68 16q-18 6 -78 41h2q-51 33 -86 51q-41 18 -79 21h-11q-32 0 -75 -29q-40 -30 -70 -70q-32 -38 -53 -75q-23 -41 -23 -52l45 -84q9 -15 23 -12q11 0 20 15q36 67 70 104
q37 37 72 37q37 0 104 -49l27 -19q51 -37 94 -53q38 -15 82 -18h8q87 0 139 55q48 48 103 158q4 4 2 12q-2 5 -9 12zM1352 63q0 23 -23 23q-69 0 -110 27q-41 24 -41 94v825q0 72 26 111q27 37 109 37q22 0 22 22v43q0 25 -22 25h-1243q-23 0 -23 -25v-43q0 -22 23 -22
q56 0 96 -21q39 -20 39 -82v-870q0 -72 -37 -96q-42 -25 -98 -25q-23 0 -23 -23v-38q0 -25 23 -25h528q25 0 25 25v38q0 23 -25 23q-72 0 -106 27q-37 24 -37 94v942h473v-942q0 -45 -8 -64q-9 -21 -25 -34q-18 -14 -37 -17q-21 -3 -45 -6h-12q-25 0 -25 -23v-38
q0 -25 25 -25h528q23 0 23 25v38z" />
    <glyph glyph-name="Ograve" unicode="&#xd2;" horiz-adv-x="1429" 
d="M571 1507q12 -15 25 -28q6 -10 27 -31q21 -25 39 -41q34 -34 61 -59h59q14 0 21 10q5 8 2 22q-20 48 -72 168q-17 35 -53 94q-24 35 -45 44q-19 8 -49 8q-60 0 -60 -70q0 -55 45 -117zM1356 309q0 25 -23 25h-49q-4 0 -12 -4q-6 -4 -10 -15q-8 -40 -29 -88
q-18 -41 -59 -41h-252v29q93 26 172 84q68 49 125 125q48 68 75 151q25 86 25 166q0 106 -35 209q-34 101 -108 178q-73 76 -191 123q-116 45 -285 45q-166 0 -282 -45q-121 -47 -197 -123q-80 -77 -117 -174q-38 -96 -38 -204q0 -88 30 -170q29 -83 84 -160
q53 -74 127 -127q74 -56 160 -80v-27h-242q-39 0 -57 41q-22 43 -31 88q-3 10 -8 15q-12 4 -14 4h-45q-23 0 -23 -25v-284q0 -25 23 -25h522q22 0 22 27l-14 264q0 17 -14 20q-64 22 -109 70q-45 43 -82 108q-34 60 -49 132q-16 72 -16 129q0 79 22 159q20 71 68 131
q44 55 115 90q65 33 163 33q94 0 166 -35q69 -38 113 -94q41 -55 63 -133q21 -77 21 -151q0 -72 -19 -146q-20 -79 -51 -131q-35 -63 -80 -102q-46 -43 -104 -58q-19 -3 -19 -22l-16 -264q0 -27 25 -27h536q23 0 23 25v284z" />
    <glyph glyph-name="Oacute" unicode="&#xd3;" horiz-adv-x="1429" 
d="M817 1694q-28 0 -47 -8q-25 -11 -45 -44q-32 -46 -53 -94q-36 -74 -74 -168q-3 -14 2 -22q7 -10 21 -10h59q11 10 32.5 30.5t30.5 28.5q29 29 39 41q11 11 27 31q6 8 22 28q46 70 46 117q0 70 -60 70zM1356 309q0 25 -23 25h-49q-4 0 -12 -4q-6 -4 -10 -15
q-8 -40 -29 -88q-18 -41 -59 -41h-252v29q93 26 172 84q68 49 125 125q48 68 75 151q25 86 25 166q0 106 -35 209q-34 101 -108 178q-73 76 -191 123q-116 45 -285 45q-166 0 -282 -45q-121 -47 -197 -123q-80 -77 -117 -174q-38 -96 -38 -204q0 -88 30 -170q29 -83 84 -160
q53 -74 127 -127q74 -56 160 -80v-27h-242q-39 0 -57 41q-22 43 -31 88q-3 10 -8 15q-12 4 -14 4h-45q-23 0 -23 -25v-284q0 -25 23 -25h522q22 0 22 27l-14 264q0 17 -14 20q-64 22 -109 70q-45 43 -82 108q-34 60 -49 132q-16 72 -16 129q0 79 22 159q20 71 68 131
q44 55 115 90q65 33 163 33q94 0 166 -35q69 -38 113 -94q41 -55 63 -133q21 -77 21 -151q0 -72 -19 -146q-20 -79 -51 -131q-35 -63 -80 -102q-46 -43 -104 -58q-19 -3 -19 -22l-16 -264q0 -27 25 -27h536q23 0 23 25v284z" />
    <glyph glyph-name="Ocircumflex" unicode="&#xd4;" horiz-adv-x="1429" 
d="M344 1339q3 2 16 10t21 13q30 20 35 24q5 3 30.5 22t40.5 28q35 24 72 45q35 19 74 32q37 13 67 13q73 0 144 -41q70 -43 135 -90l78 -56q15 -9 28 2q17 10 7 27q-15 32 -64 100q-54 66 -94 103q-45 40 -113 80q-58 30 -121 30q-60 0 -118 -30q-67 -38 -115 -80
q-53 -47 -94 -103q-44 -61 -62 -100zM1356 309q0 25 -23 25h-49q-4 0 -12 -4q-6 -4 -10 -15q-8 -40 -29 -88q-18 -41 -59 -41h-252v29q93 26 172 84q68 49 125 125q48 68 75 151q25 86 25 166q0 106 -35 209q-34 101 -108 178q-73 76 -191 123q-116 45 -285 45
q-166 0 -282 -45q-121 -47 -197 -123q-80 -77 -117 -174q-38 -96 -38 -204q0 -88 30 -170q29 -83 84 -160q53 -74 127 -127q74 -56 160 -80v-27h-242q-39 0 -57 41q-22 43 -31 88q-3 10 -8 15q-12 4 -14 4h-45q-23 0 -23 -25v-284q0 -25 23 -25h522q22 0 22 27l-14 264
q0 17 -14 20q-64 22 -109 70q-45 43 -82 108q-34 60 -49 132q-16 72 -16 129q0 79 22 159q20 71 68 131q44 55 115 90q65 33 163 33q94 0 166 -35q69 -38 113 -94q41 -55 63 -133q21 -77 21 -151q0 -72 -19 -146q-20 -79 -51 -131q-35 -63 -80 -102q-46 -43 -104 -58
q-19 -3 -19 -22l-16 -264q0 -27 25 -27h536q23 0 23 25v284z" />
    <glyph glyph-name="Otilde" unicode="&#xd5;" horiz-adv-x="1429" 
d="M1356 309q0 25 -23 25h-49q-4 0 -12 -4q-6 -4 -10 -15q-8 -40 -29 -88q-18 -41 -59 -41h-252v29q93 26 172 84q68 49 125 125q48 68 75 151q25 86 25 166q0 106 -35 209q-34 101 -108 178q-73 76 -191 123q-116 45 -285 45q-166 0 -282 -45q-121 -47 -197 -123
q-80 -77 -117 -174q-38 -96 -38 -204q0 -88 30 -170q29 -83 84 -160q53 -74 127 -127q74 -56 160 -80v-27h-242q-39 0 -57 41q-22 43 -31 88q-3 10 -8 15q-12 4 -14 4h-45q-23 0 -23 -25v-284q0 -25 23 -25h522q22 0 22 27l-14 264q0 17 -14 20q-64 22 -109 70
q-45 43 -82 108q-34 60 -49 132q-16 72 -16 129q0 79 22 159q20 71 68 131q44 55 115 90q65 33 163 33q94 0 166 -35q69 -38 113 -94q41 -55 63 -133q21 -77 21 -151q0 -72 -19 -146q-20 -79 -51 -131q-35 -63 -80 -102q-46 -43 -104 -58q-19 -3 -19 -22l-16 -264
q0 -27 25 -27h536q23 0 23 25v284zM1026 1655q-10 10 -18 10q-12 -4 -17 -12l-30 -49q-21 -37 -41 -54q-21 -18 -72 -18q-39 3 -68 16q-18 6 -78 41h3q-47 30 -87 51q-41 18 -79 21h-11q-32 0 -75 -29q-42 -31 -70 -69q-30 -36 -53 -76q-23 -41 -23 -51l45 -86
q10 -14 23 -11q10 0 20 13q36 67 70 104q36 39 72 39q21 0 45 -12q21 -10 59 -37l27 -19q56 -41 94 -55q38 -15 82 -18h8q85 0 137 55t105 158q5 14 -7 26z" />
    <glyph glyph-name="Odieresis" unicode="&#xd6;" horiz-adv-x="1429" 
d="M1010 1542q-29 33 -82 33q-47 0 -80 -33t-33 -80t33 -80q32 -32 80 -32q54 0 82 32q30 34 30 80t-30 80zM557 1542q-33 33 -82 33q-47 0 -80 -33t-33 -80t33 -80q32 -32 80 -32q50 0 82 32q31 36 31 80t-31 80zM1356 309q0 25 -23 25h-49q-4 0 -12 -4q-6 -4 -10 -15
q-8 -40 -29 -88q-18 -41 -59 -41h-252v29q93 26 172 84q68 49 125 125q48 68 75 151q25 86 25 166q0 106 -35 209q-34 101 -108 178q-73 76 -191 123q-116 45 -285 45q-166 0 -282 -45q-121 -47 -197 -123q-80 -77 -117 -174q-38 -96 -38 -204q0 -88 30 -170q29 -83 84 -160
q53 -74 127 -127q74 -56 160 -80v-27h-242q-39 0 -57 41q-22 43 -31 88q-3 10 -8 15q-12 4 -14 4h-45q-23 0 -23 -25v-284q0 -25 23 -25h522q22 0 22 27l-14 264q0 17 -14 20q-64 22 -109 70q-45 43 -82 108q-34 60 -49 132q-16 72 -16 129q0 79 22 159q20 71 68 131
q44 55 115 90q65 33 163 33q94 0 166 -35q69 -38 113 -94q41 -55 63 -133q21 -77 21 -151q0 -72 -19 -146q-20 -79 -51 -131q-35 -63 -80 -102q-46 -43 -104 -58q-19 -3 -19 -22l-16 -264q0 -27 25 -27h536q23 0 23 25v284z" />
    <glyph glyph-name="multiply" unicode="&#xd7;" horiz-adv-x="667" 
d="M125 356q17 -16 33 0q43 46 86 86l86 86l172 -172q15 -18 33 0l75 78q10 19 -2 31l-172 172l170 172q16 15 0 31l-74 73q-15 15 -30 0l-172 -172l-176 179q-15 12 -31 0l-76 -74q-15 -16 0 -31q43 -45 88 -88l90 -90l-176 -174q-15 -15 0 -31z" />
    <glyph glyph-name="Oslash" unicode="&#xd8;" horiz-adv-x="1421" 
d="M1348 25q0 -25 -23 -25h-537q-24 0 -24 27l16 264q0 19 19 22q58 15 104 58q45 39 80 102q31 52 51 131q19 74 19 146q0 46 -6 102q-8 48 -25 100q-114 -179 -209 -334q-83 -139 -213 -333l14 -258q0 -27 -22 -27h-522q-23 0 -23 25v284q0 25 23 25h45q2 0 14 -4
q5 -5 8 -15q9 -45 31 -88q18 -41 57 -41h242v27q-86 24 -160 80q-74 53 -127 127q-55 77 -84 160q-30 82 -30 170q0 108 38 204q36 95 115 174q77 77 195 123q116 45 282 45q170 0 283 -45q116 -46 190 -123q75 -78 109 -178q33 -98 33 -209q0 -80 -25 -166
q-26 -80 -76 -151q-57 -76 -125 -125q-77 -58 -172 -84v-29h252q42 0 60 41q19 44 28 88q3 19 25 19h47q23 0 23 -25v-284zM356 590q27 -83 74 -148l436 682q-37 23 -75 31q-39 8 -97 8q-99 0 -166 -33q-71 -35 -112 -90q-45 -56 -66 -131q-22 -80 -22 -159q0 -74 28 -160z
" />
    <glyph glyph-name="Ugrave" unicode="&#xd9;" horiz-adv-x="1441" 
d="M578 1507q16 -20 24 -28q6 -10 27 -31q21 -25 39 -41q34 -34 61 -59h59q14 0 21 10q3 9 0 22q-20 48 -72 168q-17 35 -53 94q-21 35 -43 44q-19 8 -49 8q-60 0 -60 -70q0 -53 46 -117zM1368 1245q0 25 -25 25h-528q-22 0 -22 -25v-39q0 -22 22 -22h12q40 -5 47 -6
q19 -3 37 -17q15 -12 25 -35q8 -19 8 -63v-942h-489v942q0 69 37 96q36 25 106 25q25 0 25 22v39q0 25 -25 25h-528q-23 0 -23 -25v-39q0 -22 23 -22q56 0 98 -25q37 -24 37 -96v-870q0 -62 -39 -82q-40 -21 -96 -21q-23 0 -23 -22v-43q0 -25 23 -25h1259q23 0 23 25v43
q0 22 -23 22q-82 0 -108 39q-27 38 -27 109v825q0 70 39 96q42 25 110 25q25 0 25 22v39z" />
    <glyph glyph-name="Uacute" unicode="&#xda;" horiz-adv-x="1441" 
d="M47 1206q0 -22 23 -22q70 0 112 -25q39 -26 39 -96v-825q0 -73 -26 -109q-26 -39 -109 -39q-23 0 -23 -22v-43q0 -25 23 -25h1257q25 0 25 25v43q0 22 -25 22q-53 0 -94 21q-39 20 -39 82v870q0 72 37 96q39 25 96 25q25 0 25 22v39q0 25 -25 25h-528q-22 0 -22 -25v-39
q0 -22 22 -22q70 0 109 -25q37 -27 37 -96v-942h-490v942q0 40 10 63t25 35q18 14 37 17q21 3 45 6h10q25 0 25 22v39q0 25 -25 25h-528q-23 0 -23 -25v-39zM823 1694q-28 0 -47 -8q-25 -11 -45 -44q-32 -46 -53 -94q-36 -74 -74 -168q-3 -14 2 -22q7 -10 21 -10h59
q59 55 64 59q23 23 38 41q11 11 27 31q3 4 11.5 14t11.5 14q45 68 45 117q0 70 -60 70z" />
    <glyph glyph-name="Ucircumflex" unicode="&#xdb;" horiz-adv-x="1441" 
d="M350 1339q3 2 16 10t21 13q30 20 35 24q70 49 72 50q39 27 71 45q35 19 74 32q37 13 68 13q72 0 143 -41q70 -43 135 -90l78 -56q15 -9 29 2q16 10 6 27q-15 32 -64 100q-54 66 -94 103q-45 40 -113 80q-59 30 -120 30t-119 -30q-67 -38 -115 -80q-53 -47 -94 -103
q-44 -61 -62 -100zM1368 1245q0 25 -25 25h-528q-22 0 -22 -25v-39q0 -22 22 -22h12q40 -5 47 -6q19 -3 37 -17q15 -12 25 -35q8 -19 8 -63v-942h-489v942q0 69 37 96q36 25 106 25q25 0 25 22v39q0 25 -25 25h-528q-23 0 -23 -25v-39q0 -22 23 -22q56 0 98 -25
q37 -24 37 -96v-870q0 -62 -39 -82q-40 -21 -96 -21q-23 0 -23 -22v-43q0 -25 23 -25h1259q23 0 23 25v43q0 22 -23 22q-82 0 -108 39q-27 38 -27 109v825q0 70 39 96q42 25 110 25q25 0 25 22v39z" />
    <glyph glyph-name="Udieresis" unicode="&#xdc;" horiz-adv-x="1441" 
d="M1016 1542q-29 33 -82 33q-47 0 -80 -33t-33 -80t33 -80q32 -32 80 -32q54 0 82 32q31 36 31 80t-31 80zM563 1542q-33 33 -82 33q-47 0 -80 -33q-32 -32 -32 -80t32 -80t80 -32q50 0 82 32q31 36 31 80t-31 80zM1368 1245q0 25 -25 25h-528q-22 0 -22 -25v-39
q0 -22 22 -22h12q40 -5 47 -6q19 -3 37 -17q15 -12 25 -35q8 -19 8 -63v-942h-489v942q0 69 37 96q36 25 106 25q25 0 25 22v39q0 25 -25 25h-528q-23 0 -23 -25v-39q0 -22 23 -22q56 0 98 -25q37 -24 37 -96v-870q0 -62 -39 -82q-40 -21 -96 -21q-23 0 -23 -22v-43
q0 -25 23 -25h1259q23 0 23 25v43q0 22 -23 22q-82 0 -108 39q-27 38 -27 109v825q0 70 39 96q42 25 110 25q25 0 25 22v39z" />
    <glyph glyph-name="Yacute" unicode="&#xdd;" horiz-adv-x="1568" 
d="M887 1694q-30 0 -49 -8q-25 -11 -45 -44q-39 -63 -52 -94q-31 -63 -73 -168q-3 -14 2 -22q7 -10 18 -10h60q11 10 32.5 30.5t30.5 28.5q29 29 39 41q11 11 27 31q6 8 22 28q47 71 47 117q0 70 -59 70zM1491 1262q0 24 -23 24q-55 0 -110 -12q-57 -12 -103 -49t-73 -105
q-29 -72 -29 -180q0 -122 -59 -199q-58 -76 -201 -82v414q0 64 33 84q33 23 116 23q23 0 23 22v43q0 25 -23 25h-528q-25 0 -25 -25v-43q0 -22 25 -22q52 0 70 -2q20 -2 41 -15q12 -12 18 -33q4 -28 4 -57v-414q-133 3 -186 80q-53 74 -53 201q0 346 -336 346q-25 0 -25 -24
v-43q0 -20 16 -23q55 -16 70 -61q17 -53 17 -131q0 -142 24 -228q21 -84 80 -137t154 -74q94 -24 239 -39v-333q0 -56 -24 -80q-27 -27 -109 -27q-25 0 -25 -23v-38q0 -25 25 -25h512q25 0 25 25v38q0 23 -25 23q-74 0 -104 23q-29 23 -29 84v333q177 16 270 47
q101 30 154 89q54 57 72 139q17 77 20 203v32q0 56 10 94q9 33 62 68q10 10 10 21v43z" />
    <glyph glyph-name="Thorn" unicode="&#xde;" horiz-adv-x="1114" 
d="M1024 494q-23 -62 -70 -109q-48 -48 -104 -74q-68 -30 -133 -41q-80 -12 -135 -14q-53 -4 -162 -8v-41q0 -47 8 -66q9 -20 25 -30q15 -8 22 -9q9 -4 35 -8q30 -5 35 -6q10 -2 22 -2q23 0 23 -23v-38q0 -25 -23 -25h-499q-25 0 -25 25v38q0 20 20 23l111 23q14 8 23 30
q6 21 6 68v788q0 108 -29 148q-30 37 -106 37q-25 0 -25 22v43q0 25 25 25h501q25 0 25 -25v-43q0 -19 -21 -22q-45 -6 -75 -19q-33 -18 -45 -35q-17 -24 -23 -51q-6 -19 -10 -67h102q155 0 258 -35q99 -34 160 -88q60 -57 84 -121q25 -67 25 -127q0 -76 -25 -143zM823 649
q0 60 -35 107q-36 45 -83 71q-51 26 -109 41q-63 13 -104 13h-52q-20 0 -20 -4v-494q92 0 174 10q65 8 125 39q50 27 76 78q25 52 28 131v8z" />
    <glyph glyph-name="germandbls" unicode="&#xdf;" horiz-adv-x="1110" 
d="M1012 528q-25 67 -70 115q-44 46 -104 82q-58 33 -131 45q-75 12 -134 14q-23 1 -75 3.5t-82 3.5v260q0 82 30 94q8 4 23 10l16 4t19 4q5 1 16.5 2t16.5 2q10 2 22 2q23 0 23 23v39q0 24 -23 24h-489q-23 0 -23 -24v-39q0 -20 16 -23l111 -24q12 -6 21 -27q6 -21 6 -67
v-832q0 -58 -25 -94q-27 -35 -106 -35q-23 0 -23 -24v-43q0 -23 23 -23h446q156 0 254 39q104 38 160 94q61 61 84 125q22 71 22 127q0 79 -24 143zM813 367q0 -63 -33 -107q-35 -47 -84 -74q-55 -31 -108 -45q-62 -16 -103 -16h-49q-20 0 -20 4v530q88 0 170 -10
q67 -11 121 -41q48 -29 75 -82q28 -55 31 -131v-28z" />
    <glyph glyph-name="agrave" unicode="&#xe0;" horiz-adv-x="1226" 
d="M1085 299q-19 0 -22 -18q-9 -59 -29 -93q-18 -30 -37 -30t-36 20q-23 20 -37 45q-21 32 -29 58q-10 30 -10 51l207 561q4 11 -2 20q-7 11 -19 11h-172q-17 0 -20 -17l-84 -237q-40 125 -121 200q-82 76 -209 76h-8q-96 0 -172 -43q-79 -48 -129 -115q-53 -72 -80 -159
q-29 -95 -29 -183q0 -98 27 -180q23 -81 78 -149q52 -64 131 -101q73 -36 182 -36q126 0 209 57q86 58 131 147l6 -8q0 -4 2 -8q9 -21 37 -74q16 -30 41 -59q20 -26 47 -41q22 -14 57 -14q45 0 76 22q32 25 47 59q17 46 25 95q6 52 6 120q0 23 -25 23h-39zM709 438
q0 -44 -21 -102q-24 -67 -53 -111q-34 -52 -74 -86q-43 -37 -88 -37h-8q-40 0 -72 29q-34 30 -53 76q-24 53 -35 112q-11 57 -14 142q12 178 57 266q47 92 117 92q63 0 106 -37q48 -45 72 -94q33 -72 45 -123q15 -64 21 -121v-6zM383 1196q16 -20 25 -29q6 -10 26 -30
l39 -39q21 -24 59 -62h60q12 0 18 13q6 9 2 20q-31 76 -71 166q-13 31 -52 94q-23 32 -43 41q-19 8 -49 8q-59 0 -59 -67q0 -53 45 -115z" />
    <glyph glyph-name="aacute" unicode="&#xe1;" horiz-adv-x="1226" 
d="M1085 299q-19 0 -22 -18q-9 -59 -29 -93q-18 -30 -37 -30t-36 20q-23 20 -37 45q-21 32 -29 58q-10 30 -10 51l207 561q4 11 -2 20q-7 11 -19 11h-172q-17 0 -20 -17l-84 -237q-40 125 -121 200q-82 76 -209 76h-8q-96 0 -172 -43q-79 -48 -129 -115q-53 -72 -80 -159
q-29 -95 -29 -183q0 -98 27 -180q23 -81 78 -149q52 -64 131 -101q73 -36 182 -36q126 0 209 57q86 58 131 147l6 -8q0 -4 2 -8q9 -21 37 -74q16 -30 41 -59q20 -26 47 -41q22 -14 57 -14q45 0 76 22q32 25 47 59q17 46 25 95q6 52 6 120q0 23 -25 23h-39zM709 438
q0 -44 -21 -102q-24 -67 -53 -111q-34 -52 -74 -86q-43 -37 -88 -37h-8q-40 0 -72 29q-34 30 -53 76q-24 53 -35 112q-11 57 -14 142q12 178 57 266q47 92 117 92q63 0 106 -37q48 -45 72 -94q33 -72 45 -123q15 -64 21 -121v-6zM698 1378q-30 0 -49 -8q-20 -9 -43 -41
q-35 -57 -51 -94q-57 -131 -72 -166q-4 -11 2 -20q3 -13 19 -13h59l62 62l39 39q10 10 26 30q3 4 23 29q45 62 45 115q0 67 -60 67z" />
    <glyph glyph-name="acircumflex" unicode="&#xe2;" horiz-adv-x="1226" 
d="M1085 299q-19 0 -22 -18q-9 -59 -29 -93q-18 -30 -37 -30t-36 20q-23 20 -37 45q-21 32 -29 58q-10 30 -10 51l207 561q4 11 -2 20q-7 11 -19 11h-172q-17 0 -20 -17l-84 -237q-40 125 -121 200q-82 76 -209 76h-8q-96 0 -172 -43q-79 -48 -129 -115q-53 -72 -80 -159
q-29 -95 -29 -183q0 -98 27 -180q23 -81 78 -149q52 -64 131 -101q73 -36 182 -36q126 0 209 57q86 58 131 147l6 -8q0 -4 2 -8q9 -21 37 -74q16 -30 41 -59q20 -26 47 -41q22 -14 57 -14q45 0 76 22q32 25 47 59q17 46 25 95q6 52 6 120q0 23 -25 23h-39zM709 438
q0 -44 -21 -102q-24 -67 -53 -111q-34 -52 -74 -86q-43 -37 -88 -37h-8q-40 0 -72 29q-34 30 -53 76q-24 53 -35 112q-11 57 -14 142q12 178 57 266q47 92 117 92q63 0 106 -37q48 -45 72 -94q33 -72 45 -123q15 -64 21 -121v-6zM121 1028q4 2 15.5 10.5t19.5 12.5
q24 16 34 24q52 37 72 49q34 24 72 45q34 18 72 33q34 12 67 12q71 0 141 -40q73 -47 134 -91l75 -55q16 -10 31 2q13 13 4 29q-21 46 -61 98q-45 58 -92 100q-45 40 -113 80q-60 31 -119 31t-119 -31q-65 -38 -112 -80q-56 -50 -95 -100q-40 -52 -61 -98z" />
    <glyph glyph-name="atilde" unicode="&#xe3;" horiz-adv-x="1226" 
d="M1085 299q-19 0 -22 -18q-9 -59 -29 -93q-18 -30 -37 -30t-36 20q-23 20 -37 45q-21 32 -29 58q-10 30 -10 51l207 561q4 11 -2 20q-7 11 -19 11h-172q-17 0 -20 -17l-84 -237q-40 125 -121 200q-82 76 -209 76h-8q-96 0 -172 -43q-79 -48 -129 -115q-53 -72 -80 -159
q-29 -95 -29 -183q0 -98 27 -180q23 -81 78 -149q52 -64 131 -101q73 -36 182 -36q126 0 209 57q86 58 131 147l6 -8q0 -4 2 -8q9 -21 37 -74q16 -30 41 -59q20 -26 47 -41q22 -14 57 -14q45 0 76 22q32 25 47 59q17 46 25 95q6 52 6 120q0 23 -25 23h-39zM709 438
q0 -44 -21 -102q-24 -67 -53 -111q-34 -52 -74 -86q-43 -37 -88 -37h-8q-40 0 -72 29q-34 30 -53 76q-24 53 -35 112q-11 57 -14 142q12 178 57 266q47 92 117 92q63 0 106 -37q48 -45 72 -94q33 -72 45 -123q15 -64 21 -121v-6zM805 1333q-22 19 -37 -2l-31 -49
q-20 -35 -41 -53q-20 -17 -69 -17q-36 3 -66 15q-23 8 -76 41q-51 33 -86 51q-41 18 -77 18h-11q-34 0 -73 -28q-29 -19 -72 -66q-30 -36 -53 -76q-21 -37 -21 -51l45 -84q10 -13 23 -10q11 0 20 12q37 70 70 105q34 37 69 37t103 -50l27 -18q60 -40 94 -53q41 -16 80 -19h8
q84 0 137 56q52 52 102 155q6 13 -6 25z" />
    <glyph glyph-name="adieresis" unicode="&#xe4;" horiz-adv-x="1226" 
d="M1085 299q-19 0 -22 -18q-9 -59 -29 -93q-18 -30 -37 -30t-36 20q-23 20 -37 45q-21 32 -29 58q-10 30 -10 51l207 561q4 11 -2 20q-7 11 -19 11h-172q-17 0 -20 -17l-84 -237q-40 125 -121 200q-82 76 -209 76h-8q-96 0 -172 -43q-79 -48 -129 -115q-53 -72 -80 -159
q-29 -95 -29 -183q0 -98 27 -180q23 -81 78 -149q52 -64 131 -101q73 -36 182 -36q126 0 209 57q86 58 131 147l6 -8q0 -4 2 -8q9 -21 37 -74q16 -30 41 -59q20 -26 47 -41q22 -14 57 -14q45 0 76 22q32 25 47 59q17 46 25 95q6 52 6 120q0 23 -25 23h-39zM709 438
q0 -44 -21 -102q-24 -67 -53 -111q-34 -52 -74 -86q-43 -37 -88 -37h-8q-40 0 -72 29q-34 30 -53 76q-24 53 -35 112q-11 57 -14 142q12 178 57 266q47 92 117 92q63 0 106 -37q48 -45 72 -94q33 -72 45 -123q15 -64 21 -121v-6zM750 1229q-31 31 -80 31q-47 0 -78 -31
q-33 -33 -33 -80q0 -49 33 -78q29 -33 78 -33q51 0 80 33q30 30 30 78q0 45 -30 80zM352 1229q-31 31 -80 31q-46 0 -77 -31q-33 -33 -33 -80q0 -49 33 -78q29 -33 77 -33q51 0 80 33q31 31 31 78q0 44 -31 80z" />
    <glyph glyph-name="aring" unicode="&#xe5;" horiz-adv-x="1226" 
d="M1085 299q-19 0 -22 -18q-9 -59 -29 -93q-18 -30 -37 -30t-36 20q-23 20 -37 45q-21 32 -29 58q-10 30 -10 51l207 561q4 11 -2 20q-7 11 -19 11h-172q-17 0 -20 -17l-84 -237q-40 125 -121 200q-82 76 -209 76h-8q-96 0 -172 -43q-79 -48 -129 -115q-53 -72 -80 -159
q-29 -95 -29 -183q0 -98 27 -180q23 -81 78 -149q52 -64 131 -101q73 -36 182 -36q126 0 209 57q86 58 131 147l6 -8q0 -4 2 -8q9 -21 37 -74q16 -30 41 -59q20 -26 47 -41q22 -14 57 -14q45 0 76 22q32 25 47 59q17 46 25 95q6 52 6 120q0 23 -25 23h-39zM709 438
q0 -44 -21 -102q-24 -67 -53 -111q-34 -52 -74 -86q-43 -37 -88 -37h-8q-40 0 -72 29q-34 30 -53 76q-24 53 -35 112q-11 57 -14 142q12 178 57 266q47 92 117 92q63 0 106 -37q48 -45 72 -94q33 -72 45 -123q15 -64 21 -121v-6zM559 1227q-30 30 -80 30q-45 0 -80 -30
q-32 -32 -32 -80q0 -50 32 -78q33 -33 80 -33q51 0 80 33q31 31 31 78q0 44 -31 80zM479 1157q15 0 15 -10q0 -8 -15 -8q-16 0 -16 8q0 10 16 10z" />
    <glyph glyph-name="ae" unicode="&#xe6;" horiz-adv-x="1853" 
d="M1729 248l24 -29q-24 -84 -59 -135q-38 -50 -84 -74q-50 -24 -111 -30q-75 -7 -143 -7q-56 0 -139 11q-66 9 -121 34q-28 -38 -95 -38q-29 0 -55 16q-27 15 -47 41q-25 29 -41 59q-34 65 -37 72l-2 6h-2v2q0 2 -4 8q-45 -89 -131 -147q-83 -57 -209 -57q-109 0 -182 36
q-79 37 -131 101q-55 68 -78 149q-27 82 -27 180q0 88 29 183q27 87 80 159q50 67 129 115q76 43 172 43h8q127 0 209 -76t119 -200l84 237q5 9 10 13q8 4 12 4h172q15 0 21 -9t0 -22l-2 -10q50 33 119 49q65 12 139 12q64 0 121 -14q55 -14 108 -43q49 -28 78 -62
q31 -39 31 -77t-37 -68q-39 -31 -76 -31q-28 0 -43 6q-15 2 -33 17q-12 7 -26 28q-17 20 -31 43q-20 38 -47 62q-27 18 -78 18q-43 0 -84 -35t-41 -104q0 -87 45 -113q47 -27 131 -30l111 6q41 0 65 -12q25 -16 31 -58q0 -74 -94 -74l-57 5q-43 6 -70 6q-62 0 -109 -41
q-49 -43 -49 -99q0 -66 55 -112q49 -44 170 -53q48 4 68 8q29 3 53 18q26 13 47 37q25 29 50 66q7 10 20 10h64zM481 102q45 0 88 37q40 34 74 86q29 44 53 111q21 59 21 102v6q-6 57 -21 121q-14 60 -43 123q-25 51 -71 94q-46 37 -109 37q-70 0 -117 -92q-45 -88 -57 -266
q3 -85 14 -142q11 -59 35 -112q22 -52 53 -76q32 -29 72 -29h8zM948 250q0 69 33 125q35 59 115 104q-71 39 -107 113l-98 -258q3 -31 18 -70q15 -43 43 -71l-4 28v29zM1139 502v-43q-12 4 -21 10q-11 3 -22 10z" />
    <glyph glyph-name="ccedilla" unicode="&#xe7;" horiz-adv-x="1001" 
d="M594 950q39 -2 108 -20q52 -13 111 -47q55 -36 86 -78q33 -44 33 -111q0 -49 -10 -104q-7 -41 -29 -86q-20 -35 -49 -58q-26 -20 -68 -20q-57 3 -84 27q-26 23 -26 84q0 63 24 90q29 32 70 63l-2 -4l4 4q-20 34 -80 60q-67 28 -156 28h-24q-41 -6 -84 -28
q-44 -24 -74 -62q-33 -35 -51 -86q-21 -52 -21 -110q0 -63 19 -134q18 -71 51 -127q35 -59 78 -94q46 -37 98 -37h8q120 0 179 133q4 12 14 15q43 14 72 14q71 0 98 -61q2 -7 2 -13t-4 -10q-42 -60 -92 -102t-121 -70q-8 -49 -31 -110q-21 -56 -61 -99q-37 -43 -95 -71
q-63 -29 -133 -29q-69 0 -102 39q-33 36 -33 100q0 105 90 105q11 0 35 -4q5 -1 18 -4.5t21 -4.5q7 -1 19 -4l16 -4q20 -4 22 -4q77 0 101 59q-6 -2 -25 -2h-22q-122 0 -207 52q-90 55 -140 131q-52 76 -77 170q-25 95 -25 174q0 95 31 180q26 80 92 143q70 63 164 95
q95 32 241 32h21z" />
    <glyph glyph-name="egrave" unicode="&#xe8;" horiz-adv-x="915" 
d="M762 248q-14 0 -21 -10q-28 -42 -49 -66q-25 -25 -49 -37q-24 -15 -53 -18q-22 -4 -70 -8h4q-121 9 -170 53q-55 46 -55 112q0 55 47 99q47 41 111 41q23 0 69 -6l58 -5q94 0 94 74q-6 42 -31 58q-24 12 -65 12l-111 -6q-84 3 -131 30t-47 113q0 70 43 104q41 35 84 35
q51 0 78 -18q27 -24 47 -62q17 -28 30 -43q13 -20 27 -28q18 -15 33 -17q15 -6 43 -6q34 0 76 31q37 30 37 68t-31 77q-30 35 -80 62q-52 28 -109 43q-57 14 -120 14q-68 0 -140 -16q-72 -15 -123 -49q-53 -33 -88 -86q-32 -49 -32 -121q0 -68 36 -113q35 -47 89 -78
q-80 -45 -115 -104q-33 -56 -33 -127q0 -78 35 -131q35 -54 90 -86q52 -32 129 -45q71 -15 152 -15q68 0 143 7q63 6 113 30q46 24 81 74q37 53 60 135q4 12 -2 21q-5 8 -21 8h-63zM303 1206q12 -15 25 -28q8 -12 26 -31q21 -25 39 -41q17 -19 60 -59h59q11 0 18 10
q5 8 2 22q-31 76 -71 166q-16 37 -51 94q-23 32 -43 41q-21 9 -50 9q-59 0 -59 -68q0 -53 45 -115z" />
    <glyph glyph-name="eacute" unicode="&#xe9;" horiz-adv-x="915" 
d="M762 248q-14 0 -21 -10q-28 -42 -49 -66q-25 -25 -49 -37q-24 -15 -53 -18q-22 -4 -70 -8h4q-121 9 -170 53q-55 46 -55 112q0 55 47 99q47 41 111 41q23 0 69 -6l58 -5q94 0 94 74q-6 42 -31 58q-24 12 -65 12l-111 -6q-84 3 -131 30t-47 113q0 70 43 104q41 35 84 35
q51 0 78 -18q27 -24 47 -62q17 -28 30 -43q13 -20 27 -28q18 -15 33 -17q15 -6 43 -6q34 0 76 31q37 30 37 68t-31 77q-30 35 -80 62q-52 28 -109 43q-57 14 -120 14q-68 0 -140 -16q-72 -15 -123 -49q-53 -33 -88 -86q-32 -49 -32 -121q0 -68 36 -113q35 -47 89 -78
q-80 -45 -115 -104q-33 -56 -33 -127q0 -78 35 -131q35 -54 90 -86q52 -32 129 -45q71 -15 152 -15q68 0 143 7q63 6 113 30q46 24 81 74q37 53 60 135q4 12 -2 21q-5 8 -21 8h-63zM551 1389q-28 0 -49 -9q-20 -9 -43 -41q-32 -46 -53 -94q-57 -131 -72 -166q-3 -14 2 -22
q7 -10 20 -10h58q27 23 63 59l39 39q11 11 27 31q6 10 22 30q43 64 43 115q0 68 -57 68z" />
    <glyph glyph-name="ecircumflex" unicode="&#xea;" horiz-adv-x="915" 
d="M762 248q-14 0 -21 -10q-28 -42 -49 -66q-25 -25 -49 -37q-24 -15 -53 -18q-22 -4 -70 -8h4q-121 9 -170 53q-55 46 -55 112q0 55 47 99q47 41 111 41q23 0 69 -6l58 -5q94 0 94 74q-6 42 -31 58q-24 12 -65 12l-111 -6q-84 3 -131 30t-47 113q0 70 43 104q41 35 84 35
q51 0 78 -18q27 -24 47 -62q17 -28 30 -43q13 -20 27 -28q18 -15 33 -17q15 -6 43 -6q34 0 76 31q37 30 37 68t-31 77q-30 35 -80 62q-52 28 -109 43q-57 14 -120 14q-68 0 -140 -16q-72 -15 -123 -49q-53 -33 -88 -86q-32 -49 -32 -121q0 -68 36 -113q35 -47 89 -78
q-80 -45 -115 -104q-33 -56 -33 -127q0 -78 35 -131q35 -54 90 -86q52 -32 129 -45q71 -15 152 -15q68 0 143 7q63 6 113 30q46 24 81 74q37 53 60 135q4 12 -2 21q-5 8 -21 8h-63zM94 1028q3 2 16 10t21 13q30 20 35 24q3 2 29 21t41 28q39 27 71 45q39 22 74 33
q34 12 68 12q71 0 141 -40q64 -41 133 -91l76 -55q15 -9 28 2q16 13 7 29q-16 36 -64 98q-45 58 -92 100q-49 44 -111 80q-60 31 -118 31q-59 0 -119 -31q-62 -35 -113 -80q-53 -47 -94 -100q-43 -55 -62 -98z" />
    <glyph glyph-name="edieresis" unicode="&#xeb;" horiz-adv-x="915" 
d="M725 1229q-31 31 -80 31q-44 0 -80 -31q-33 -33 -33 -80q0 -49 33 -78q33 -33 80 -33q51 0 80 33q31 31 31 78q0 44 -31 80zM319 1229q-31 31 -79 31q-47 0 -78 -31q-33 -33 -33 -80q0 -49 33 -78q29 -33 78 -33q50 0 79 33q31 31 31 78q0 44 -31 80zM762 248
q-14 0 -21 -10q-28 -42 -49 -66q-25 -25 -49 -37q-24 -15 -53 -18q-22 -4 -70 -8h4q-121 9 -170 53q-55 46 -55 112q0 55 47 99q47 41 111 41q23 0 69 -6l58 -5q94 0 94 74q-6 42 -31 58q-24 12 -65 12l-111 -6q-84 3 -131 30t-47 113q0 70 43 104q41 35 84 35q51 0 78 -18
q27 -24 47 -62q17 -28 30 -43q13 -20 27 -28q18 -15 33 -17q15 -6 43 -6q34 0 76 31q37 30 37 68t-31 77q-30 35 -80 62q-52 28 -109 43q-57 14 -120 14q-68 0 -140 -16q-72 -15 -123 -49q-53 -33 -88 -86q-32 -49 -32 -121q0 -68 36 -113q35 -47 89 -78q-80 -45 -115 -104
q-33 -56 -33 -127q0 -78 35 -131q35 -54 90 -86q52 -32 129 -45q71 -15 152 -15q68 0 143 7q63 6 113 30q46 24 81 74q37 53 60 135q4 12 -2 21q-5 8 -21 8h-63z" />
    <glyph glyph-name="igrave" unicode="&#xec;" horiz-adv-x="690" 
d="M188 1196q20 -25 23 -29q5 -7 27 -30q24 -29 38 -41q35 -35 62 -60h57q15 0 21 13q6 9 2 20q-15 35 -72 166q-16 37 -51 94q-26 33 -45 41t-49 8q-58 0 -58 -67q0 -53 45 -115zM391 922q0 13 -8 18q-8 6 -23 2q-123 -42 -184 -59q-71 -23 -115 -33q-20 -3 -20 -25v-43
q0 -22 25 -22q58 0 92 -21q32 -19 32 -96v-465q0 -46 21 -84q17 -38 49 -67q31 -28 72 -43q46 -17 80 -17t80 17q39 14 69 49q29 29 51 78q19 49 19 108q0 25 -23 25h-43q-22 0 -22 -25q-3 -52 -25 -80t-49 -28q-32 0 -53 41q-25 42 -25 108v662z" />
    <glyph glyph-name="iacute" unicode="&#xed;" horiz-adv-x="690" 
d="M391 922q0 13 -8 18q-8 6 -23 2q-123 -42 -184 -59q-71 -23 -115 -33q-20 -3 -20 -25v-43q0 -22 25 -22q58 0 92 -21q32 -19 32 -96v-465q0 -46 21 -84q17 -38 49 -67q31 -28 72 -43q46 -17 80 -17t80 17q39 14 69 49q29 29 51 78q19 49 19 108q0 25 -23 25h-43
q-22 0 -22 -25q-3 -52 -25 -80t-49 -28q-32 0 -53 41q-25 42 -25 108v662zM399 1378q-30 0 -49 -8q-20 -9 -43 -41q-35 -57 -51 -94q-57 -131 -72 -166q-4 -11 2 -20q6 -13 19 -13h59l62 62l39 39q10 10 26 30q3 4 23 29q45 62 45 115q0 67 -60 67z" />
    <glyph glyph-name="icircumflex" unicode="&#xee;" horiz-adv-x="690" 
d="M391 922q0 11 -10 18q-9 6 -21 2q-123 -42 -184 -59q-74 -24 -117 -33q-18 -3 -18 -25v-43q0 -22 22 -22q61 0 95 -21q32 -19 32 -96v-465q0 -44 19 -84q17 -38 49 -67q31 -28 72 -43q46 -17 80 -17q36 0 82 17q39 14 69 49q29 29 51 78q19 49 19 108q0 25 -25 25h-41
q-24 0 -24 -25q-3 -52 -25 -80t-49 -28q-32 0 -53 41q-23 44 -23 108v662zM-66 1028q3 2 16 10t21 13q30 20 35 24q3 2 29 21t41 28q39 27 71 45q39 22 74 33q34 12 66 12q71 0 141 -40q61 -38 135 -91l76 -55q15 -9 29 2q16 13 6 29q-16 36 -64 98q-45 58 -92 100t-112 80
q-60 31 -119 31t-119 -31q-62 -36 -111 -80q-53 -47 -94 -100q-40 -52 -61 -98z" />
    <glyph glyph-name="idieresis" unicode="&#xef;" horiz-adv-x="690" 
d="M391 922q0 13 -8 18q-8 6 -23 2q-123 -42 -184 -59q-71 -23 -115 -33q-20 -3 -20 -25v-43q0 -22 25 -22q58 0 92 -21q32 -19 32 -96v-465q0 -46 21 -84q17 -38 49 -67q31 -28 72 -43q46 -17 80 -17t80 17q39 14 69 49q29 29 51 78q19 49 19 108q0 25 -23 25h-43
q-22 0 -22 -25q-3 -52 -25 -80t-49 -28q-32 0 -53 41q-25 42 -25 108v662zM535 1231q-31 31 -80 31q-47 0 -78 -31q-33 -33 -33 -80q0 -49 33 -78q29 -33 78 -33q51 0 80 33q30 30 30 78q0 45 -30 80zM236 1231q-31 31 -82 31q-47 0 -78 -31q-33 -33 -33 -80q0 -49 33 -78
q29 -33 78 -33q53 0 82 33q30 30 30 78q0 45 -30 80z" />
    <glyph glyph-name="eth" unicode="&#xf0;" horiz-adv-x="999" 
d="M227 981q-25 -9 -34 12l-27 54q-9 21 10 30l193 109l-47 45v-2q-45 40 -48 43q-22 19 -55 39q-6 2 -10 14q-2 5 2 16l25 41q10 20 30 11q51 -24 113 -62q78 -48 115 -76q38 20 110 62q52 31 111 61q20 8 33 -8l32 -53q10 -22 -8 -31l-190 -108q172 -156 262 -340
q86 -183 86 -369v-10q0 -102 -33 -187q-35 -89 -92 -155q-56 -65 -139 -107q-80 -41 -170 -41h-21q-100 0 -174 39q-78 37 -135 103q-58 64 -88 149q-33 79 -33 178q0 87 31 178q30 89 86 160q52 65 133 115q76 43 174 43q29 0 57 -4q12 -2 43 -15q-56 101 -123 185z
M324 756q-56 -71 -56 -244q0 -123 37 -227q34 -104 96 -154h-2q65 -47 125 -47q79 0 131 70q54 69 54 225q0 201 -72 330q-32 52 -78 88q-47 30 -98 30q-84 0 -137 -71z" />
    <glyph glyph-name="ntilde" unicode="&#xf1;" horiz-adv-x="1036" 
d="M852 1333q-23 19 -35 -2l-31 -49q-20 -35 -41 -53q-20 -17 -69 -17q-36 3 -66 15q-18 6 -78 41h3q-51 33 -86 51q-40 18 -80 18h-9q-34 0 -73 -28q-29 -19 -72 -66q-30 -36 -53 -76q-21 -37 -21 -51l45 -84q10 -13 23 -10q11 0 20 12q36 68 68 105q34 37 70 37
q21 0 47 -13q21 -12 57 -37l27 -18q55 -39 92 -53q41 -16 82 -19h8q84 0 137 56q48 48 103 155q3 15 -7 25zM70 664l22 -23q0 45 8 76q10 38 21 63q-28 -43 -37 -116h-14zM858 -303q-34 46 -37 104q-4 78 -4 144v712q0 33 -16 62q-13 24 -43 47q-30 20 -64 29q-42 10 -73 10
q-123 0 -205 -143v-615h-107v594q0 105 -30 145q-33 39 -80 39q-45 0 -78 -45q30 59 65 82q40 29 78 29q48 0 92 -41q41 -41 56 -115q3 -17 18 -20q17 -3 25 10q58 91 131 133q68 39 137 39q94 0 145 -63q52 -64 52 -177v-712q0 -87 8 -142q6 -65 26 -106h-96z" />
    <glyph glyph-name="ograve" unicode="&#xf2;" horiz-adv-x="960" 
d="M338 1206l24 -30q6 -10 27 -31l39 -39q24 -28 61 -59h58q13 0 20 10q5 8 2 22q-31 76 -71 166q-14 31 -52 94q-26 33 -45 41q-21 9 -49 9q-57 0 -57 -68q0 -51 43 -115zM864 670q-25 87 -82 164q-53 64 -135 106q-78 37 -182 37h-8q-110 0 -187 -47t-127 -121
q-51 -72 -73 -166q-25 -95 -25 -182q0 -85 23 -189q22 -98 69 -168q48 -75 129 -122q82 -48 197 -48q125 0 207 46q82 43 131 116q46 72 67 168q22 100 25 197q0 107 -29 209zM283 522q4 73 10 111q9 61 29 110q20 47 55 82q33 33 92 33t92 -33q35 -35 55 -82
q20 -49 29 -110q9 -59 12 -111h-374zM657 391q-3 -51 -12 -110q-10 -63 -29 -111t-55 -84q-35 -35 -92 -35q-55 0 -90 35q-34 34 -55 86q-19 48 -29 111q-9 59 -12 108h374z" />
    <glyph glyph-name="oacute" unicode="&#xf3;" horiz-adv-x="960" 
d="M582 1389q-29 0 -50 -9q-20 -9 -43 -41q-35 -57 -51 -94q-40 -90 -71 -166q-3 -14 2 -22q7 -10 18 -10h59q38 35 62 59q29 29 39 41q6 6 26 31q3 4 11.5 14t11.5 14q45 62 45 115q0 68 -59 68zM864 670q-25 87 -82 164q-53 64 -135 106q-78 37 -182 37h-8
q-110 0 -187 -47t-127 -121q-51 -72 -73 -166q-25 -95 -25 -182q0 -85 23 -189q22 -98 69 -168q48 -75 129 -122q82 -48 197 -48q125 0 207 46q82 43 131 116q46 72 67 168q22 100 25 197q0 107 -29 209zM283 522q4 73 10 111q9 61 29 110q20 47 55 82q33 33 92 33t92 -33
q35 -35 55 -82q20 -49 29 -110q9 -59 12 -111h-374zM657 391q-3 -51 -12 -110q-10 -63 -29 -111t-55 -84q-35 -35 -92 -35q-55 0 -90 35q-34 34 -55 86q-19 48 -29 111q-9 59 -12 108h374z" />
    <glyph glyph-name="ocircumflex" unicode="&#xf4;" horiz-adv-x="960" 
d="M115 1028q5 3 35 23q24 16 34 24q52 37 72 49q34 24 72 45q38 20 71 33q35 12 68 12q71 0 141 -40q47 -29 133 -91l76 -55q16 -10 31 2q13 13 6 29q-18 39 -63 98q-43 56 -93 100q-47 42 -112 80q-60 31 -119 31t-119 -31q-59 -35 -110 -80q-56 -50 -95 -100
q-40 -52 -61 -98zM864 670q-25 87 -82 164q-53 64 -135 106q-78 37 -182 37h-8q-110 0 -187 -47t-127 -121q-51 -72 -73 -166q-25 -95 -25 -182q0 -85 23 -189q22 -98 69 -168q48 -75 129 -122q82 -48 197 -48q125 0 207 46q82 43 131 116q46 72 67 168q22 100 25 197
q0 107 -29 209zM283 522q4 73 10 111q9 61 29 110q20 47 55 82q33 33 92 33t92 -33q35 -35 55 -82q20 -49 29 -110q9 -59 12 -111h-374zM657 391q-3 -51 -12 -110q-10 -63 -29 -111t-55 -84q-35 -35 -92 -35q-55 0 -90 35q-34 34 -55 86q-19 48 -29 111q-9 59 -12 108h374z
" />
    <glyph glyph-name="otilde" unicode="&#xf5;" horiz-adv-x="960" 
d="M788 1333q-8 8 -18 8q-9 0 -16 -10l-31 -49q-20 -35 -41 -53q-20 -17 -70 -17q-35 3 -65 15q-18 6 -78 41h2q-51 33 -86 51q-41 18 -80 18h-8q-35 0 -74 -28q-27 -18 -71 -66q-33 -39 -54 -76q-20 -36 -20 -51l45 -84q9 -13 22 -10q12 0 21 12q38 71 67 105q34 37 70 37
q21 0 47 -13q27 -15 58 -37l26 -18q55 -39 92 -53q41 -16 82 -19h8q85 0 138 56q46 46 102 155q3 16 -6 25zM864 670q-25 87 -82 164q-53 64 -135 106q-78 37 -182 37h-8q-110 0 -187 -47t-127 -121q-51 -72 -73 -166q-25 -95 -25 -182q0 -85 23 -189q22 -98 69 -168
q48 -75 129 -122q82 -48 197 -48q125 0 207 46q82 43 131 116q46 72 67 168q22 100 25 197q0 107 -29 209zM283 522q4 73 10 111q9 61 29 110q20 47 55 82q33 33 92 33t92 -33q35 -35 55 -82q20 -49 29 -110q9 -59 12 -111h-374zM657 391q-3 -51 -12 -110q-10 -63 -29 -111
t-55 -84q-35 -35 -92 -35q-55 0 -90 35q-34 34 -55 86q-19 48 -29 111q-9 59 -12 108h374z" />
    <glyph glyph-name="odieresis" unicode="&#xf6;" horiz-adv-x="960" 
d="M772 1229q-31 31 -80 31q-44 0 -80 -31q-32 -32 -32 -80q0 -50 32 -78q33 -33 80 -33q51 0 80 33q31 31 31 78q0 44 -31 80zM324 1229q-31 31 -80 31q-47 0 -78 -31q-33 -33 -33 -80q0 -49 33 -78q29 -33 78 -33q51 0 80 33q30 30 30 78q0 45 -30 80zM864 670
q-25 87 -82 164q-53 64 -135 106q-78 37 -182 37h-8q-110 0 -187 -47t-127 -121q-51 -72 -73 -166q-25 -95 -25 -182q0 -85 23 -189q22 -98 69 -168q48 -75 129 -122q82 -48 197 -48q125 0 207 46q82 43 131 116q46 72 67 168q22 100 25 197q0 107 -29 209zM283 522
q4 73 10 111q9 61 29 110q20 47 55 82q33 33 92 33t92 -33q35 -35 55 -82q20 -49 29 -110q9 -59 12 -111h-374zM657 391q-3 -51 -12 -110q-10 -63 -29 -111t-55 -84q-35 -35 -92 -35q-55 0 -90 35q-34 34 -55 86q-19 48 -29 111q-9 59 -12 108h374z" />
    <glyph glyph-name="divide" unicode="&#xf7;" horiz-adv-x="1015" 
d="M590 1028q-39 39 -94 39q-51 -3 -93 -39q-38 -35 -38 -96q3 -59 41 -94q36 -39 92 -39q60 3 98 41q37 37 37 92q-3 56 -43 96zM594 451q-39 36 -96 36q-56 0 -92 -36q-39 -39 -39 -97q0 -56 39 -92q36 -39 92 -39q57 0 96 39q37 37 37 92q0 57 -37 97zM930 565
q24 0 24 25v102q0 23 -24 23h-862q-25 0 -25 -23v-102q0 -25 25 -25h862z" />
    <glyph glyph-name="oslash" unicode="&#xf8;" horiz-adv-x="1382" 
d="M1298 627q0 -134 -38 -244q-41 -121 -117 -209q-78 -90 -193 -143q-118 -56 -268 -56q-152 0 -268 58q-119 55 -199 147q-83 92 -123 211q-43 119 -43 244q0 124 39 237q41 118 117 209q78 91 190 148q113 55 260 55h13q146 0 264 -53q111 -53 198 -146q81 -86 125 -206
q43 -116 43 -240v-12zM317 465q19 -86 58 -154q41 -78 94 -125q60 -57 131 -77v1032q-73 -15 -129 -68q-55 -49 -96 -121q-39 -68 -58 -155q-20 -81 -20 -170q0 -83 20 -162zM600 1171l27 -24l-27 -6v30zM623 106l-23 -22v25h6q2 -3 4 -3h13zM784 104q32 6 70 35
q34 27 64 64q38 52 51 78q29 56 35 73v-2q43 154 43 258q0 76 -17 170q-15 83 -49 152q-38 74 -82 121q-45 48 -115 77v-1026zM762 102h2q16 0 20 2v-24z" />
    <glyph glyph-name="ugrave" unicode="&#xf9;" horiz-adv-x="1136" 
d="M424 1206q4 -5 12.5 -15t12.5 -15q8 -12 26 -31l39 -39q24 -28 61 -59h58q13 0 20 10q5 8 2 22q-31 76 -71 166q-14 31 -52 94q-26 33 -45 41q-21 9 -49 9q-57 0 -57 -68q0 -51 43 -115zM1061 453q-3 102 -35 190q-35 83 -86 143q-50 59 -125 105q-76 47 -153 72
q-21 9 -31 -15l-10 -35q-6 -15 10 -28q111 -52 172 -154q61 -101 61 -237q0 -82 -14 -148q-16 -77 -41 -125q-25 -51 -68 -88q-39 -33 -88 -33q-41 0 -75 27q-35 27 -56 68q-26 50 -33 88q-12 46 -12 88v313q0 49 -14 92q-11 35 -45 82q-28 39 -68 60q-42 22 -88 22
q-44 0 -86 -31q-49 -42 -70 -78q-30 -52 -43 -92q-16 -50 -16 -80v-6q0 -24 23 -24h45q8 0 18 10q17 19 27 47q11 26 22 45q13 23 35 23q30 0 47 -33q17 -39 17 -62v-337q0 -64 24 -129q23 -62 70 -115q43 -52 102 -82q56 -33 127 -33h17q109 0 192 47q78 44 137 119
q56 72 84 156q27 82 27 155v13z" />
    <glyph glyph-name="uacute" unicode="&#xfa;" horiz-adv-x="1136" 
d="M668 1378q-31 0 -50 -8q-20 -9 -43 -41q-35 -57 -51 -94q-40 -90 -71 -166q-4 -11 2 -20q7 -13 18 -13h59l62 62l39 39q10 10 26 30q3 4 23 29q45 62 45 115q0 67 -59 67zM1061 453q-3 102 -35 190q-35 83 -86 143q-50 59 -125 105q-76 47 -153 72q-21 9 -31 -15l-10 -35
q-6 -15 10 -28q111 -52 172 -154q61 -101 61 -237q0 -82 -14 -148q-16 -77 -41 -125q-25 -51 -68 -88q-39 -33 -88 -33q-41 0 -75 27q-35 27 -56 68q-26 50 -33 88q-12 46 -12 88v313q0 49 -14 92q-11 35 -45 82q-28 39 -68 60q-42 22 -88 22q-44 0 -86 -31q-49 -42 -70 -78
q-30 -52 -43 -92q-16 -50 -16 -80v-6q0 -24 23 -24h45q8 0 18 10q17 19 27 47q11 26 22 45q13 23 35 23q30 0 47 -33q17 -39 17 -62v-337q0 -64 24 -129q23 -62 70 -115q43 -52 102 -82q56 -33 127 -33h17q109 0 192 47q78 44 137 119q56 72 84 156q27 82 27 155v13z" />
    <glyph glyph-name="ucircumflex" unicode="&#xfb;" horiz-adv-x="1136" 
d="M195 1028q6 3 18.5 12t15.5 11q30 20 35 24q3 2 29 21t41 28q44 28 74 45q47 23 71 33q35 12 68 12q71 0 141 -40q47 -29 133 -91l78 -55q15 -9 29 2q13 13 6 29q-16 36 -64 98q-45 58 -92 100t-112 80q-60 31 -119 31t-119 -31q-62 -36 -111 -80q-53 -47 -94 -100
q-40 -52 -61 -98zM1061 453q-3 102 -35 190q-35 83 -86 143q-50 59 -125 105q-76 47 -153 72q-21 9 -31 -15l-10 -35q-6 -15 10 -28q111 -52 172 -154q61 -101 61 -237q0 -82 -14 -148q-16 -77 -41 -125q-25 -51 -68 -88q-39 -33 -88 -33q-41 0 -75 27q-35 27 -56 68
q-26 50 -33 88q-12 46 -12 88v313q0 49 -14 92q-11 35 -45 82q-28 39 -68 60q-42 22 -88 22q-44 0 -86 -31q-49 -42 -70 -78q-30 -52 -43 -92q-16 -50 -16 -80v-6q0 -24 23 -24h45q8 0 18 10q17 19 27 47q11 26 22 45q13 23 35 23q30 0 47 -33q17 -39 17 -62v-337
q0 -64 24 -129q23 -62 70 -115q43 -52 102 -82q56 -33 127 -33h17q109 0 192 47q78 44 137 119q56 72 84 156q27 82 27 155v13z" />
    <glyph glyph-name="udieresis" unicode="&#xfc;" horiz-adv-x="1136" 
d="M850 1229q-31 31 -80 31q-47 0 -78 -31q-33 -33 -33 -80q0 -49 33 -78q29 -33 78 -33q51 0 80 33q31 31 31 78q0 44 -31 80zM401 1229q-31 31 -79 31q-47 0 -78 -31q-33 -33 -33 -80q0 -49 33 -78q29 -33 78 -33q50 0 79 33q31 31 31 78q0 44 -31 80zM1061 453
q-3 102 -35 190q-35 83 -86 143q-50 59 -125 105q-76 47 -153 72q-21 9 -31 -15l-10 -35q-6 -15 10 -28q111 -52 172 -154q61 -101 61 -237q0 -82 -14 -148q-16 -77 -41 -125q-25 -51 -68 -88q-39 -33 -88 -33q-41 0 -75 27q-35 27 -56 68q-26 50 -33 88q-12 46 -12 88v313
q0 49 -14 92q-11 35 -45 82q-28 39 -68 60q-42 22 -88 22q-44 0 -86 -31q-49 -42 -70 -78q-30 -52 -43 -92q-16 -50 -16 -80v-6q0 -24 23 -24h45q8 0 18 10q17 19 27 47q11 26 22 45q13 23 35 23q30 0 47 -33q17 -39 17 -62v-337q0 -64 24 -129q23 -62 70 -115
q43 -52 102 -82q56 -33 127 -33h17q109 0 192 47q78 44 137 119q56 72 84 156q27 82 27 155v13z" />
    <glyph glyph-name="yacute" unicode="&#xfd;" horiz-adv-x="1026" 
d="M721 936q-18 0 -21 -16q-20 -64 -82 -258q-49 -144 -90 -259q-15 38 -18 89q-2 21 -23 126l-16 87q-6 32 -27 88q-13 34 -43 73q-53 80 -155 80q-201 0 -201 -346q0 -22 25 -22h47q24 0 24 22q0 67 31 115q27 47 57 47q47 0 88 -74q33 -65 41 -84q20 -51 33 -100
q24 -89 27 -105q3 -19 10 -52t10 -48q19 -104 19 -119q-2 -4 -4 -12q-1 -4 -2.5 -9t-5 -14t-5.5 -16l-22 -88l2 2l-27 -78q-24 -74 -28 -90q-13 -50 -13 -102q0 -36 6 -66q6 -32 21 -57q10 -23 35 -41q24 -17 57 -17q23 0 53 23q31 24 49 59q22 39 33 88q12 49 12 109
q0 41 -4 119q-2 16 -5.5 48.5t-4.5 45.5q-2 10 -2 22q-2 6 -2 13q1 5 3 15.5t3 15.5t2 15t2 15q10 28 21 49q29 58 41 84q3 15 12 27q7 9 14 27v-2q52 99 117 231q79 161 139 305q4 14 -2 25q-7 10 -20 10h-211zM659 1378q-30 0 -49 -8q-20 -9 -43 -41q-32 -46 -53 -94
q-57 -131 -72 -166q-4 -11 2 -20q6 -13 21 -13h57q11 10 33 31t31 29q29 29 39 41q10 10 26 30q3 4 23 29q43 64 43 115q0 67 -58 67z" />
    <glyph glyph-name="thorn" unicode="&#xfe;" horiz-adv-x="1099" 
d="M399 879q89 59 187 59h8q105 0 184 -33q78 -34 135 -94q58 -61 84 -141q29 -89 29 -176q0 -75 -22 -168q-21 -93 -74 -170q-54 -79 -133 -129q-85 -54 -203 -54q-57 0 -107 13q-49 9 -94 43v-353q0 -25 -6 -49q-3 -8 -18 -53q-4 -7 -9 -10q-9 -6 -14 -6h-151
q-12 0 -19 10q-8 8 -4 18q7 34 18 74q7 40 7 68v1329q0 76 -33 96q-34 21 -94 21q-23 0 -23 22v43q0 20 19 23q6 1 118 32q74 21 183 62q11 4 20 -2q10 -7 10 -19zM799 553q-12 55 -45 119q-32 52 -76 78q-45 26 -107 26q-71 0 -120 -61q-52 -61 -52 -166q0 -6 -6 -12
q3 -2 4 -7v-14v-14q0 -11 -2 -13v5q-2 -5 -2 -9v-39q0 -78 8 -133q5 -58 29 -110q22 -48 64 -74q44 -29 108 -29q48 0 88 27q42 28 68 70q26 41 41 98q14 49 14 108q0 84 -14 150z" />
    <glyph glyph-name="ydieresis" unicode="&#xff;" horiz-adv-x="1026" 
d="M801 1229q-31 31 -82 31q-47 0 -78 -31q-33 -33 -33 -80q0 -49 33 -78q29 -33 78 -33q53 0 82 33q30 30 30 78q0 45 -30 80zM428 1229q-31 31 -80 31q-44 0 -80 -31q-32 -32 -32 -80q0 -50 32 -78q33 -33 80 -33q51 0 80 33q31 31 31 78q0 44 -31 80zM721 936
q-18 0 -21 -16q-20 -64 -82 -258q-49 -144 -90 -259q-15 38 -18 89q-2 21 -23 126l-16 87q-6 32 -27 88q-13 34 -43 73q-53 80 -155 80q-201 0 -201 -346q0 -22 25 -22h47q24 0 24 22q0 67 31 115q27 47 57 47q47 0 88 -74q33 -65 41 -84q20 -51 33 -100q24 -89 27 -105
q3 -19 10 -52t10 -48q19 -104 19 -119q-2 -4 -4 -12q-1 -4 -2.5 -9t-5 -14t-5.5 -16l-22 -88l2 2l-27 -78q-24 -74 -28 -90q-13 -50 -13 -102q0 -36 6 -66q6 -32 21 -57q10 -23 35 -41q24 -17 57 -17q23 0 53 23q31 24 49 59q22 39 33 88q12 49 12 109q0 41 -4 119
q-2 16 -5.5 48.5t-4.5 45.5q-2 10 -2 22q-2 6 -2 13q1 5 3 15.5t3 15.5t2 15t2 15q10 28 21 49q29 58 41 84q3 15 12 27q7 9 14 27v-2q52 99 117 231q79 161 139 305q4 14 -2 25q-7 10 -20 10h-211z" />
    <glyph glyph-name="OE" unicode="&#x152;" horiz-adv-x="1875" 
d="M51 637q6 121 45 231q39 116 107 201q69 91 166 148q100 59 225 71q4 4 12 4q6 -2 21 -2h30q49 0 111 -4q45 -3 78 -16h901q22 0 22 -23l21 -284q0 -27 -25 -27h-43q-19 0 -22 18q-10 37 -29 76q-21 32 -45 45q-31 17 -70 23q-41 6 -98 6h-295l336 -395q4 -12 4 -17
q0 -2 -4 -14l-354 -496h360q45 0 84 17q32 14 56 45q21 26 32 65q19 66 23 84q5 10 8 13q6 6 14 6h43q25 0 25 -25l-27 -364q0 -23 -22 -23l-938 2q-60 -12 -96 -16q-49 -6 -109 -6q-124 0 -223 51q-105 51 -174 135q-70 84 -111 201q-39 110 -39 239v31zM766 133
q54 9 98 29q94 135 180 264q81 122 185 264q-119 140 -178 215q-35 42 -102.5 121t-78.5 92q-4 2 -6 4q-89 29 -184 29q-94 0 -156 -45q-64 -46 -108 -117q-44 -67 -70 -162q-26 -86 -35 -186v-20q-2 -8 -2 -19l2 -12q8 -95 31 -184q21 -82 66 -146q40 -62 102 -96
q58 -37 145 -43q59 3 111 12z" />
    <glyph glyph-name="oe" unicode="&#x153;" horiz-adv-x="1568" 
d="M1454 248l25 -29q-23 -82 -60 -135q-38 -50 -84 -74q-50 -24 -110 -30q-75 -7 -144 -7q-82 0 -172 17q-80 15 -139 59q-61 -42 -125 -57q-68 -19 -145 -19q-122 0 -207 52q-88 54 -139 131q-54 79 -78 170q-25 95 -25 174q0 101 33 180q35 84 100 143q71 62 170 95
q95 32 244 32h14q65 -7 119 -26q58 -21 105 -62q28 48 98 66q75 16 147 16q64 0 121 -14q57 -15 109 -43q49 -28 78 -62q30 -37 30 -77q0 -38 -37 -68q-39 -31 -75 -31q-28 0 -43 6q-15 2 -33 17q-14 8 -27 28q-13 15 -30 43q-20 39 -48 60q-26 16 -75 16q-31 0 -68 -16
q-36 -19 -51 -60q1 -3 3 -10t3 -10v-29q0 -44 -6 -82q14 -38 61 -53q44 -15 107 -18l110 6q42 0 66 -12q25 -16 31 -58q0 -74 -95 -74l-57 5q-44 6 -68 6q-63 0 -110 -41q-47 -44 -47 -99q0 -65 53 -112q49 -44 170 -53q48 4 68 8q29 3 53 18q26 13 47 37t49 66q7 10 21 10
h63zM532 94q93 0 150 84q-8 27 -8 72q0 51 14 92q16 45 53 80q-69 21 -69 113q0 34 18 61q16 26 37 41q3 3 10.5 10t10.5 10q11 11 14 25q-13 37 -64 66q-52 30 -153 30h-25q-43 -5 -86 -28q-39 -21 -76 -62q-31 -33 -53 -86q-21 -53 -24 -110v-11q0 -61 20 -125
q19 -70 51 -125q36 -62 78 -98q45 -39 96 -39h6zM762 420q-15 0 -21 2q11 11 23 20q19 14 27 19q16 10 30 -4q13 -16 -2 -31q-8 -8 -37 -8q-14 0 -20 2z" />
    <glyph glyph-name="Scaron" unicode="&#x160;" horiz-adv-x="1083" 
d="M889 1673l-33 -22q-20 -11 -37 -25q-64 -44 -71 -49q-44 -28 -74 -45q-38 -21 -72 -33q-37 -12 -70 -12q-71 0 -141 43q-74 42 -137 88l-76 55q-16 9 -28 0q-15 -12 -9 -28q20 -44 64 -101q39 -53 94 -102t115 -78q56 -33 118 -33q60 0 119 33q60 29 115 78q52 46 96 102
q40 51 62 101zM203 -8q24 0 24 24v25q12 -3 27 -6q3 -1 13 -4t16 -4q99 -32 110 -35q68 -19 137 -19q96 0 191 29q83 25 156 82q64 52 104 125q39 68 39 160q0 79 -33 135q-30 50 -88 102q-50 39 -125 76q-86 37 -141 53q-149 47 -207 105q-59 56 -59 131q0 28 12 63
q11 27 35 58q24 28 51 41q32 16 65 16q68 0 93 -2q28 -2 63 -10q12 -4 47 -19q33 -19 43 -26q5 -3 12 -7t16 -10l15 -10q44 -27 55 -33h74q11 0 21 10q7 7 4 21l-51 188q-3 19 -25 19h-72q-13 0 -20 -10q-9 -12 -2 -23v-2q-102 31 -146 41q-72 16 -127 16q-94 0 -168 -26
q-76 -26 -139 -76q-58 -49 -92 -113q-35 -65 -35 -141q0 -71 29 -137q26 -62 80 -113q55 -52 121 -84q72 -38 153 -59q132 -34 195 -80q63 -45 63 -129q0 -104 -53 -160q-55 -55 -154 -55q-73 0 -120 8q-54 9 -101 27q-32 10 -84 45q-27 18 -78 69q-3 8 -16 8h-63
q-13 0 -21 -8t-4 -22l63 -236q3 -18 25 -18h72z" />
    <glyph glyph-name="scaron" unicode="&#x161;" horiz-adv-x="950" 
d="M518 821q35 -9 70 -26q33 -20 65 -52q34 -39 49 -81q-43 -25 -63 -70q-25 -48 -25 -98q0 -56 29 -93q27 -34 80 -34q51 0 86 18q32 19 47 53q18 41 23 80q4 62 4 103q0 74 -31 141q-27 56 -84 106q-56 44 -127 68q-74 22 -154 22h-10q-128 0 -211 -47q-87 -52 -133 -118
q-48 -68 -67 -150q-21 -77 -21 -135q0 -99 45 -156q46 -58 111 -96q56 -35 143 -66q68 -24 141 -63q63 -36 107 -90q44 -56 41 -146q0 -21 -15 -36t-57 -15q-57 0 -92 21q-42 26 -84 65v-2l-8 8l-23 21q-12 9 -32 25.5t-29 23.5q-27 21 -68 21q-49 0 -75 -29
q-27 -30 -27 -76q0 -60 49 -100q52 -43 115 -66q73 -27 129 -35q64 -12 96 -12q80 0 139 21q56 21 92 57q39 42 52 88q14 46 14 111q0 91 -27 155q-28 64 -69 105t-97 73q-105 57 -112 60q-12 6 -36.5 18.5t-37.5 18.5q-30 14 -68 41q-29 20 -53 51q-27 30 -35 67
q0 53 15 99t39 84q23 33 59 55q33 20 72 20q28 0 59 -8zM825 1393q-5 -3 -16 -11t-16 -12q-24 -14 -37 -24q-62 -43 -70 -48q-38 -24 -72 -45q-34 -19 -71 -32q-41 -13 -70 -13q-71 0 -139 41q-64 37 -135 88l-76 56q-16 10 -29 0q-16 -13 -6 -29q19 -43 62 -98
q37 -50 94 -101q58 -51 110 -78q54 -32 119 -32q62 0 119 32q59 30 113 78q52 46 92 101q40 52 61 98z" />
    <glyph glyph-name="Ydieresis" unicode="&#x178;" horiz-adv-x="1568" 
d="M1077 1542q-29 33 -80 33q-46 0 -79 -33t-33 -80t33 -80q32 -32 79 -32q52 0 80 32q31 36 31 80t-31 80zM625 1542q-29 33 -82 33q-47 0 -80 -33t-33 -80t33 -80q32 -32 80 -32q54 0 82 32q30 34 30 80t-30 80zM1491 1262q0 24 -23 24q-55 0 -110 -12q-57 -12 -103 -49
t-73 -105q-29 -72 -29 -180q0 -122 -59 -199q-58 -76 -201 -82v414q0 64 33 84q33 23 116 23q23 0 23 22v43q0 25 -23 25h-528q-25 0 -25 -25v-43q0 -22 25 -22q52 0 70 -2q20 -2 41 -15q12 -12 18 -33q4 -28 4 -57v-414q-133 3 -186 80q-53 74 -53 201q0 346 -336 346
q-25 0 -25 -24v-43q0 -20 16 -23q55 -16 70 -61q17 -53 17 -131q0 -142 24 -228q21 -84 80 -137t154 -74q94 -24 239 -39v-333q0 -56 -24 -80q-27 -27 -109 -27q-25 0 -25 -23v-38q0 -25 25 -25h512q25 0 25 25v38q0 23 -25 23q-74 0 -104 23q-29 23 -29 84v333
q177 16 270 47q101 30 154 89q54 57 72 139q17 77 20 203v32q0 56 10 94q9 33 62 68q10 10 10 21v43z" />
    <glyph glyph-name="Zcaron" unicode="&#x17d;" horiz-adv-x="1241" 
d="M967 1673q-20 -12 -35 -22q-20 -11 -37 -25q-51 -36 -143 -94q-74 -45 -144 -45q-71 0 -141 43q-64 37 -135 88l-78 55q-16 10 -29 0q-15 -12 -6 -28q20 -44 64 -101q39 -53 94 -102q59 -52 112 -78q56 -33 119 -33q60 0 119 33q60 29 115 78q52 46 96 102q37 48 61 101z
M1174 332q3 26 -25 26h-57q-20 0 -23 -16q-38 -129 -86 -168q-52 -43 -119 -43h-495l778 1065v51q0 25 -23 25h-970q-22 0 -25 -23l-43 -352q-3 -10 6 -16q9 -9 19 -9h57q19 0 22 19q7 38 25 94q15 45 41 82q46 70 139 70h412l-762 -1080v-32q0 -25 25 -25h1036q22 0 22 20z
" />
    <glyph glyph-name="zcaron" unicode="&#x17e;" horiz-adv-x="942" 
d="M612 340q-41 0 -84 14q-45 15 -82 37q48 27 74 33q33 8 64 8q48 0 73 -14q25 -16 25 -39q0 -39 -70 -39zM1012 -328q0 49 -11 113q-12 52 -38 88t-72 57q-47 21 -113 21q-13 0 -37 -4q-12 -3 -47 -23q-33 -22 -67 -51t-97 -92v2q-61 -49 -114 -49q-63 0 -107 78
q-24 50 -39 116q-16 69 -16 152q0 98 49 174q98 -43 254 -43q47 0 86 8q43 9 78 27q36 19 57 49t21 78q0 40 -19 76q-21 30 -51 51q-36 22 -72 30q-49 11 -77 11q-42 0 -101 -19q-56 -20 -110 -51q-9 15 -9 27q-2 8 -2 28q0 77 209 172l224 103q83 38 83 88q0 29 -20 43
q-21 12 -57 12h-475q-16 0 -43 10q-40 15 -56 23q-44 0 -53 -51l-31 -148q0 -49 37 -49q2 0 10 4l7 4q6 6 19.5 19t20.5 20q8 8 26.5 23t19.5 16q48 31 163 31h179l-222 -94l-43 -21q-33 -15 -80 -39q-31 -16 -73 -49q-33 -26 -53 -59q-21 -34 -21 -78q0 -48 18 -94
q13 -39 52 -82q-70 -82 -113 -172q-39 -85 -39 -181q0 -201 107 -299q104 -98 276 -98q18 0 59 6q12 1 80 15q37 8 78 28q37 18 60 47l-2 -4q71 62 118 62q50 0 78 -25q29 -29 29 -74q0 -49 39 -49q43 0 43 76v10zM848 1389q-5 -3 -35 -23q-20 -12 -37 -25q-57 -40 -69 -47
q-37 -24 -72 -45q-33 -18 -72 -32q-41 -13 -69 -13q-73 0 -140 43q-64 37 -135 88l-76 54q-14 8 -28 0q-16 -13 -6 -29q18 -39 63 -98q40 -55 92 -101q57 -50 111 -78q54 -32 119 -32q61 0 118 32q59 30 113 78q57 51 94 101q43 55 62 98z" />
    <glyph glyph-name="florin" unicode="&#x192;" horiz-adv-x="1015" 
d="M580 858q15 130 49 205q30 74 84 74q45 0 84 -31q37 -34 55 -98q4 -11 10 -13q6 -6 12 -6l48 2q10 0 18 8q9 9 6 19q-18 163 -80 246q-63 84 -147 84q-40 0 -92 -19q-49 -21 -95 -61q-42 -36 -86 -107q-37 -61 -59 -162l-74 -702l-2 -10q-4 -7 -6 -15q-13 -55 -29 -90
q-15 -27 -43 -30q-72 0 -96 127q-3 20 -24 20l-43 -2q-25 0 -25 -25q3 -165 61 -241t156 -76q80 3 148 51q71 50 92 158z" />
    <glyph glyph-name="circumflex" unicode="&#x2c6;" horiz-adv-x="884" 
d="M43 1053q21 46 63 100q37 50 95 102q49 44 114 80q60 31 119 31q61 0 121 -31q68 -40 113 -80q43 -41 94 -102q47 -64 63 -100q7 -17 -6 -27q-15 -12 -31 -2l-75 55q-65 47 -135 90q-71 41 -144 41q-32 0 -67 -12q-35 -11 -74 -33q-30 -17 -74 -45q-20 -12 -72 -49
q-10 -8 -34 -24q-8 -4 -19.5 -12.5t-15.5 -10.5z" />
    <glyph glyph-name="tilde" unicode="&#x2dc;" horiz-adv-x="888" 
d="M762 1655q-22 22 -37 -2l-31 -49q-21 -37 -41 -54q-18 -18 -71 -18q-41 4 -66 16q-18 6 -78 41h2q-61 37 -88 51q-41 18 -80 21h-10q-32 0 -76 -29q-40 -29 -69 -69q-33 -39 -54 -76q-22 -39 -22 -51l47 -86q7 -14 21 -11q12 0 22 13q36 67 70 104q33 39 69 39
q23 0 47 -12q27 -15 58 -37l28 -19q51 -40 93 -55q38 -15 82 -18h8q87 0 139 55q50 50 104 158q3 17 -6 26z" />
    <glyph glyph-name="endash" unicode="&#x2013;" horiz-adv-x="604" 
d="M63 565q-24 0 -24 25v102q0 23 24 23h467q23 0 23 -23v-102q0 -25 -23 -25h-467z" />
    <glyph glyph-name="emdash" unicode="&#x2014;" horiz-adv-x="892" 
d="M66 565q-25 0 -25 25v102q0 23 25 23h745q23 0 23 -23v-102q0 -25 -23 -25h-745z" />
    <glyph glyph-name="quoteleft" unicode="&#x2018;" horiz-adv-x="380" 
d="M57 1085q19 48 49 89q27 36 70 73q38 33 80 45q22 9 31 -16l16 -41q3 -15 -12 -27q-48 -28 -82 -71q-37 -49 -45 -93q6 3 39 3q65 0 100 -35q33 -36 33 -97q-21 -127 -129 -127q-63 0 -117 54q-53 53 -53 157q0 42 20 86z" />
    <glyph glyph-name="quoteright" unicode="&#x2019;" horiz-adv-x="380" 
d="M317 997q-18 -46 -49 -88q-31 -45 -69 -73q-38 -33 -80 -45q-24 -10 -33 16l-16 41q-3 15 12 24q50 30 84 76q37 47 45 88q-4 -2 -21 -2h-18q-66 0 -100 37q-35 38 -35 96q24 127 131 127q64 0 117 -53q51 -51 51 -158q0 -37 -19 -86z" />
    <glyph glyph-name="quotesinglbase" unicode="&#x201a;" horiz-adv-x="380" 
d="M317 -59q-16 -42 -49 -86q-32 -47 -69 -74q-38 -33 -80 -45q-24 -10 -33 16l-16 41q-3 16 12 25q50 30 84 73q36 46 45 91q-4 -2 -21 -2h-18q-67 0 -100 36q-35 38 -35 97q24 123 131 123q65 0 117 -52q51 -51 51 -157q0 -37 -19 -86z" />
    <glyph glyph-name="quotedblleft" unicode="&#x201c;" horiz-adv-x="706" 
d="M59 1087q15 38 50 89q29 39 69 73q43 32 80 43q24 10 33 -16l16 -41q0 -18 -12 -27q-49 -27 -84 -71q-37 -49 -45 -93q6 3 18 3h21q67 0 102 -35q33 -36 33 -97q-24 -127 -131 -127q-63 0 -117 54q-51 51 -51 157q0 41 18 88zM373 1087q16 41 49 89q27 36 70 73
q44 33 79 43q24 10 33 -16l17 -41q3 -14 -13 -27q-49 -27 -84 -71q-37 -49 -45 -93q6 3 19 3h20q68 0 103 -35q32 -35 32 -97q-24 -127 -131 -127q-62 0 -116 54q-52 52 -52 157q0 39 19 88z" />
    <glyph glyph-name="quotedblright" unicode="&#x201d;" horiz-adv-x="706" 
d="M635 997q-22 -49 -51 -88q-30 -43 -70 -73q-38 -33 -80 -45q-22 -9 -31 16l-16 41q-3 15 12 24q50 30 84 76q34 43 43 88q-4 -2 -39 -2q-64 0 -98 37q-35 38 -35 96q21 127 129 127q66 0 119 -53q51 -51 51 -158q0 -39 -18 -86zM322 997q-21 -46 -52 -88q-31 -45 -69 -73
q-38 -33 -80 -45q-22 -9 -31 16l-16 41q-3 15 12 24q49 32 82 76q37 47 45 88q-4 -2 -18 -2h-21q-64 0 -98 37q-35 38 -35 96q21 127 129 127q66 0 119 -53q51 -51 51 -158q0 -39 -18 -86z" />
    <glyph glyph-name="quotedblbase" unicode="&#x201e;" horiz-adv-x="724" 
d="M653 -59q-20 -44 -51 -86q-31 -45 -70 -74q-39 -33 -79 -45q-24 -10 -33 16l-14 41q-3 16 12 25q49 32 82 73q36 46 45 91q-4 -2 -19 -2h-20q-67 0 -100 36q-35 38 -35 97q24 123 131 123q67 0 119 -52q51 -51 51 -157q0 -37 -19 -86zM322 -57q-21 -46 -52 -88
q-34 -46 -69 -72q-38 -33 -80 -45q-22 -9 -31 16l-16 41q-3 16 12 25q49 30 84 74q34 43 43 90q-4 -2 -39 -2q-65 0 -98 36q-35 38 -35 97q21 123 129 123q67 0 119 -52q51 -51 51 -157q0 -39 -18 -86z" />
    <glyph glyph-name="dagger" unicode="&#x2020;" horiz-adv-x="716" 
d="M461 854q-30 13 -41 16q-6 1 -15.5 4t-11.5 3q3 -30 19 -46q8 -13 41 -38q6 -4 10 -17q3 -9 -4 -16q-38 -54 -53 -105q-17 -59 -17 -131q0 -71 8 -112q6 -52 43 -103l6 -8q4 -16 3 -18q0 -18 -7 -90q-10 -69 -45 -140q0 -2 6 -8l-2 4l7 -2q4 -6 6 -20v4q26 -58 32 -80
q9 -35 9 -60q0 -44 -29 -73q-28 -31 -74 -31q-43 0 -71 31q-27 30 -27 78v18l4 16q0 16 6 37q6 22 25 64q12 24 12 41q0 11 -6 26q-10 25 -14 33q-2 7 -10.5 28.5t-12.5 35.5q-12 28 -22 96q20 29 34 53q3 7 10.5 21.5t10.5 21.5v-2q20 56 20 150q0 42 -4 88q-2 28 -14 51
q-9 24 -21 45q-5 7 -15.5 21.5t-12.5 17.5q-9 9 -6 18q0 10 10 17q27 24 39 38q13 13 20 46h-2l-4 -3h-6l-6 -2q-16 0 -29 -8l-45 -18q-62 -19 -82 -19q-41 0 -65 27q-27 27 -27 68q0 39 27 63q25 25 63 25q57 0 113 -29h-2l39 -14l14 -4l14 -2q0 7 -22 71q7 4 10 33
q4 36 4 63q-3 -18 -22 -18q-22 -3 -25 18q-2 6 -2 17q-2 4 -2 16q0 53 29 82q27 27 73 27q45 0 72 -27t27 -86q0 -29 -9 -47l2 2q-1 -2 -3.5 -9.5t-4.5 -12.5q-9 -26 -20 -52q-2 -6 -6.5 -18.5t-6.5 -18.5q-7 -23 -10 -40q6 0 10 2h9q16 3 53 18h-2q56 29 106 29
q45 0 70 -25t25 -65t-25 -68q-27 -27 -72 -27q-52 0 -108 29h2zM268 1077q9 -45 19 -45z" />
    <glyph glyph-name="daggerdbl" unicode="&#x2021;" horiz-adv-x="716" 
d="M461 854q-30 13 -41 16q-6 1 -15.5 4t-11.5 3q3 -30 19 -46q8 -13 41 -38q6 -4 10 -17q3 -9 -4 -16q-38 -54 -53 -105q-17 -59 -17 -131q0 -75 14 -121q15 -48 56 -108q7 -7 4 -14q-4 -13 -10 -17q-30 -23 -41 -37q-16 -16 -19 -45h6l58 21q99 30 112 30q42 0 68 -26
q27 -27 27 -68q0 -40 -27 -67t-68 -27q-17 0 -47 10q-38 11 -61 23q-3 1 -9.5 2t-9.5 2q-12 4 -16 6l-16 6l-15 2q0 -6 2 -8v-8l2 -6v-6q3 -3 7 -11q0 -8 2 -10l2 -4q2 -8 4 -14v2q26 -58 32 -80q9 -35 9 -60q0 -44 -29 -73q-28 -31 -74 -31q-43 0 -71 31q-27 30 -27 78v18
q0 15 6 39q2 6 29 78q13 25 14 32q3 18 6 35q-23 -3 -35 -8q-25 -10 -43 -16h2q-56 -29 -98 -29q-41 0 -65 27q-27 24 -27 65q0 43 27 70q26 26 71 26t99 -28h-2q29 -16 51 -19l4 -2h14q-7 25 -18 41q-11 14 -41 37q-6 4 -10 17q-3 9 4 16q13 21 28 47q3 7 10.5 22.5
t10.5 22.5v-2q20 56 20 150q0 42 -4 88q-2 28 -14 51q-9 24 -21 45q-5 7 -15.5 21.5t-12.5 17.5q-9 9 -6 18q0 10 10 17q27 24 39 38q13 13 20 46h-2l-4 -3h-6l-6 -2q-16 0 -29 -8l-45 -18q-62 -19 -82 -19q-41 0 -65 27q-27 27 -27 68q0 39 27 63q25 25 63 25q57 0 113 -29
h-2l39 -14l14 -4l14 -2q0 7 -22 71q7 4 10 33q4 36 4 63q-3 -18 -22 -18q-22 -3 -25 18q-2 6 -2 17q-2 4 -2 16q0 53 29 82q27 27 73 27q45 0 72 -27t27 -86q0 -29 -9 -47l2 2q-1 -2 -3.5 -9.5t-4.5 -12.5q-9 -26 -20 -52q-2 -6 -6.5 -18.5t-6.5 -18.5q-7 -23 -10 -40
q6 0 10 2h9q16 3 53 18h-2q56 29 106 29q45 0 70 -25t25 -65t-25 -68q-27 -27 -72 -27q-52 0 -108 29h2zM268 1077q9 -45 19 -45z" />
    <glyph glyph-name="bullet" unicode="&#x2022;" horiz-adv-x="1382" 
d="M1311 647q0 126 -43 242q-48 122 -127 209q-83 89 -201 145q-119 55 -268 55h-13q-149 0 -262 -55q-118 -61 -192 -149q-76 -91 -117 -209q-41 -121 -41 -242q0 -127 43 -246q41 -121 123 -215q76 -90 201 -151q119 -58 272 -58q151 0 272 56q119 57 195 147
q78 91 119 211q39 116 39 248v12z" />
    <glyph glyph-name="ellipsis" unicode="&#x2026;" horiz-adv-x="972" 
d="M874 8q-40 -37 -94 -37q-57 0 -94 37q-39 36 -39 94t39 97q37 37 94 37q54 0 94 -37q37 -40 37 -97t-37 -94zM571 10q-40 -37 -94 -37q-57 0 -94 37q-39 36 -39 94t39 97q37 37 94 37q54 0 94 -37q37 -40 37 -97t-37 -94zM270 10q-40 -37 -96 -37q-55 0 -92 37
q-39 36 -39 94t39 97q37 37 92 37q56 0 96 -37q37 -40 37 -97t-37 -94z" />
    <glyph glyph-name="perthousand" unicode="&#x2030;" horiz-adv-x="2021" 
d="M53 25q0 -25 23 -25h542q23 0 23 25v41q0 22 -23 22q-49 0 -79 6q-32 3 -35 23q2 8 10 28q3 7 12 39l609 885q83 117 182 117q22 0 22 22v39q0 25 -22 25h-574q-22 0 -22 -25v-39q0 -22 22 -22q132 0 138 -51l-15 -43l-598 -869q-46 -67 -88 -100q-47 -35 -104 -35
q-23 0 -23 -22v-41zM1096 530q15 -15 28 -41q14 -42 17 -57q1 -10 4 -30.5t4 -30.5h-191q3 32 9 61q3 27 16 57q9 24 29 41q17 17 41 17q26 0 43 -17zM1010 90q-20 17 -29 43q-12 36 -14 57q-5 26 -9 60h191q-1 -8 -4 -28.5t-4 -31.5q-4 -22 -17 -57q-8 -25 -26 -43
q-19 -16 -45 -16q-27 0 -43 16zM1339 313q0 154 -73 252q-75 97 -215 97q-75 0 -129 -31q-61 -38 -91 -84q-37 -57 -51 -113q-16 -66 -16 -121q0 -67 14 -127q15 -63 49 -112q35 -53 88 -82q50 -33 134 -33t141 31q49 25 86 78q31 51 45 112q15 65 18 131v2zM385 1180
q19 -19 27 -41q11 -33 16 -58q1 -11 4 -31t4 -28h-188q5 43 8 59q2 23 14 58q8 22 27 41q16 16 43 16q26 0 45 -16zM297 739q-18 15 -27 43q-12 36 -14 60q-3 16 -8 59h188q-1 -10 -4 -30.5t-4 -30.5q-5 -25 -16 -58q-8 -24 -27 -43q-19 -16 -45 -16q-27 0 -43 16zM629 965
q0 71 -19 139q-18 64 -55 110q-35 44 -90 72q-58 25 -127 25q-75 0 -129 -31q-57 -37 -88 -82q-37 -57 -51 -113q-17 -70 -17 -120q0 -63 15 -127q15 -63 49 -115q35 -53 86 -82q50 -33 133 -33q84 0 141 31q51 25 88 78q31 51 45 112q16 70 19 134v2zM1688 530
q17 -17 26 -41q14 -42 17 -57q8 -39 10 -61h-191q3 32 9 61q2 21 14 57q9 24 29 41q17 17 40 17q26 0 46 -17zM1599 90q-17 18 -26 43q-12 36 -14 57q-5 26 -9 60h191q-1 -8 -4 -28.5t-4 -31.5q-4 -22 -17 -57q-8 -25 -26 -43q-19 -16 -48 -16q-27 0 -43 16zM1931 313
q0 154 -73 252q-75 97 -218 97q-75 0 -129 -31q-58 -38 -88 -84q-37 -57 -51 -113q-16 -66 -16 -121q0 -67 14 -127q15 -63 49 -112q35 -53 88 -82q50 -33 133 -33q85 0 142 31q49 25 86 78q31 51 45 112q15 65 18 131v2z" />
    <glyph glyph-name="guilsinglleft" unicode="&#x2039;" horiz-adv-x="583" 
d="M406 0q-11 0 -21 10l-342 455q-9 15 0 29l342 450q10 10 21 10h104q16 0 22 -12q6 -16 -2 -24l-323 -439l323 -442q9 -12 2 -25q-6 -12 -22 -12h-104z" />
    <glyph glyph-name="guilsinglright" unicode="&#x203a;" horiz-adv-x="583" 
d="M168 0q8 0 18 10l344 455q9 15 0 29l-344 450q-10 10 -18 10h-105q-16 0 -22 -12q-8 -14 2 -24l324 -439l-324 -442q-10 -14 -2 -25q6 -12 22 -12h105z" />
    <glyph glyph-name="Euro" unicode="&#x20ac;" horiz-adv-x="1497" 
d="M47 526q0 25 25 25l213 4q-2 6 -2 23v28v29q2 10 2 24v21q0 20 6 47h-219q-25 0 -25 25v106q0 23 25 23h258q27 79 73 149q48 72 109 125q64 55 141 88q80 36 170 45q8 4 15 4q6 -2 20 -2h31q113 0 192 -20q69 -18 113 -45q8 -8 20 -8q5 0 5 22l-2 18q0 25 24 25h59
q22 0 25 -18l90 -334q4 -11 -4 -19q-10 -10 -18 -10h-58q-10 0 -20 10q-55 79 -109 136q-55 55 -110 75q-89 29 -185 29q-128 0 -204 -76q-79 -79 -119 -194h549q22 0 22 -23v-106q0 -25 -22 -25h-586q-1 -7 -3 -21.5t-3 -21.5t-2 -20.5t-2 -20.5q0 -21 2 -31t2 -32
q1 -2 1.5 -5.5t1 -6t1.5 -3.5v-14h588q22 0 22 -25v-106q0 -23 -22 -23h-562q33 -115 113 -192q78 -75 199 -84q342 15 430 313q3 17 24 17h58q9 0 18 -9q7 -7 4 -20q-49 -216 -190 -330q-141 -112 -404 -112q-98 0 -180 30q-85 31 -149 86q-68 56 -115 133q-50 78 -74 168
h-237q-25 0 -25 23v106z" />
    <glyph glyph-name="trademark" unicode="&#x2122;" horiz-adv-x="1112" 
d="M434 1311q22 0 25 -21l10 -100q3 -25 -23 -25h-16q-19 0 -22 21q-3 22 -21 37q-15 12 -53 12h-15v-262q0 -29 9 -35q5 -5 24 -8q21 0 21 -23v-18q0 -23 -23 -23h-184q-23 0 -23 23v18q0 20 21 23l26 6v299h-14q-34 0 -47 -10t-23 -41q-4 -11 -8 -13q-9 -6 -14 -6h-16
q-25 0 -25 25l10 100q0 21 25 21h356zM756 1063l110 233l11 11q8 4 10 4h137q23 0 23 -23v-18q0 -22 -19 -25q-6 -2 -14 -2h-6h-4q-9 -3 -9 -6q-2 -4 -2 -35v-229q0 -25 -2 -27q-3 -5 2 -10l33 -6q21 -3 21 -23v-18q0 -23 -23 -23h-195q-24 0 -24 23v18q0 20 22 23
q18 3 29 8q5 5 8 33v135q-16 -34 -53 -113q-3 -6 -23.5 -48.5t-29.5 -65.5q-10 -13 -23 -13h-14q-13 0 -23 13l-106 223v-129v-31l2 -8q20 -4 22 -4h15q24 0 24 -23v-18q0 -23 -24 -23h-150q-14 0 -18 11q-5 8 -2 20l4 18l3 4q3 4 5 5q8 4 10 6q19 4 21 6q3 0 6 10l2 4v6
v246v35l-2 6q-6 0 -10 2h-19q-22 0 -22 25v18q0 23 22 23h140q4 0 12 -4q2 -2 5.5 -6t4.5 -5z" />
    <glyph glyph-name="BULLETOPERATOR" unicode="&#x2219;" horiz-adv-x="348" 
d="M262 758q-39 39 -94 39q-50 -3 -92 -39q-39 -36 -39 -96q3 -60 41 -95q36 -39 92 -39q60 3 98 41q37 37 37 93q-3 56 -43 96z" />
  </font>
</defs>
</svg>
